SplineFontDB: 3.0
FontName: Ravlyk.Znaky.2
FullName: Ravlyk.Znaky.2
FamilyName: Ravlyk.Znaky.2
Weight: Regular
Copyright: Copyright (C) 2016 Mykola Kovalchuk
UComments: "2016-4-24: Created with FontForge (http://fontforge.org)+AAoACgAA-Composed from fonts under SIL Open Font License,+AAoA-and itself also is licensed under SIL Open Font License.+AAoA-Designed for use in Stitch Art Easy! 5.0"
Version: 2.1
ItalicAngle: 0
UnderlinePosition: -151
UnderlineWidth: 0
Ascent: 816
Descent: 208
InvalidEm: 0
LayerCount: 2
Layer: 0 0 "Back" 1
Layer: 1 0 "Fore" 0
XUID: [1021 705 1627806746 11299005]
StyleMap: 0x0000
FSType: 0
OS2Version: 0
OS2_WeightWidthSlopeOnly: 0
OS2_UseTypoMetrics: 1
CreationTime: 1461475469
ModificationTime: 1462668426
OS2TypoAscent: 0
OS2TypoAOffset: 1
OS2TypoDescent: 0
OS2TypoDOffset: 1
OS2TypoLinegap: 92
OS2WinAscent: 0
OS2WinAOffset: 1
OS2WinDescent: 0
OS2WinDOffset: 1
HheadAscent: 0
HheadAOffset: 1
HheadDescent: 0
HheadDOffset: 1
OS2Vendor: 'PfEd'
MarkAttachClasses: 1
DEI: 91125
LangName: 1033
Encoding: UnicodeBmp
Compacted: 1
UnicodeInterp: none
NameList: AGL For New Fonts
DisplaySize: -48
AntiAlias: 1
FitToEm: 0
WidthSeparation: 154
WinInfo: 200 25 13
BeginPrivate: 0
EndPrivate
TeXData: 1 0 0 346030 173015 115343 0 1073742 115343 783286 444596 497025 792723 393216 433062 380633 303038 157286 324010 404750 52429 2506097 1059062 262144
BeginChars: 65536 517

StartChar: exclam
Encoding: 33 33 0
Width: 231
VWidth: 1000
Flags: HW
LayerCount: 2
Fore
SplineSet
156 729 m 1
 156 391 l 1
 134 168 l 1
 95 168 l 1
 73 391 l 1
 73 729 l 1
 156 729 l 1
156 104 m 1
 156 0 l 1
 72 0 l 1
 72 104 l 1
 156 104 l 1
EndSplineSet
Validated: 1
EndChar

StartChar: quotedbl
Encoding: 34 34 1
Width: 366
VWidth: 1000
Flags: HW
LayerCount: 2
Fore
SplineSet
56 709 m 1
 149 709 l 1
 149 598 l 1
 122 464 l 1
 83 464 l 1
 56 598 l 1
 56 709 l 1
216 709 m 1
 309 709 l 1
 309 598 l 1
 282 464 l 1
 243 464 l 1
 216 598 l 1
 216 709 l 1
EndSplineSet
Validated: 1
EndChar

StartChar: numbersign
Encoding: 35 35 2
Width: 629
VWidth: 1000
Flags: HW
LayerCount: 2
Fore
SplineSet
520 697 m 1
 484 501 l 1
 577 501 l 1
 577 433 l 1
 471 433 l 1
 440 259 l 1
 545 259 l 1
 545 191 l 1
 428 191 l 1
 389 -20 l 1
 313 -20 l 1
 351 191 l 1
 227 191 l 1
 188 -20 l 1
 112 -20 l 1
 150 191 l 1
 49 191 l 1
 49 259 l 1
 163 259 l 1
 194 433 l 1
 86 433 l 1
 86 501 l 1
 207 501 l 1
 243 697 l 1
 319 697 l 1
 283 501 l 1
 408 501 l 1
 443 697 l 1
 520 697 l 1
395 433 m 1
 271 433 l 1
 239 259 l 1
 364 259 l 1
 395 433 l 1
EndSplineSet
Validated: 1
EndChar

StartChar: dollar
Encoding: 36 36 3
Width: 591
VWidth: 1000
Flags: HW
LayerCount: 2
Fore
SplineSet
538 195 m 0
 538 68 463 -13 322 -23 c 1
 322 -126 l 1
 263 -126 l 1
 263 -23 l 1
 118 -13 53 67 53 208 c 1
 132 208 l 1
 138 140 142 62 263 46 c 1
 263 318 l 1
 143 354 66 389 66 516 c 0
 66 630 135 700 263 716 c 1
 263 770 l 1
 322 770 l 1
 322 716 l 1
 443 707 516 633 516 519 c 1
 437 519 l 1
 436 592 389 643 322 646 c 1
 322 397 l 1
 382 379 538 357 538 195 c 0
263 405 m 1
 263 645 l 1
 189 635 147 592 147 526 c 0
 147 465 184 426 263 405 c 1
322 46 m 1
 415 57 456 114 456 183 c 0
 456 249 424 279 322 309 c 1
 322 46 l 1
EndSplineSet
Validated: 1
EndChar

StartChar: percent
Encoding: 37 37 4
Width: 934
VWidth: 1000
Flags: HW
LayerCount: 2
Fore
SplineSet
223 685 m 0
 319 685 394 609 394 512 c 0
 394 420 317 343 224 343 c 0
 130 343 53 420 53 514 c 0
 53 608 130 685 223 685 c 0
223 615 m 0
 168 615 122 570 122 514 c 0
 122 459 168 413 224 413 c 0
 279 413 325 458 325 513 c 0
 325 570 280 615 223 615 c 0
633 709 m 1
 699 709 l 1
 304 -20 l 1
 238 -20 l 1
 633 709 l 1
712 322 m 0
 808 322 883 246 883 150 c 0
 883 58 805 -19 713 -19 c 0
 619 -19 542 58 542 152 c 0
 542 245 619 322 712 322 c 0
712 252 m 0
 657 252 611 207 611 152 c 0
 611 96 657 51 713 51 c 0
 768 51 814 96 814 150 c 0
 814 207 769 252 712 252 c 0
EndSplineSet
Validated: 1
EndChar

StartChar: ampersand
Encoding: 38 38 5
Width: 679
VWidth: 1000
Flags: HW
LayerCount: 2
Fore
SplineSet
467 78 m 1
 435 47 372 -23 258 -23 c 0
 135 -23 53 56 53 176 c 0
 53 267 91 317 215 389 c 1
 153 467 134 505 134 552 c 0
 134 640 210 709 305 709 c 0
 400 709 468 644 468 552 c 0
 468 480 434 437 330 378 c 1
 463 215 l 1
 482 249 494 294 494 330 c 0
 494 331 494 333 494 334 c 1
 574 334 l 1
 574 274 553 208 516 151 c 1
 638 0 l 1
 529 0 l 1
 467 78 l 1
286 431 m 1
 364 480 389 509 389 554 c 0
 389 603 352 639 302 639 c 0
 250 639 216 605 216 553 c 0
 216 518 225 501 286 431 c 1
419 137 m 1
 259 337 l 1
 168 279 137 239 137 183 c 0
 137 113 196 55 268 55 c 0
 320 55 363 78 419 137 c 1
EndSplineSet
Validated: 1
EndChar

StartChar: quotesingle
Encoding: 39 39 6
Width: 207
VWidth: 1000
Flags: HW
LayerCount: 2
Fore
SplineSet
56 709 m 1
 150 709 l 1
 150 598 l 1
 123 464 l 1
 83 464 l 1
 56 598 l 1
 56 709 l 1
EndSplineSet
Validated: 1
EndChar

StartChar: parenleft
Encoding: 40 40 7
Width: 321
VWidth: 1000
Flags: HW
LayerCount: 2
Fore
SplineSet
225 729 m 1
 280 729 l 1
 192 587 143 418 143 259 c 0
 143 99 192 -69 280 -212 c 1
 225 -212 l 1
 125 -81 62 101 62 259 c 0
 62 416 125 598 225 729 c 1
EndSplineSet
Validated: 1
EndChar

StartChar: parenright
Encoding: 41 41 8
Width: 319
VWidth: 1000
Flags: HW
LayerCount: 2
Fore
SplineSet
96 -212 m 1
 41 -212 l 1
 129 -70 178 99 178 258 c 0
 178 418 129 586 41 729 c 1
 96 729 l 1
 196 598 259 416 259 258 c 0
 259 101 196 -81 96 -212 c 1
EndSplineSet
Validated: 1
EndChar

StartChar: asterisk
Encoding: 42 42 9
Width: 397
VWidth: 1000
Flags: HW
LayerCount: 2
Fore
SplineSet
167 729 m 1
 230 729 l 1
 225 617 l 1
 331 655 l 1
 350 596 l 1
 242 566 l 1
 312 477 l 1
 261 441 l 1
 199 534 l 1
 136 441 l 1
 86 477 l 1
 155 566 l 1
 47 596 l 1
 66 655 l 1
 172 617 l 1
 167 729 l 1
EndSplineSet
Validated: 1
EndChar

StartChar: plus
Encoding: 43 43 10
Width: 590
VWidth: 1000
Flags: HW
LayerCount: 2
Fore
SplineSet
537 267 m 1
 537 197 l 1
 330 197 l 1
 330 -10 l 1
 260 -10 l 1
 260 197 l 1
 53 197 l 1
 53 267 l 1
 260 267 l 1
 260 474 l 1
 330 474 l 1
 330 267 l 1
 537 267 l 1
EndSplineSet
Validated: 1
EndChar

StartChar: comma
Encoding: 44 44 11
Width: 213
VWidth: 1000
Flags: HW
LayerCount: 2
Fore
SplineSet
54 104 m 1
 159 104 l 1
 159 -16 l 2
 159 -102 124 -147 54 -147 c 1
 54 -109 l 1
 92 -107 107 -87 107 -18 c 2
 107 0 l 1
 54 0 l 1
 54 104 l 1
EndSplineSet
Validated: 1
EndChar

StartChar: hyphen
Encoding: 45 45 12
Width: 367
VWidth: 1000
Flags: HW
LayerCount: 2
Fore
SplineSet
304 312 m 1
 304 240 l 1
 63 240 l 1
 63 312 l 1
 304 312 l 1
EndSplineSet
Validated: 1
EndChar

StartChar: period
Encoding: 46 46 13
Width: 213
VWidth: 1000
Flags: HW
LayerCount: 2
Fore
SplineSet
158 104 m 1
 158 0 l 1
 54 0 l 1
 54 104 l 1
 158 104 l 1
EndSplineSet
Validated: 1
EndChar

StartChar: slash
Encoding: 47 47 14
Width: 375
VWidth: 1000
Flags: HW
LayerCount: 2
Fore
SplineSet
278 729 m 1
 333 729 l 1
 96 -20 l 1
 41 -20 l 1
 278 729 l 1
EndSplineSet
Validated: 1
EndChar

StartChar: zero
Encoding: 48 48 15
Width: 594
VWidth: 1000
Flags: HW
LayerCount: 2
Fore
SplineSet
65 343 m 0
 65 654 198 709 297 709 c 4
 473 709 529 543 529 337 c 0
 529 104 447 -23 297 -23 c 0
 145 -23 65 104 65 343 c 0
297 631 m 0
 202 631 155 536 155 342 c 0
 155 148 202 50 295 50 c 0
 393 50 439 144 439 345 c 0
 439 535 392 631 297 631 c 0
EndSplineSet
Validated: 1
EndChar

StartChar: one
Encoding: 49 49 16
Width: 369
VWidth: 1000
Flags: HW
LayerCount: 2
Fore
SplineSet
204 505 m 1
 47 505 l 1
 47 568 l 1
 183 585 203 600 234 709 c 5
 292 709 l 1
 292 0 l 1
 204 0 l 1
 204 505 l 1
EndSplineSet
Validated: 1
EndChar

StartChar: two
Encoding: 50 50 17
Width: 584
VWidth: 1000
Flags: HW
LayerCount: 2
Fore
SplineSet
64 463 m 1
 70 677 201 709 298 709 c 4
 432 709 525 624 525 501 c 0
 525 414 474 341 375 287 c 2
 275 233 l 2
 186 185 156 145 147 87 c 1
 520 87 l 1
 520 0 l 1
 48 0 l 1
 56 156 99 223 247 307 c 2
 339 359 l 2
 402 395 435 443 435 499 c 0
 435 575 375 632 295 632 c 0
 173 632 156 529 152 463 c 1
 64 463 l 1
EndSplineSet
Validated: 1
EndChar

StartChar: three
Encoding: 51 51 18
Width: 579
VWidth: 1000
Flags: HW
LayerCount: 2
Fore
SplineSet
288 632 m 0
 176 632 155 557 153 480 c 1
 65 480 l 1
 68 631 144 709 287 709 c 0
 422 709 503 636 503 514 c 0
 503 443 470 393 404 367 c 1
 489 338 524 288 524 198 c 0
 524 64 430 -23 284 -23 c 0
 136 -23 61 52 50 206 c 1
 138 206 l 1
 144 103 191 55 287 55 c 0
 379 55 434 108 434 197 c 0
 434 282 384 326 287 326 c 2
 250 325 l 1
 239 325 l 1
 239 400 l 1
 356 402 413 419 413 511 c 0
 413 586 366 632 288 632 c 0
EndSplineSet
Validated: 1
EndChar

StartChar: four
Encoding: 52 52 19
Width: 595
VWidth: 1000
Flags: HW
LayerCount: 2
Fore
SplineSet
352 170 m 1
 53 170 l 1
 53 263 l 1
 375 709 l 5
 440 709 l 1
 440 249 l 1
 545 249 l 1
 545 170 l 1
 440 170 l 1
 440 0 l 1
 352 0 l 1
 352 170 l 1
352 249 m 1
 352 559 l 1
 130 249 l 1
 352 249 l 1
EndSplineSet
Validated: 1
EndChar

StartChar: five
Encoding: 53 53 20
Width: 582
VWidth: 1000
Flags: HW
LayerCount: 2
Fore
SplineSet
489 709 m 1
 489 622 l 1
 194 622 l 1
 166 424 l 1
 207 454 247 467 297 467 c 0
 433 467 526 371 526 231 c 0
 526 81 426 -23 283 -23 c 0
 83 -23 57 128 48 174 c 1
 136 174 l 1
 157 94 204 55 281 55 c 0
 377 55 436 117 436 219 c 0
 436 324 376 389 281 389 c 0
 226 389 192 372 151 323 c 1
 70 323 l 1
 123 709 l 5
 489 709 l 1
EndSplineSet
Validated: 1
EndChar

StartChar: six
Encoding: 54 54 21
Width: 590
VWidth: 1000
Flags: HW
LayerCount: 2
Fore
SplineSet
65 323 m 0
 65 651 215 709 319 709 c 4
 427 709 503 640 520 524 c 1
 432 524 l 1
 418 592 375 631 313 631 c 0
 212 631 156 535 155 362 c 1
 193 414 248 441 318 441 c 0
 445 441 535 348 535 216 c 0
 535 77 438 -23 303 -23 c 0
 126 -23 65 123 65 323 c 0
307 363 m 0
 220 363 160 302 160 214 c 0
 160 123 222 55 304 55 c 0
 385 55 445 120 445 209 c 0
 445 304 392 363 307 363 c 0
EndSplineSet
Validated: 1
EndChar

StartChar: seven
Encoding: 55 55 22
Width: 567
VWidth: 1000
Flags: HW
LayerCount: 2
Fore
SplineSet
520 709 m 1
 520 635 l 1
 360 422 271 227 232 0 c 1
 138 0 l 1
 191 233 260 381 429 622 c 1
 46 622 l 1
 46 709 l 5
 520 709 l 1
EndSplineSet
Validated: 1
EndChar

StartChar: eight
Encoding: 56 56 23
Width: 583
VWidth: 1000
Flags: HW
LayerCount: 2
Fore
SplineSet
408 373 m 1
 490 334 530 275 530 196 c 0
 530 67 432 -23 292 -23 c 0
 152 -23 54 67 54 197 c 0
 54 275 94 334 175 373 c 1
 103 418 79 454 79 520 c 0
 79 631 167 709 292 709 c 4
 418 709 505 631 505 520 c 0
 505 453 481 417 408 373 c 1
292 631 m 0
 218 631 169 587 169 519 c 0
 169 452 218 408 292 408 c 0
 366 408 415 452 415 518 c 0
 415 587 367 631 292 631 c 0
292 334 m 0
 204 334 144 278 144 195 c 0
 144 112 204 55 290 55 c 0
 380 55 440 111 440 195 c 0
 440 278 380 334 292 334 c 0
EndSplineSet
Validated: 1
EndChar

StartChar: nine
Encoding: 57 57 24
Width: 594
VWidth: 1000
Flags: HW
LayerCount: 2
Fore
SplineSet
529 363 m 0
 529 35 378 -23 274 -23 c 0
 166 -23 90 46 73 162 c 1
 161 162 l 1
 175 94 218 55 280 55 c 0
 381 55 437 151 438 324 c 1
 392 269 343 245 276 245 c 0
 148 245 58 338 58 470 c 0
 58 609 155 709 290 709 c 0
 466 709 529 565 529 363 c 0
289 632 m 0
 208 632 148 567 148 477 c 0
 148 382 201 323 286 323 c 0
 372 323 433 385 433 472 c 0
 433 564 371 632 289 632 c 0
EndSplineSet
Validated: 1
EndChar

StartChar: colon
Encoding: 58 58 25
Width: 241
VWidth: 1000
Flags: HW
LayerCount: 2
Fore
SplineSet
172 104 m 1
 172 0 l 1
 68 0 l 1
 68 104 l 1
 172 104 l 1
172 524 m 1
 172 420 l 1
 68 420 l 1
 68 524 l 1
 172 524 l 1
EndSplineSet
Validated: 1
EndChar

StartChar: less
Encoding: 60 60 27
Width: 607
VWidth: 1000
Flags: HW
LayerCount: 2
Fore
SplineSet
53 198 m 1
 53 267 l 1
 542 474 l 1
 542 395 l 1
 148 234 l 1
 542 70 l 1
 542 -9 l 1
 53 198 l 1
EndSplineSet
Validated: 1
EndChar

StartChar: equal
Encoding: 61 61 28
Width: 620
VWidth: 1000
Flags: HW
LayerCount: 2
Fore
SplineSet
552 353 m 1
 552 283 l 1
 68 283 l 1
 68 353 l 1
 552 353 l 1
552 181 m 1
 552 111 l 1
 68 111 l 1
 68 181 l 1
 552 181 l 1
EndSplineSet
Validated: 1
EndChar

StartChar: greater
Encoding: 62 62 29
Width: 606
VWidth: 1000
Flags: HW
LayerCount: 2
Fore
SplineSet
553 267 m 1
 553 198 l 1
 64 -9 l 1
 64 70 l 1
 458 231 l 1
 64 395 l 1
 64 474 l 1
 553 267 l 1
EndSplineSet
Validated: 1
EndChar

StartChar: question
Encoding: 63 63 30
Width: 531
VWidth: 1000
Flags: HW
LayerCount: 2
Fore
SplineSet
480 549 m 0
 480 384 301 365 301 246 c 2
 301 199 l 1
 211 199 l 1
 211 254 l 2
 211 390 390 423 390 549 c 0
 390 617 339 663 262 663 c 0
 158 663 133 596 133 507 c 1
 48 507 l 1
 48 661 123 741 267 741 c 0
 397 741 480 666 480 549 c 0
301 104 m 1
 301 0 l 1
 211 0 l 1
 211 104 l 1
 301 104 l 1
EndSplineSet
Validated: 1
EndChar

StartChar: at
Encoding: 64 64 31
Width: 1037
VWidth: 1000
Flags: HW
LayerCount: 2
Fore
SplineSet
690 501 m 1
 773 501 l 1
 683 221 l 1
 675 198 671 180 671 171 c 0
 671 147 694 127 721 127 c 0
 806 127 889 240 889 357 c 0
 889 524 728 664 537 664 c 0
 326 664 144 483 144 273 c 0
 144 82 307 -65 519 -65 c 0
 573 -65 630 -56 712 -33 c 1
 740 -100 l 1
 668 -127 588 -142 514 -142 c 0
 261 -142 59 36 59 258 c 0
 59 518 283 741 550 741 c 0
 783 741 976 572 976 369 c 0
 976 220 883 57 704 57 c 0
 641 57 603 83 594 134 c 1
 548 84 505 62 452 62 c 0
 359 62 289 141 289 245 c 0
 289 390 412 522 546 522 c 0
 601 522 643 492 668 435 c 1
 690 501 l 1
478 126 m 0
 573 126 634 281 634 368 c 0
 634 419 594 458 540 458 c 0
 456 458 379 356 379 244 c 0
 379 178 423 126 478 126 c 0
EndSplineSet
Validated: 1
EndChar

StartChar: A
Encoding: 65 65 32
Width: 733
VWidth: 1000
Flags: HW
LayerCount: 2
Fore
SplineSet
505 219 m 1
 224 219 l 1
 147 0 l 1
 48 0 l 1
 308 729 l 1
 428 729 l 1
 684 0 l 1
 580 0 l 1
 505 219 l 1
479 297 m 1
 367 629 l 1
 247 297 l 1
 479 297 l 1
EndSplineSet
Validated: 1
EndChar

StartChar: B
Encoding: 66 66 33
Width: 681
VWidth: 1000
Flags: HW
LayerCount: 2
Fore
SplineSet
619 208 m 0
 619 83 533 0 404 0 c 2
 75 0 l 1
 75 729 l 1
 371 729 l 2
 544 729 587 618 587 544 c 0
 587 470 552 416 486 385 c 1
 579 349 619 296 619 208 c 0
494 531 m 0
 494 625 426 647 348 647 c 2
 168 647 l 1
 168 415 l 1
 348 415 l 2
 436 415 494 444 494 531 c 0
395 82 m 2
 500 82 526 156 526 207 c 0
 526 281 481 333 395 333 c 2
 168 333 l 1
 168 82 l 1
 395 82 l 2
EndSplineSet
Validated: 1
EndChar

StartChar: C
Encoding: 67 67 34
Width: 747
VWidth: 1000
Flags: HW
LayerCount: 2
Fore
SplineSet
59 356 m 0
 59 508 126 741 392 741 c 0
 552 741 644 663 673 503 c 1
 578 503 l 1
 557 605 499 659 381 659 c 0
 240 659 152 544 152 357 c 0
 152 175 244 59 389 59 c 0
 511 59 570 128 592 266 c 1
 688 266 l 1
 666 73 566 -23 388 -23 c 0
 125 -23 59 207 59 356 c 0
EndSplineSet
Validated: 1
EndChar

StartChar: D
Encoding: 68 68 35
Width: 719
VWidth: 1000
Flags: HW
LayerCount: 2
Fore
SplineSet
75 0 m 1
 75 729 l 1
 356 729 l 2
 541 729 653 591 653 365 c 0
 653 138 540 0 356 0 c 2
 75 0 l 1
168 82 m 1
 340 82 l 2
 484 82 560 180 560 364 c 0
 560 550 484 647 340 647 c 2
 168 647 l 1
 168 82 l 1
EndSplineSet
Validated: 1
EndChar

StartChar: E
Encoding: 69 69 36
Width: 658
VWidth: 1000
Flags: HW
LayerCount: 2
Fore
SplineSet
168 332 m 1
 168 82 l 1
 598 82 l 1
 598 0 l 1
 75 0 l 1
 75 729 l 1
 580 729 l 1
 580 647 l 1
 168 647 l 1
 168 414 l 1
 565 414 l 1
 565 332 l 1
 168 332 l 1
EndSplineSet
Validated: 1
EndChar

StartChar: F
Encoding: 70 70 37
Width: 619
VWidth: 1000
Flags: HW
LayerCount: 2
Fore
SplineSet
168 332 m 1
 168 0 l 1
 75 0 l 1
 75 729 l 1
 564 729 l 1
 564 647 l 1
 168 647 l 1
 168 414 l 1
 516 414 l 1
 516 332 l 1
 168 332 l 1
EndSplineSet
Validated: 1
EndChar

StartChar: G
Encoding: 71 71 38
Width: 797
VWidth: 1000
Flags: HW
LayerCount: 2
Fore
SplineSet
152 362 m 0
 152 245 204 59 413 59 c 0
 546 59 642 153 642 283 c 2
 642 303 l 1
 420 303 l 1
 420 385 l 1
 724 385 l 1
 724 -4 l 1
 665 -4 l 1
 642 93 l 1
 571 14 492 -23 393 -23 c 0
 196 -23 59 133 59 357 c 0
 59 503 129 741 409 741 c 0
 576 741 688 656 714 508 c 1
 619 508 l 1
 599 602 519 659 408 659 c 0
 254 659 152 541 152 362 c 0
EndSplineSet
Validated: 1
EndChar

StartChar: H
Encoding: 72 72 39
Width: 714
VWidth: 1000
Flags: HW
LayerCount: 2
Fore
SplineSet
543 332 m 1
 168 332 l 1
 168 0 l 1
 75 0 l 1
 75 729 l 1
 168 729 l 1
 168 414 l 1
 543 414 l 1
 543 729 l 1
 636 729 l 1
 636 0 l 1
 543 0 l 1
 543 332 l 1
EndSplineSet
Validated: 1
EndChar

StartChar: I
Encoding: 73 73 40
Width: 247
VWidth: 1000
Flags: HW
LayerCount: 2
Fore
SplineSet
169 729 m 1
 169 0 l 1
 75 0 l 1
 75 729 l 1
 169 729 l 1
EndSplineSet
Validated: 1
EndChar

StartChar: J
Encoding: 74 74 41
Width: 541
VWidth: 1000
Flags: HW
LayerCount: 2
Fore
SplineSet
261 55 m 0
 352 55 373 124 373 216 c 2
 373 729 l 1
 466 729 l 1
 466 182 l 2
 466 56 387 -23 260 -23 c 0
 135 -23 57 52 57 170 c 2
 57 234 l 1
 152 234 l 1
 152 187 l 2
 152 102 191 55 261 55 c 0
EndSplineSet
Validated: 1
EndChar

StartChar: K
Encoding: 75 75 42
Width: 703
VWidth: 1000
Flags: HW
LayerCount: 2
Fore
SplineSet
168 255 m 1
 168 0 l 1
 75 0 l 1
 75 729 l 1
 168 729 l 1
 168 360 l 1
 531 729 l 1
 651 729 l 1
 354 432 l 1
 654 0 l 1
 544 0 l 1
 287 374 l 1
 168 255 l 1
EndSplineSet
Validated: 1
EndChar

StartChar: L
Encoding: 76 76 43
Width: 588
VWidth: 1000
Flags: HW
LayerCount: 2
Fore
SplineSet
168 729 m 1
 168 82 l 1
 528 82 l 1
 528 0 l 1
 75 0 l 1
 75 729 l 1
 168 729 l 1
EndSplineSet
Validated: 1
EndChar

StartChar: M
Encoding: 77 77 44
Width: 839
VWidth: 1000
Flags: HW
LayerCount: 2
Fore
SplineSet
468 0 m 1
 370 0 l 1
 163 611 l 1
 163 0 l 1
 75 0 l 1
 75 729 l 1
 204 729 l 1
 420 94 l 1
 632 729 l 1
 761 729 l 1
 761 0 l 1
 673 0 l 1
 673 611 l 1
 468 0 l 1
EndSplineSet
Validated: 1
EndChar

StartChar: N
Encoding: 78 78 45
Width: 723
VWidth: 1000
Flags: HW
LayerCount: 2
Fore
SplineSet
645 729 m 1
 645 0 l 1
 540 0 l 1
 163 591 l 1
 163 0 l 1
 75 0 l 1
 75 729 l 1
 176 729 l 1
 557 133 l 1
 557 729 l 1
 645 729 l 1
EndSplineSet
Validated: 1
EndChar

StartChar: O
Encoding: 79 79 46
Width: 827
VWidth: 1000
Flags: HW
LayerCount: 2
Fore
SplineSet
763 353 m 0
 763 143 629 -23 411 -23 c 0
 201 -23 59 131 59 359 c 0
 59 587 201 741 410 741 c 0
 624 741 763 588 763 353 c 0
410 659 m 0
 256 659 152 539 152 359 c 0
 152 179 256 59 411 59 c 0
 565 59 670 179 670 355 c 0
 670 539 568 659 410 659 c 0
EndSplineSet
Validated: 1
EndChar

StartChar: P
Encoding: 80 80 47
Width: 662
VWidth: 1000
Flags: HW
LayerCount: 2
Fore
SplineSet
601 515 m 0
 601 390 517 309 397 309 c 2
 168 309 l 1
 168 0 l 1
 75 0 l 1
 75 729 l 1
 376 729 l 2
 520 729 601 652 601 515 c 0
168 391 m 1
 362 391 l 2
 451 391 504 439 504 519 c 0
 504 599 451 647 362 647 c 2
 168 647 l 1
 168 391 l 1
EndSplineSet
Validated: 1
EndChar

StartChar: Q
Encoding: 81 81 48
Width: 827
VWidth: 1000
Flags: HW
LayerCount: 2
Fore
SplineSet
754 -1 m 1
 707 -59 l 1
 602 28 l 1
 543 -7 483 -23 411 -23 c 0
 201 -23 59 131 59 359 c 0
 59 587 201 741 411 741 c 0
 621 741 763 587 763 361 c 0
 763 246 729 152 660 76 c 1
 754 -1 l 1
502 205 m 1
 591 132 l 1
 645 193 670 266 670 360 c 0
 670 539 566 659 411 659 c 0
 256 659 152 539 152 359 c 0
 152 179 255 59 410 59 c 0
 454 59 487 67 530 87 c 1
 456 149 l 1
 502 205 l 1
EndSplineSet
Validated: 1
EndChar

StartChar: R
Encoding: 82 82 49
Width: 712
VWidth: 1000
Flags: HW
LayerCount: 2
Fore
SplineSet
518 360 m 1
 608 321 618 255 618 189 c 0
 618 172 617 155 617 138 c 0
 617 92 622 49 661 23 c 1
 661 0 l 1
 548 0 l 1
 535 30 528 74 528 119 c 2
 528 184 l 2
 528 274 491 314 408 314 c 2
 168 314 l 1
 168 0 l 1
 75 0 l 1
 75 729 l 1
 411 729 l 2
 554 729 633 660 633 534 c 0
 633 451 600 400 518 360 c 1
536 521 m 0
 536 625 471 647 393 647 c 2
 168 647 l 1
 168 396 l 1
 393 396 l 2
 492 396 536 435 536 521 c 0
EndSplineSet
Validated: 1
EndChar

StartChar: S
Encoding: 83 83 50
Width: 689
VWidth: 1000
Flags: HW
LayerCount: 2
Fore
SplineSet
348 59 m 0
 506 59 534 139 534 191 c 0
 534 248 492 285 400 309 c 2
 219 357 l 2
 123 382 76 438 76 527 c 0
 76 659 175 741 335 741 c 0
 503 741 601 658 602 515 c 1
 514 515 l 1
 513 610 448 663 332 663 c 0
 234 663 169 614 169 540 c 0
 169 484 201 456 289 432 c 2
 472 383 l 2
 571 356 627 290 627 200 c 0
 627 111 570 -23 342 -23 c 0
 216 -23 57 25 54 232 c 1
 142 232 l 1
 142 230 142 229 142 227 c 0
 142 153 183 59 348 59 c 0
EndSplineSet
Validated: 1
EndChar

StartChar: T
Encoding: 84 84 51
Width: 676
VWidth: 1000
Flags: HW
LayerCount: 2
Fore
SplineSet
383 647 m 1
 383 0 l 1
 290 0 l 1
 290 647 l 1
 50 647 l 1
 50 729 l 1
 622 729 l 1
 622 647 l 1
 383 647 l 1
EndSplineSet
Validated: 1
EndChar

StartChar: U
Encoding: 85 85 52
Width: 706
VWidth: 1000
Flags: HW
LayerCount: 2
Fore
SplineSet
538 729 m 1
 631 729 l 1
 631 217 l 2
 631 71 521 -23 350 -23 c 0
 177 -23 71 69 71 217 c 2
 71 729 l 1
 164 729 l 1
 164 217 l 2
 164 107 243 59 350 59 c 0
 467 59 538 119 538 217 c 2
 538 729 l 1
EndSplineSet
Validated: 1
EndChar

StartChar: V
Encoding: 86 86 53
Width: 705
VWidth: 1000
Flags: HW
LayerCount: 2
Fore
SplineSet
406 0 m 1
 306 0 l 1
 44 729 l 1
 144 729 l 1
 358 112 l 1
 560 729 l 1
 659 729 l 1
 406 0 l 1
EndSplineSet
Validated: 1
EndChar

StartChar: W
Encoding: 87 87 54
Width: 999
VWidth: 1000
Flags: HW
LayerCount: 2
Fore
SplineSet
766 0 m 1
 664 0 l 1
 496 599 l 1
 333 0 l 1
 231 0 l 1
 44 729 l 1
 148 729 l 1
 285 137 l 1
 447 729 l 1
 547 729 l 1
 713 137 l 1
 847 729 l 1
 951 729 l 1
 766 0 l 1
EndSplineSet
Validated: 1
EndChar

StartChar: X
Encoding: 88 88 55
Width: 719
VWidth: 1000
Flags: HW
LayerCount: 2
Fore
SplineSet
415 374 m 1
 673 0 l 1
 558 0 l 1
 359 304 l 1
 159 0 l 1
 46 0 l 1
 304 374 l 1
 62 729 l 1
 175 729 l 1
 362 443 l 1
 550 729 l 1
 661 729 l 1
 415 374 l 1
EndSplineSet
Validated: 1
EndChar

StartChar: Y
Encoding: 89 89 56
Width: 735
VWidth: 1000
Flags: HW
LayerCount: 2
Fore
SplineSet
416 286 m 1
 416 0 l 1
 323 0 l 1
 323 286 l 1
 42 729 l 1
 157 729 l 1
 371 374 l 1
 579 729 l 1
 690 729 l 1
 416 286 l 1
EndSplineSet
Validated: 1
EndChar

StartChar: Z
Encoding: 90 90 57
Width: 673
VWidth: 1000
Flags: HW
LayerCount: 2
Fore
SplineSet
609 729 m 1
 609 645 l 1
 173 82 l 1
 611 82 l 1
 611 0 l 1
 56 0 l 1
 56 82 l 1
 494 647 l 1
 84 647 l 1
 84 729 l 1
 609 729 l 1
EndSplineSet
Validated: 1
EndChar

StartChar: bracketleft
Encoding: 91 91 58
Width: 308
VWidth: 1000
Flags: HW
LayerCount: 2
Fore
SplineSet
263 729 m 1
 263 657 l 1
 160 657 l 1
 160 -140 l 1
 263 -140 l 1
 263 -212 l 1
 77 -212 l 1
 77 729 l 1
 263 729 l 1
EndSplineSet
Validated: 1
EndChar

StartChar: backslash
Encoding: 92 92 59
Width: 375
VWidth: 1000
Flags: HW
LayerCount: 2
Fore
SplineSet
97 729 m 1
 334 -20 l 1
 279 -20 l 1
 42 729 l 1
 97 729 l 1
EndSplineSet
Validated: 1
EndChar

StartChar: bracketright
Encoding: 93 93 60
Width: 308
VWidth: 1000
Flags: HW
LayerCount: 2
Fore
SplineSet
45 -212 m 1
 45 -140 l 1
 148 -140 l 1
 148 657 l 1
 45 657 l 1
 45 729 l 1
 231 729 l 1
 231 -212 l 1
 45 -212 l 1
EndSplineSet
Validated: 1
EndChar

StartChar: asciicircum
Encoding: 94 94 61
Width: 488
VWidth: 1000
Flags: HW
LayerCount: 2
Fore
SplineSet
207 709 m 1
 280 709 l 1
 435 329 l 1
 366 329 l 1
 244 629 l 1
 123 329 l 1
 54 329 l 1
 207 709 l 1
EndSplineSet
Validated: 1
EndChar

StartChar: underscore
Encoding: 95 95 62
Width: 772
VWidth: 1000
Flags: HW
LayerCount: 2
Fore
SplineSet
686 -126 m 1
 686 -176 l 1
 86 -176 l 1
 86 -126 l 1
 686 -126 l 1
EndSplineSet
Validated: 1
EndChar

StartChar: grave
Encoding: 96 96 63
Width: 304
VWidth: 1000
Flags: HW
LayerCount: 2
Fore
SplineSet
159 740 m 1
 255 592 l 1
 195 592 l 1
 46 740 l 1
 159 740 l 1
EndSplineSet
Validated: 1
EndChar

StartChar: a
Encoding: 97 97 64
Width: 601
VWidth: 1000
Flags: HW
LayerCount: 2
Fore
SplineSet
79 369 m 1
 84 511 195 539 289 539 c 0
 418 539 486 489 486 396 c 2
 486 88 l 2
 486 62 502 47 531 47 c 0
 536 47 540 47 549 49 c 1
 549 -14 l 1
 522 -21 509 -23 492 -23 c 0
 438 -23 412 1 406 54 c 1
 347 0 294 -23 228 -23 c 0
 122 -23 56 37 56 132 c 0
 56 272 163 284 316 304 c 0
 382 312 403 327 403 362 c 2
 403 384 l 2
 403 434 361 462 286 462 c 0
 208 462 170 433 163 369 c 1
 79 369 l 1
246 50 m 0
 345 50 403 115 403 165 c 2
 403 259 l 1
 318 220 143 249 143 134 c 0
 143 81 181 50 246 50 c 0
EndSplineSet
Validated: 1
EndChar

StartChar: b
Encoding: 98 98 65
Width: 609
VWidth: 1000
Flags: HW
LayerCount: 2
Fore
SplineSet
75 729 m 1
 158 729 l 1
 158 453 l 1
 197 512 248 539 320 539 c 0
 458 539 544 434 544 264 c 0
 544 90 454 -23 316 -23 c 0
 243 -23 190 6 150 67 c 1
 150 0 l 1
 75 0 l 1
 75 729 l 1
304 461 m 0
 216 461 158 381 158 258 c 0
 158 135 216 55 304 55 c 0
 395 55 457 136 457 255 c 0
 457 380 397 461 304 461 c 0
EndSplineSet
Validated: 1
EndChar

StartChar: c
Encoding: 99 99 66
Width: 566
VWidth: 1000
Flags: HW
LayerCount: 2
Fore
SplineSet
498 348 m 1
 414 348 l 1
 404 421 360 462 290 462 c 0
 199 462 145 384 145 253 c 0
 145 129 200 54 292 54 c 0
 363 54 406 96 420 180 c 1
 504 180 l 1
 494 52 415 -23 290 -23 c 0
 148 -23 58 84 58 253 c 0
 58 427 150 539 291 539 c 0
 411 539 488 473 498 348 c 1
EndSplineSet
Validated: 1
EndChar

StartChar: d
Encoding: 100 100 67
Width: 605
VWidth: 1000
Flags: HW
LayerCount: 2
Fore
SplineSet
527 729 m 1
 527 0 l 1
 453 0 l 1
 453 69 l 1
 408 4 358 -23 286 -23 c 0
 145 -23 58 86 58 263 c 0
 58 430 147 539 283 539 c 0
 353 539 409 511 444 458 c 1
 444 729 l 1
 527 729 l 1
297 461 m 0
 206 461 145 380 145 258 c 0
 145 136 206 55 298 55 c 0
 386 55 444 135 444 256 c 0
 444 381 387 461 297 461 c 0
EndSplineSet
Validated: 1
EndChar

StartChar: e
Encoding: 101 101 68
Width: 594
VWidth: 1000
Flags: HW
LayerCount: 2
Fore
SplineSet
531 234 m 1
 145 234 l 1
 147 127 202 54 299 54 c 0
 366 54 413 90 436 159 c 1
 520 159 l 1
 499 45 416 -23 296 -23 c 0
 149 -23 58 83 58 255 c 0
 58 427 152 539 298 539 c 0
 460 539 531 424 531 234 c 1
147 302 m 1
 442 302 l 1
 442 392 383 462 297 462 c 0
 213 462 154 399 147 302 c 1
EndSplineSet
Validated: 1
EndChar

StartChar: f
Encoding: 102 102 69
Width: 353
VWidth: 1000
Flags: HW
LayerCount: 2
Fore
SplineSet
291 524 m 1
 291 456 l 1
 204 456 l 1
 204 0 l 1
 121 0 l 1
 121 456 l 1
 51 456 l 1
 51 524 l 1
 121 524 l 1
 121 613 l 2
 121 688 167 732 244 732 c 0
 261 732 272 731 291 727 c 1
 291 658 l 1
 272 659 269 659 262 659 c 0
 224 659 204 641 204 606 c 2
 204 524 l 1
 291 524 l 1
EndSplineSet
Validated: 1
EndChar

StartChar: g
Encoding: 103 103 70
Width: 593
VWidth: 1000
Flags: HW
LayerCount: 2
Fore
SplineSet
274 -23 m 0
 155 -23 58 82 58 253 c 0
 58 423 148 539 281 539 c 0
 348 539 399 510 441 448 c 1
 431 524 l 5
 518 524 l 1
 518 86 l 2
 518 -96 483 -218 284 -218 c 0
 161 -218 84 -159 75 -60 c 1
 160 -60 l 1
 174 -145 261 -148 287 -148 c 0
 405 -148 433 -76 433 44 c 2
 433 71 l 1
 386 5 340 -23 274 -23 c 0
290 462 m 0
 201 462 145 384 145 258 c 0
 145 131 200 54 291 54 c 0
 379 54 433 130 433 255 c 0
 433 386 380 462 290 462 c 0
EndSplineSet
Validated: 1
EndChar

StartChar: h
Encoding: 104 104 71
Width: 564
VWidth: 1000
Flags: HW
LayerCount: 2
Fore
SplineSet
408 363 m 2
 408 445 343 466 300 466 c 0
 214 466 158 396 158 289 c 2
 158 0 l 1
 75 0 l 1
 75 729 l 1
 158 729 l 1
 158 452 l 1
 207 516 252 539 326 539 c 0
 428 539 491 484 491 396 c 2
 491 0 l 1
 408 0 l 1
 408 363 l 2
EndSplineSet
Validated: 1
EndChar

StartChar: i
Encoding: 105 105 72
Width: 238
VWidth: 1000
Flags: HW
LayerCount: 2
Fore
SplineSet
159 524 m 1
 159 0 l 1
 76 0 l 1
 76 524 l 1
 159 524 l 1
159 729 m 1
 159 624 l 1
 75 624 l 1
 75 729 l 1
 159 729 l 1
EndSplineSet
Validated: 1
EndChar

StartChar: j
Encoding: 106 106 73
Width: 286
VWidth: 1000
Flags: HW
LayerCount: 2
Fore
SplineSet
124 524 m 1
 207 524 l 1
 207 -109 l 2
 207 -180 158 -218 64 -218 c 0
 51 -218 46 -217 36 -215 c 1
 36 -144 l 1
 43 -145 52 -146 59 -146 c 0
 108 -146 124 -128 124 -76 c 2
 124 524 l 1
207 729 m 1
 207 624 l 1
 124 624 l 1
 124 729 l 1
 207 729 l 1
EndSplineSet
Validated: 1
EndChar

StartChar: k
Encoding: 107 107 74
Width: 565
VWidth: 1000
Flags: HW
LayerCount: 2
Fore
SplineSet
158 729 m 1
 158 302 l 1
 380 524 l 1
 487 524 l 1
 305 343 l 1
 519 0 l 1
 416 0 l 1
 239 284 l 1
 158 204 l 1
 158 0 l 1
 75 0 l 1
 75 729 l 1
 158 729 l 1
EndSplineSet
Validated: 1
EndChar

StartChar: l
Encoding: 108 108 75
Width: 237
VWidth: 1000
Flags: HW
LayerCount: 2
Fore
SplineSet
159 729 m 1
 159 0 l 1
 75 0 l 1
 75 729 l 1
 159 729 l 1
EndSplineSet
Validated: 1
EndChar

StartChar: m
Encoding: 109 109 76
Width: 839
VWidth: 1000
Flags: HW
LayerCount: 2
Fore
SplineSet
73 524 m 1
 150 524 l 1
 150 450 l 1
 195 513 241 539 311 539 c 0
 379 539 421 515 452 459 c 1
 501 518 543 539 613 539 c 0
 711 539 765 487 765 393 c 2
 765 0 l 1
 681 0 l 1
 681 361 l 2
 681 427 645 466 584 466 c 0
 516 466 461 405 461 329 c 2
 461 0 l 1
 377 0 l 1
 377 361 l 2
 377 428 342 466 280 466 c 0
 212 466 157 405 157 329 c 2
 157 0 l 1
 73 0 l 1
 73 524 l 1
EndSplineSet
Validated: 1
EndChar

StartChar: n
Encoding: 110 110 77
Width: 563
VWidth: 1000
Flags: HW
LayerCount: 2
Fore
SplineSet
73 524 m 1
 150 524 l 1
 150 436 l 1
 196 509 246 539 324 539 c 0
 425 539 490 483 490 396 c 2
 490 0 l 1
 407 0 l 1
 407 363 l 2
 407 426 365 466 299 466 c 0
 213 466 157 396 157 289 c 2
 157 0 l 1
 73 0 l 1
 73 524 l 1
EndSplineSet
Validated: 1
EndChar

StartChar: o
Encoding: 111 111 78
Width: 597
VWidth: 1000
Flags: HW
LayerCount: 2
Fore
SplineSet
294 539 m 0
 445 539 532 435 532 254 c 0
 532 82 442 -23 295 -23 c 0
 146 -23 58 82 58 258 c 0
 58 434 147 539 294 539 c 0
295 462 m 0
 202 462 145 384 145 258 c 0
 145 131 202 54 295 54 c 0
 387 54 445 132 445 255 c 0
 445 385 389 462 295 462 c 0
EndSplineSet
Validated: 1
EndChar

StartChar: p
Encoding: 112 112 79
Width: 607
VWidth: 1000
Flags: HW
LayerCount: 2
Fore
SplineSet
73 -218 m 1
 73 524 l 1
 150 524 l 1
 150 445 l 1
 189 507 246 539 317 539 c 0
 456 539 542 429 542 253 c 0
 542 86 453 -23 318 -23 c 0
 250 -23 201 1 157 55 c 1
 157 -218 l 1
 73 -218 l 1
303 461 m 0
 215 461 157 381 157 258 c 0
 157 135 215 55 303 55 c 0
 394 55 455 136 455 255 c 0
 455 380 395 461 303 461 c 0
EndSplineSet
Validated: 1
EndChar

StartChar: q
Encoding: 113 113 80
Width: 604
VWidth: 1000
Flags: HW
LayerCount: 2
Fore
SplineSet
527 -218 m 1
 444 -218 l 1
 444 60 l 1
 405 3 355 -23 282 -23 c 0
 144 -23 58 82 58 252 c 0
 58 426 148 539 286 539 c 0
 355 539 414 509 453 454 c 1
 453 524 l 1
 527 524 l 1
 527 -218 l 1
298 461 m 0
 206 461 145 379 145 258 c 0
 145 136 206 55 298 55 c 0
 386 55 444 135 444 255 c 0
 444 381 387 461 298 461 c 0
EndSplineSet
Validated: 1
EndChar

StartChar: r
Encoding: 114 114 81
Width: 386
VWidth: 1000
Flags: HW
LayerCount: 2
Fore
SplineSet
325 451 m 1
 224 449 157 419 157 272 c 2
 157 0 l 1
 73 0 l 1
 73 524 l 1
 150 524 l 1
 150 429 l 1
 198 507 239 539 293 539 c 0
 304 539 311 538 325 536 c 1
 325 451 l 1
EndSplineSet
Validated: 1
EndChar

StartChar: s
Encoding: 115 115 82
Width: 541
VWidth: 1000
Flags: HW
LayerCount: 2
Fore
SplineSet
142 156 m 1
 149 105 168 54 270 54 c 0
 343 54 392 87 392 136 c 0
 392 174 369 195 311 209 c 2
 233 228 l 2
 109 258 67 297 67 379 c 0
 67 476 146 539 268 539 c 0
 389 539 457 481 458 378 c 1
 370 378 l 1
 368 433 332 462 265 462 c 0
 197 462 154 431 154 383 c 0
 154 346 183 324 251 308 c 2
 331 289 l 2
 435 264 479 221 479 143 c 0
 479 42 395 -23 263 -23 c 0
 126 -23 58 35 54 156 c 1
 142 156 l 1
EndSplineSet
Validated: 1
EndChar

StartChar: t
Encoding: 116 116 83
Width: 354
VWidth: 1000
Flags: HW
LayerCount: 2
Fore
SplineSet
292 524 m 1
 292 456 l 1
 206 456 l 1
 206 97 l 2
 206 60 216 50 252 50 c 0
 268 50 281 51 292 54 c 1
 292 -16 l 1
 264 -21 244 -23 224 -23 c 0
 159 -23 123 7 123 60 c 2
 123 456 l 1
 52 456 l 1
 52 524 l 1
 123 524 l 1
 123 668 l 1
 206 668 l 1
 206 524 l 1
 292 524 l 1
EndSplineSet
Validated: 1
EndChar

StartChar: u
Encoding: 117 117 84
Width: 562
VWidth: 1000
Flags: HW
LayerCount: 2
Fore
SplineSet
486 0 m 1
 411 0 l 1
 411 73 l 1
 362 4 313 -23 236 -23 c 0
 134 -23 69 33 69 120 c 2
 69 524 l 1
 152 524 l 1
 152 153 l 2
 152 90 194 50 260 50 c 0
 347 50 403 120 403 227 c 2
 403 524 l 1
 486 524 l 1
 486 0 l 1
EndSplineSet
Validated: 1
EndChar

StartChar: v
Encoding: 118 118 85
Width: 577
VWidth: 1000
Flags: HW
LayerCount: 2
Fore
SplineSet
324 0 m 1
 233 0 l 1
 49 524 l 1
 143 524 l 1
 283 99 l 1
 431 524 l 1
 525 524 l 1
 324 0 l 1
EndSplineSet
Validated: 1
EndChar

StartChar: w
Encoding: 119 119 86
Width: 806
VWidth: 1000
Flags: HW
LayerCount: 2
Fore
SplineSet
598 0 m 1
 503 0 l 1
 397 411 l 1
 296 0 l 1
 202 0 l 1
 50 524 l 1
 142 524 l 1
 249 116 l 1
 349 524 l 1
 451 524 l 1
 554 116 l 1
 658 524 l 1
 752 524 l 1
 598 0 l 1
EndSplineSet
Validated: 1
EndChar

StartChar: x
Encoding: 120 120 87
Width: 556
VWidth: 1000
Flags: HW
LayerCount: 2
Fore
SplineSet
324 271 m 1
 505 0 l 1
 408 0 l 1
 277 201 l 1
 144 0 l 1
 49 0 l 1
 234 267 l 1
 59 524 l 1
 154 524 l 1
 280 334 l 1
 406 524 l 1
 500 524 l 1
 324 271 l 1
EndSplineSet
Validated: 1
EndChar

StartChar: y
Encoding: 121 121 88
Width: 559
VWidth: 1000
Flags: HW
LayerCount: 2
Fore
SplineSet
416 524 m 1
 506 524 l 1
 273 -110 l 2
 244 -187 195 -218 138 -218 c 0
 116 -218 99 -214 82 -205 c 1
 82 -130 l 1
 100 -134 114 -136 126 -136 c 0
 161 -136 179 -122 193 -85 c 2
 225 -2 l 1
 48 524 l 1
 137 524 l 1
 271 116 l 1
 416 524 l 1
EndSplineSet
Validated: 1
EndChar

StartChar: z
Encoding: 122 122 89
Width: 545
VWidth: 1000
Flags: HW
LayerCount: 2
Fore
SplineSet
470 524 m 1
 470 450 l 1
 159 73 l 1
 484 73 l 1
 484 0 l 1
 58 0 l 1
 58 75 l 1
 371 451 l 1
 79 451 l 1
 79 524 l 1
 470 524 l 1
EndSplineSet
Validated: 1
EndChar

StartChar: braceleft
Encoding: 123 123 90
Width: 329
VWidth: 1000
Flags: HW
LayerCount: 2
Fore
SplineSet
284 729 m 1
 284 664 l 1
 269 664 l 2
 220 664 206 649 206 597 c 2
 206 416 l 2
 206 324 185 283 124 259 c 1
 180 233 206 184 206 101 c 2
 206 -80 l 2
 206 -132 220 -147 269 -147 c 2
 284 -147 l 1
 284 -212 l 1
 238 -212 l 2
 169 -212 129 -164 129 -81 c 2
 129 86 l 2
 129 178 110 212 51 224 c 1
 51 293 l 1
 110 305 129 338 129 431 c 2
 129 598 l 2
 129 681 169 729 238 729 c 2
 284 729 l 1
EndSplineSet
Validated: 1
EndChar

StartChar: bar
Encoding: 124 124 91
Width: 214
VWidth: 1000
Flags: HW
LayerCount: 2
Fore
SplineSet
77 729 m 1
 137 729 l 1
 137 -212 l 1
 77 -212 l 1
 77 729 l 1
EndSplineSet
Validated: 1
EndChar

StartChar: braceright
Encoding: 125 125 92
Width: 328
VWidth: 1000
Flags: HW
LayerCount: 2
Fore
SplineSet
44 -212 m 1
 44 -147 l 1
 60 -147 l 2
 110 -147 124 -132 124 -80 c 2
 124 101 l 2
 124 184 150 233 206 258 c 1
 150 284 124 334 124 416 c 2
 124 597 l 2
 124 649 110 664 60 664 c 2
 44 664 l 1
 44 729 l 1
 91 729 l 2
 161 729 201 681 201 598 c 2
 201 431 l 2
 201 339 220 305 277 293 c 1
 277 224 l 1
 220 212 201 178 201 86 c 2
 201 -81 l 2
 201 -164 161 -212 91 -212 c 2
 44 -212 l 1
EndSplineSet
Validated: 1
EndChar

StartChar: asciitilde
Encoding: 126 126 93
Width: 557
VWidth: 1000
Flags: HW
LayerCount: 2
Fore
SplineSet
167 371 m 0
 124 371 116 320 114 293 c 1
 61 293 l 1
 66 387 104 438 169 438 c 0
 187 438 206 432 223 422 c 2
 340 353 l 2
 360 341 376 336 390 336 c 0
 433 336 441 365 441 411 c 1
 494 411 l 1
 494 307 452 268 389 268 c 0
 364 268 334 278 308 294 c 2
 210 357 l 2
 200 363 177 371 167 371 c 0
EndSplineSet
Validated: 1
EndChar

StartChar: uni0411
Encoding: 1041 1041 96
Width: 681
VWidth: 1000
Flags: HW
LayerCount: 2
Fore
SplineSet
621 218 m 2
 621 132 578 0 406 0 c 2
 77 0 l 1
 77 729 l 1
 566 729 l 1
 566 647 l 1
 170 647 l 1
 170 435 l 1
 350 435 l 2
 543 435 621 351 621 220 c 0
 621 218 l 2
528 217 m 0
 528 270 508 353 397 353 c 2
 170 353 l 1
 170 82 l 1
 397 82 l 2
 508 82 528 165 528 217 c 0
EndSplineSet
Validated: 1
EndChar

StartChar: uni0413
Encoding: 1043 1043 98
Width: 614
VWidth: 1000
Flags: HW
LayerCount: 2
Fore
SplineSet
170 0 m 1
 77 0 l 1
 77 729 l 1
 566 729 l 1
 566 647 l 1
 170 647 l 1
 170 0 l 1
EndSplineSet
Validated: 1
EndChar

StartChar: uni0414
Encoding: 1044 1044 99
Width: 856
VWidth: 1000
Flags: HW
LayerCount: 2
Fore
SplineSet
284 82 m 1
 615 82 l 1
 615 647 l 1
 353 647 l 1
 353 602 354 549 354 493 c 0
 354 345 346 179 284 82 c 1
148 74 m 1
 250 121 259 325 259 564 c 0
 259 618 259 673 259 729 c 1
 709 729 l 1
 709 74 l 1
 800 74 l 1
 800 -135 l 1
 720 -135 l 1
 720 0 l 1
 136 0 l 1
 136 -135 l 1
 56 -135 l 1
 56 74 l 1
 148 74 l 1
EndSplineSet
Validated: 1
EndChar

StartChar: uni0416
Encoding: 1046 1046 101
Width: 976
VWidth: 1000
Flags: HW
LayerCount: 2
Fore
SplineSet
442 324 m 1
 156 0 l 1
 46 0 l 1
 371 375 l 1
 88 729 l 1
 204 729 l 1
 442 421 l 1
 442 729 l 1
 535 729 l 1
 535 421 l 1
 773 729 l 1
 889 729 l 1
 606 375 l 1
 931 0 l 1
 813 0 l 1
 535 324 l 1
 535 0 l 1
 442 0 l 1
 442 324 l 1
EndSplineSet
Validated: 1
EndChar

StartChar: uni0417
Encoding: 1047 1047 102
Width: 691
VWidth: 1000
Flags: HW
LayerCount: 2
Fore
SplineSet
354 59 m 0
 512 59 540 139 540 191 c 0
 540 248 472 321 377 321 c 2
 269 321 l 1
 269 403 l 1
 357 403 l 2
 446 403 515 484 515 540 c 0
 515 614 450 663 352 663 c 0
 236 663 171 610 170 515 c 1
 82 515 l 1
 83 658 181 741 349 741 c 0
 509 741 608 659 608 527 c 0
 608 452 571 403 503 374 c 1
 586 343 633 282 633 200 c 0
 633 111 576 -23 348 -23 c 0
 222 -23 63 25 60 232 c 1
 148 232 l 1
 148 230 148 229 148 227 c 0
 148 153 189 59 354 59 c 0
EndSplineSet
Validated: 1
EndChar

StartChar: uni0418
Encoding: 1048 1048 103
Width: 723
VWidth: 1000
Flags: HW
LayerCount: 2
Fore
SplineSet
77 729 m 1
 165 729 l 1
 165 126 l 1
 546 729 l 1
 647 729 l 1
 647 0 l 1
 559 0 l 1
 559 598 l 1
 182 0 l 1
 77 0 l 1
 77 729 l 1
EndSplineSet
Validated: 1
EndChar

StartChar: uni0419
Encoding: 1049 1049 104
Width: 723
VWidth: 1000
Flags: HW
LayerCount: 2
Fore
SplineSet
210 900 m 5
 269 900 l 5
 274 856 304 834 361 834 c 4
 415 834 448 858 452 900 c 5
 511 900 l 5
 504 811 452 765 359 765 c 4
 298 765 213 789 210 900 c 5
EndSplineSet
Refer: 103 1048 N 1 0 0 1 0 0 1
Validated: 1
EndChar

StartChar: uni041A
Encoding: 1050 1050 105
Width: 663
VWidth: 1000
Flags: HW
LayerCount: 2
Fore
SplineSet
170 0 m 1
 77 0 l 1
 77 729 l 1
 170 729 l 1
 170 423 l 1
 475 729 l 1
 586 729 l 1
 241 384 l 1
 619 0 l 1
 495 0 l 1
 170 333 l 1
 170 0 l 1
EndSplineSet
Validated: 1
EndChar

StartChar: uni041B
Encoding: 1051 1051 106
Width: 693
VWidth: 1000
Flags: HW
LayerCount: 2
Fore
SplineSet
523 647 m 1
 261 647 l 1
 261 610 262 568 262 524 c 0
 262 293 246 -10 56 -10 c 1
 56 84 l 1
 158 84 167 311 167 560 c 0
 167 616 167 673 167 729 c 1
 617 729 l 1
 617 0 l 1
 523 0 l 1
 523 647 l 1
EndSplineSet
Validated: 1
EndChar

StartChar: uni041F
Encoding: 1055 1055 110
Width: 714
VWidth: 1000
Flags: HW
LayerCount: 2
Fore
SplineSet
544 647 m 1
 171 647 l 1
 171 0 l 1
 77 0 l 1
 77 729 l 1
 638 729 l 1
 638 0 l 1
 544 0 l 1
 544 647 l 1
EndSplineSet
Validated: 1
EndChar

StartChar: uni0423
Encoding: 1059 1059 114
Width: 675
VWidth: 1000
Flags: HW
LayerCount: 2
Fore
SplineSet
267 0 m 1
 154 0 l 1
 283 244 l 1
 41 729 l 1
 154 729 l 1
 339 350 l 1
 523 729 l 1
 634 729 l 1
 267 0 l 1
EndSplineSet
Validated: 1
EndChar

StartChar: uni0424
Encoding: 1060 1060 115
Width: 887
VWidth: 1000
Flags: HW
LayerCount: 2
Fore
SplineSet
491 636 m 1
 494 636 497 636 501 636 c 0
 597 636 826 619 826 365 c 0
 826 102 602 94 491 94 c 1
 491 0 l 1
 396 0 l 1
 396 94 l 1
 285 94 61 102 61 365 c 0
 61 619 290 636 386 636 c 0
 390 636 393 636 396 636 c 1
 396 729 l 1
 491 729 l 1
 491 636 l 1
491 176 m 1
 548 176 726 190 726 365 c 0
 726 540 548 554 491 554 c 1
 491 176 l 1
396 176 m 1
 396 554 l 1
 339 554 161 540 161 365 c 0
 161 190 339 176 396 176 c 1
EndSplineSet
Validated: 1
EndChar

StartChar: uni0426
Encoding: 1062 1062 117
Width: 760
VWidth: 1000
Flags: HW
LayerCount: 2
Fore
SplineSet
544 82 m 1
 544 729 l 1
 638 729 l 1
 638 74 l 1
 705 74 l 1
 705 -135 l 1
 625 -135 l 1
 625 0 l 1
 77 0 l 1
 77 729 l 1
 171 729 l 1
 171 82 l 1
 544 82 l 1
EndSplineSet
Validated: 1
EndChar

StartChar: uni0427
Encoding: 1063 1063 118
Width: 627
VWidth: 1000
Flags: HW
LayerCount: 2
Fore
SplineSet
458 275 m 1
 226 275 l 2
 118 275 61 351 61 432 c 2
 61 729 l 1
 154 729 l 1
 154 414 l 2
 154 373 188 357 230 357 c 2
 458 357 l 1
 458 729 l 1
 551 729 l 1
 551 0 l 1
 458 0 l 1
 458 275 l 1
EndSplineSet
Validated: 1
EndChar

StartChar: uni0428
Encoding: 1064 1064 119
Width: 823
VWidth: 1000
Flags: HW
LayerCount: 2
Fore
SplineSet
459 82 m 1
 653 82 l 1
 653 729 l 1
 747 729 l 1
 747 0 l 1
 77 0 l 1
 77 729 l 1
 171 729 l 1
 171 82 l 1
 365 82 l 1
 365 729 l 1
 459 729 l 1
 459 82 l 1
EndSplineSet
Validated: 1
EndChar

StartChar: uni0429
Encoding: 1065 1065 120
Width: 869
VWidth: 1000
Flags: HW
LayerCount: 2
Fore
SplineSet
734 0 m 1
 77 0 l 1
 77 729 l 1
 171 729 l 1
 171 82 l 1
 365 82 l 1
 365 729 l 1
 459 729 l 1
 459 82 l 1
 653 82 l 1
 653 729 l 1
 747 729 l 1
 747 74 l 1
 814 74 l 1
 814 -135 l 1
 734 -135 l 1
 734 0 l 1
EndSplineSet
Validated: 1
EndChar

StartChar: uni042A
Encoding: 1066 1066 121
Width: 879
VWidth: 1000
Flags: HW
LayerCount: 2
Fore
SplineSet
275 0 m 1
 275 647 l 1
 44 647 l 1
 44 729 l 1
 368 729 l 1
 368 451 l 1
 533 451 l 2
 744 451 819 355 819 229 c 0
 819 226 l 0
 819 93 721 0 589 0 c 2
 275 0 l 1
368 82 m 1
 580 82 l 2
 666 82 726 144 726 225 c 0
 726 310 667 369 580 369 c 2
 368 369 l 1
 368 82 l 1
EndSplineSet
Validated: 1
EndChar

StartChar: uni042B
Encoding: 1067 1067 122
Width: 867
VWidth: 1000
Flags: HW
LayerCount: 2
Fore
SplineSet
391 0 m 2
 77 0 l 1
 77 729 l 1
 170 729 l 1
 170 451 l 1
 335 451 l 2
 546 451 621 355 621 229 c 0
 621 94 525 0 391 0 c 2
170 82 m 1
 382 82 l 2
 468 82 528 144 528 225 c 0
 528 310 469 369 382 369 c 2
 170 369 l 1
 170 82 l 1
791 729 m 1
 791 0 l 1
 697 0 l 1
 697 729 l 1
 791 729 l 1
EndSplineSet
Validated: 1
EndChar

StartChar: uni042C
Encoding: 1068 1068 123
Width: 681
VWidth: 1000
Flags: HW
LayerCount: 2
Fore
SplineSet
621 226 m 0
 621 93 523 0 391 0 c 2
 77 0 l 1
 77 729 l 1
 170 729 l 1
 170 451 l 1
 335 451 l 2
 546 451 621 355 621 229 c 0
 621 226 l 0
170 82 m 1
 382 82 l 2
 468 82 528 144 528 225 c 0
 528 310 469 369 382 369 c 2
 170 369 l 1
 170 82 l 1
EndSplineSet
Validated: 1
EndChar

StartChar: uni042D
Encoding: 1069 1069 124
Width: 750
VWidth: 1000
Flags: HW
LayerCount: 2
Fore
SplineSet
155 266 m 1
 177 128 235 59 358 59 c 0
 496 59 586 164 595 332 c 1
 228 332 l 1
 228 414 l 1
 592 414 l 1
 576 567 492 659 366 659 c 0
 247 659 190 605 169 503 c 1
 74 503 l 1
 103 663 195 741 355 741 c 0
 621 741 688 508 688 356 c 0
 688 207 622 -23 359 -23 c 0
 181 -23 81 73 59 266 c 1
 155 266 l 1
EndSplineSet
Validated: 1
EndChar

StartChar: uni042E
Encoding: 1070 1070 125
Width: 1014
VWidth: 1000
Flags: HW
LayerCount: 2
Fore
SplineSet
952 353 m 0
 952 145 814 -23 623 -23 c 0
 421 -23 299 119 289 332 c 1
 171 332 l 1
 171 0 l 1
 77 0 l 1
 77 729 l 1
 170 729 l 1
 170 414 l 1
 291 414 l 1
 312 611 427 741 619 741 c 0
 833 741 952 588 952 353 c 0
619 659 m 0
 465 659 381 539 381 359 c 0
 381 179 465 59 620 59 c 0
 774 59 859 179 859 355 c 0
 859 539 777 659 619 659 c 0
EndSplineSet
Validated: 1
EndChar

StartChar: uni042F
Encoding: 1071 1071 126
Width: 712
VWidth: 1000
Flags: HW
LayerCount: 2
Fore
SplineSet
92 521 m 0
 92 646 178 729 307 729 c 2
 636 729 l 1
 636 0 l 1
 543 0 l 1
 543 314 l 1
 432 314 l 1
 155 0 l 1
 45 0 l 1
 318 314 l 1
 177 314 107 401 92 521 c 0
185 521 m 0
 185 469 211 396 316 396 c 2
 543 396 l 1
 543 647 l 1
 316 647 l 2
 211 647 185 573 185 521 c 0
EndSplineSet
Validated: 1
EndChar

StartChar: uni0431
Encoding: 1073 1073 128
Width: 599
VWidth: 1000
Flags: HW
LayerCount: 2
Fore
SplineSet
146 469 m 1
 184 530 259 539 301 539 c 0
 452 539 539 435 539 254 c 0
 539 82 449 -23 302 -23 c 0
 153 -23 65 82 65 258 c 0
 65 442 97 658 236 690 c 0
 305 705 425 707 425 775 c 1
 499 775 l 1
 499 640 442 656 253 611 c 0
 200 598 158 541 146 469 c 1
302 462 m 0
 209 462 152 384 152 258 c 0
 152 131 209 54 302 54 c 0
 394 54 452 132 452 255 c 0
 452 385 396 462 302 462 c 0
EndSplineSet
Validated: 1
EndChar

StartChar: uni0432
Encoding: 1074 1074 129
Width: 533
VWidth: 1000
Flags: HW
LayerCount: 2
Fore
SplineSet
296 524 m 2
 418 524 448 448 448 392 c 0
 448 338 425 296 379 277 c 1
 441 253 475 217 475 150 c 0
 475 65 416 0 320 0 c 2
 77 0 l 1
 77 524 l 1
 296 524 l 2
160 231 m 1
 160 76 l 1
 300 76 l 2
 352 76 384 106 384 156 c 0
 384 200 352 231 300 231 c 2
 160 231 l 1
364 376 m 0
 364 405 348 449 259 449 c 2
 161 449 l 1
 161 307 l 1
 259 307 l 2
 348 307 364 348 364 376 c 0
EndSplineSet
Validated: 1
EndChar

StartChar: uni0433
Encoding: 1075 1075 130
Width: 446
VWidth: 1000
Flags: HW
LayerCount: 2
Fore
SplineSet
77 524 m 1
 387 524 l 1
 387 448 l 1
 161 448 l 1
 161 0 l 1
 77 0 l 1
 77 524 l 1
EndSplineSet
Validated: 1
EndChar

StartChar: uni0434
Encoding: 1076 1076 131
Width: 653
VWidth: 1000
Flags: HW
LayerCount: 2
Fore
SplineSet
112 64 m 1
 182 71 194 292 194 524 c 1
 533 524 l 1
 533 64 l 1
 597 64 l 1
 597 -120 l 1
 527 -120 l 1
 527 0 l 1
 125 0 l 1
 125 -120 l 1
 55 -120 l 1
 55 64 l 1
 112 64 l 1
228 76 m 1
 449 76 l 1
 449 448 l 1
 277 448 l 1
 277 389 l 2
 277 286 272 156 228 76 c 1
EndSplineSet
Validated: 1
EndChar

StartChar: uni0436
Encoding: 1078 1078 133
Width: 838
VWidth: 1000
Flags: HW
LayerCount: 2
Fore
SplineSet
461 524 m 1
 461 323 l 1
 653 524 l 1
 760 524 l 1
 518 274 l 1
 792 0 l 1
 686 0 l 1
 461 226 l 1
 461 0 l 1
 378 0 l 1
 378 226 l 1
 153 0 l 1
 47 0 l 1
 321 274 l 1
 79 524 l 1
 186 524 l 1
 378 323 l 1
 378 524 l 1
 461 524 l 1
EndSplineSet
Validated: 1
EndChar

StartChar: uni0437
Encoding: 1079 1079 134
Width: 541
VWidth: 1000
Flags: HW
LayerCount: 2
Fore
SplineSet
146 156 m 1
 153 105 172 54 274 54 c 0
 347 54 392 87 392 136 c 0
 392 174 350 221 290 221 c 2
 216 221 l 1
 216 297 l 1
 278 297 l 2
 348 297 375 346 375 383 c 0
 375 431 332 462 264 462 c 0
 197 462 161 433 159 378 c 1
 71 378 l 1
 72 481 140 539 261 539 c 0
 383 539 462 476 462 379 c 0
 462 326 443 293 397 267 c 1
 456 241 483 203 483 143 c 0
 483 42 399 -23 267 -23 c 0
 130 -23 62 35 58 156 c 1
 146 156 l 1
EndSplineSet
Validated: 1
EndChar

StartChar: uni0438
Encoding: 1080 1080 135
Width: 578
VWidth: 1000
Flags: HW
LayerCount: 2
Fore
SplineSet
77 524 m 1
 161 524 l 1
 161 111 l 1
 396 524 l 1
 504 524 l 1
 504 0 l 1
 421 0 l 1
 421 413 l 1
 186 0 l 1
 77 0 l 1
 77 524 l 1
EndSplineSet
Validated: 1
EndChar

StartChar: uni0439
Encoding: 1081 1081 136
Width: 578
VWidth: 1000
Flags: HW
LayerCount: 2
Fore
SplineSet
140 699 m 5
 199 699 l 5
 204 655 234 633 291 633 c 4
 345 633 378 657 382 699 c 5
 441 699 l 5
 434 610 382 564 289 564 c 4
 228 564 143 588 140 699 c 5
EndSplineSet
Refer: 135 1080 N 1 0 0 1 0 0 1
Validated: 1
EndChar

StartChar: uni043A
Encoding: 1082 1082 137
Width: 537
VWidth: 1000
Flags: HW
LayerCount: 2
Fore
SplineSet
160 524 m 1
 160 312 l 1
 372 524 l 1
 468 524 l 1
 217 274 l 1
 491 0 l 1
 385 0 l 1
 160 226 l 1
 160 0 l 1
 77 0 l 1
 77 524 l 1
 160 524 l 1
EndSplineSet
Validated: 1
EndChar

StartChar: uni043B
Encoding: 1083 1083 138
Width: 549
VWidth: 1000
Flags: HW
LayerCount: 2
Fore
SplineSet
136 524 m 1
 475 524 l 1
 475 0 l 1
 391 0 l 1
 391 448 l 1
 219 448 l 1
 219 350 l 2
 219 202 208 -10 58 -10 c 1
 58 70 l 1
 134 70 136 242 136 441 c 2
 136 524 l 1
EndSplineSet
Validated: 1
EndChar

StartChar: uni043C
Encoding: 1084 1084 139
Width: 629
VWidth: 1000
Flags: HW
LayerCount: 2
Fore
SplineSet
77 524 m 1
 181 524 l 1
 316 198 l 1
 451 524 l 1
 555 524 l 1
 555 0 l 1
 471 0 l 1
 471 363 l 1
 341 40 l 1
 291 40 l 1
 161 363 l 1
 161 0 l 1
 77 0 l 1
 77 524 l 1
EndSplineSet
Validated: 1
EndChar

StartChar: uni043D
Encoding: 1085 1085 140
Width: 569
VWidth: 1000
Flags: HW
LayerCount: 2
Fore
SplineSet
77 524 m 1
 161 524 l 1
 161 309 l 1
 411 309 l 1
 411 524 l 1
 495 524 l 1
 495 0 l 1
 411 0 l 1
 411 233 l 1
 161 233 l 1
 161 0 l 1
 77 0 l 1
 77 524 l 1
EndSplineSet
Validated: 1
EndChar

StartChar: uni043F
Encoding: 1087 1087 142
Width: 568
VWidth: 1000
Flags: HW
LayerCount: 2
Fore
SplineSet
77 524 m 1
 494 524 l 1
 494 0 l 1
 410 0 l 1
 410 448 l 1
 161 448 l 1
 161 0 l 1
 77 0 l 1
 77 524 l 1
EndSplineSet
Validated: 1
EndChar

StartChar: uni0442
Encoding: 1090 1090 145
Width: 482
VWidth: 1000
Flags: HW
LayerCount: 2
Fore
SplineSet
53 524 m 1
 425 524 l 1
 425 448 l 1
 281 448 l 1
 281 0 l 1
 197 0 l 1
 197 448 l 1
 53 448 l 1
 53 524 l 1
EndSplineSet
Validated: 1
EndChar

StartChar: uni0444
Encoding: 1092 1092 147
Width: 914
VWidth: 1000
Flags: HW
LayerCount: 2
Fore
SplineSet
498 445 m 1
 527 506 572 539 643 539 c 0
 782 539 853 429 853 253 c 0
 853 86 779 -23 644 -23 c 0
 576 -23 542 1 498 55 c 1
 498 -218 l 1
 415 -218 l 1
 415 60 l 1
 376 3 341 -23 268 -23 c 0
 130 -23 64 82 64 252 c 0
 64 426 134 539 272 539 c 0
 341 539 385 502 415 445 c 1
 415 674 l 1
 498 674 l 1
 498 445 l 1
629 461 m 0
 541 461 498 381 498 258 c 0
 498 135 541 55 629 55 c 0
 720 55 766 136 766 255 c 0
 766 380 721 461 629 461 c 0
284 461 m 0
 192 461 151 379 151 258 c 0
 151 136 192 55 284 55 c 0
 372 55 415 135 415 255 c 0
 415 381 373 461 284 461 c 0
EndSplineSet
Validated: 1
EndChar

StartChar: uni0446
Encoding: 1094 1094 149
Width: 611
VWidth: 1000
Flags: HW
LayerCount: 2
Fore
SplineSet
77 0 m 1
 77 524 l 1
 161 524 l 1
 161 76 l 1
 410 76 l 1
 410 524 l 1
 494 524 l 1
 494 64 l 1
 555 64 l 1
 555 -120 l 1
 485 -120 l 1
 485 0 l 1
 77 0 l 1
EndSplineSet
Validated: 1
EndChar

StartChar: uni0447
Encoding: 1095 1095 150
Width: 519
VWidth: 1000
Flags: HW
LayerCount: 2
Fore
SplineSet
65 524 m 1
 149 524 l 1
 149 327 l 2
 149 291 178 277 207 277 c 2
 361 277 l 1
 361 524 l 1
 445 524 l 1
 445 0 l 1
 361 0 l 1
 361 201 l 1
 210 201 l 2
 136 201 65 244 65 324 c 2
 65 524 l 1
EndSplineSet
Validated: 1
EndChar

StartChar: uni0448
Encoding: 1096 1096 151
Width: 703
VWidth: 1000
Flags: HW
LayerCount: 2
Fore
SplineSet
395 76 m 1
 545 76 l 1
 545 524 l 1
 629 524 l 1
 629 0 l 1
 77 0 l 1
 77 524 l 1
 161 524 l 1
 161 76 l 1
 311 76 l 1
 311 524 l 1
 395 524 l 1
 395 76 l 1
EndSplineSet
Validated: 1
EndChar

StartChar: uni0449
Encoding: 1097 1097 152
Width: 745
VWidth: 1000
Flags: HW
LayerCount: 2
Fore
SplineSet
619 0 m 1
 77 0 l 1
 77 524 l 1
 161 524 l 1
 161 76 l 1
 311 76 l 1
 311 524 l 1
 395 524 l 1
 395 76 l 1
 545 76 l 1
 545 524 l 1
 629 524 l 1
 629 64 l 1
 689 64 l 1
 689 -120 l 1
 619 -120 l 1
 619 0 l 1
EndSplineSet
Validated: 1
EndChar

StartChar: uni044A
Encoding: 1098 1098 153
Width: 708
VWidth: 1000
Flags: HW
LayerCount: 2
Fore
SplineSet
236 0 m 1
 236 448 l 1
 53 448 l 1
 53 524 l 1
 320 524 l 1
 320 341 l 1
 438 341 l 2
 585 341 649 271 649 167 c 0
 649 69 579 0 482 0 c 2
 236 0 l 1
320 76 m 1
 444 76 l 2
 540 76 558 118 558 164 c 0
 558 236 520 265 444 265 c 2
 320 265 l 1
 320 76 l 1
EndSplineSet
Validated: 1
EndChar

StartChar: uni044B
Encoding: 1099 1099 154
Width: 701
VWidth: 1000
Flags: HW
LayerCount: 2
Fore
SplineSet
161 524 m 1
 161 341 l 1
 274 341 l 2
 277 341 l 0
 425 341 490 274 490 167 c 0
 490 69 420 0 323 0 c 2
 77 0 l 1
 77 524 l 1
 161 524 l 1
161 76 m 1
 285 76 l 2
 381 76 399 118 399 164 c 0
 399 236 361 265 285 265 c 2
 161 265 l 1
 161 76 l 1
627 524 m 1
 627 0 l 1
 544 0 l 1
 544 524 l 1
 627 524 l 1
EndSplineSet
Validated: 1
EndChar

StartChar: uni044C
Encoding: 1100 1100 155
Width: 550
VWidth: 1000
Flags: HW
LayerCount: 2
Fore
SplineSet
161 524 m 1
 161 341 l 1
 274 341 l 2
 277 341 l 0
 425 341 490 274 490 167 c 0
 490 69 420 0 323 0 c 2
 77 0 l 1
 77 524 l 1
 161 524 l 1
161 76 m 1
 285 76 l 2
 381 76 399 118 399 164 c 0
 399 236 361 265 285 265 c 2
 161 265 l 1
 161 76 l 1
EndSplineSet
Validated: 1
EndChar

StartChar: uni044D
Encoding: 1101 1101 156
Width: 567
VWidth: 1000
Flags: HW
LayerCount: 2
Fore
SplineSet
66 348 m 1
 76 472 153 539 273 539 c 0
 414 539 506 427 506 253 c 0
 506 84 416 -23 274 -23 c 0
 149 -23 70 52 60 180 c 1
 144 180 l 1
 158 96 201 54 272 54 c 0
 359 54 413 120 419 232 c 1
 192 232 l 1
 192 309 l 1
 416 309 l 1
 402 406 351 462 274 462 c 0
 204 462 160 421 150 348 c 1
 66 348 l 1
EndSplineSet
Validated: 1
EndChar

StartChar: uni044E
Encoding: 1102 1102 157
Width: 789
VWidth: 1000
Flags: HW
LayerCount: 2
Fore
SplineSet
257 309 m 1
 257 357 295 539 490 539 c 0
 641 539 728 435 728 254 c 0
 728 82 638 -23 491 -23 c 0
 297 -23 255 149 255 233 c 1
 161 233 l 1
 161 0 l 1
 77 0 l 1
 77 524 l 1
 161 524 l 1
 161 309 l 1
 257 309 l 1
491 462 m 0
 398 462 341 384 341 258 c 0
 341 131 398 54 491 54 c 0
 583 54 641 132 641 255 c 0
 641 385 585 462 491 462 c 0
EndSplineSet
Validated: 1
EndChar

StartChar: uni044F
Encoding: 1103 1103 158
Width: 579
VWidth: 1000
Flags: HW
LayerCount: 2
Fore
SplineSet
102 375 m 0
 102 431 133 524 257 524 c 2
 505 524 l 1
 505 0 l 1
 421 0 l 1
 421 218 l 1
 352 218 l 1
 149 0 l 1
 46 0 l 1
 251 221 l 1
 168 228 102 274 102 375 c 0
193 364 m 0
 193 304 248 294 284 294 c 2
 421 294 l 1
 421 449 l 1
 284 449 l 2
 228 449 193 417 193 370 c 0
 193 364 l 0
EndSplineSet
Validated: 1
EndChar

StartChar: copyright
Encoding: 169 169 159
Width: 845
VWidth: 1000
Flags: HW
LayerCount: 2
Fore
SplineSet
428 653 m 4
 269 653 122 508 122 350 c 4
 122 194 261 45 423 45 c 4
 591 45 724 188 724 347 c 4
 724 508 587 653 428 653 c 4
429 708 m 4
 622 708 784 544 784 347 c 4
 784 148 622 -14 423 -14 c 4
 223 -14 62 148 62 350 c 4
 62 549 225 708 429 708 c 4
228 347 m 4
 228 436 272 580 429 580 c 4
 523 580 582 528 599 434 c 5
 530 434 l 5
 516 492 486 515 422 515 c 4
 343 515 296 453 296 348 c 4
 296 247 349 183 427 183 c 4
 497 183 521 215 538 295 c 5
 607 295 l 5
 594 181 531 119 426 119 c 4
 271 119 228 259 228 347 c 4
EndSplineSet
Validated: 1
EndChar

StartChar: guillemotleft
Encoding: 171 171 160
Width: 485
VWidth: 1000
Flags: HW
LayerCount: 2
Fore
SplineSet
59 227 m 1
 59 316 l 1
 211 438 l 1
 211 355 l 1
 105 272 l 1
 211 189 l 1
 211 106 l 1
 59 227 l 1
264 227 m 1
 264 316 l 1
 416 438 l 1
 416 355 l 1
 310 272 l 1
 416 189 l 1
 416 106 l 1
 264 227 l 1
EndSplineSet
Validated: 1
EndChar

StartChar: plusminus
Encoding: 177 177 162
Width: 611
VWidth: 1000
Flags: HW
LayerCount: 2
Fore
SplineSet
547 59 m 5
 547 -11 l 5
 63 -11 l 5
 63 59 l 5
 547 59 l 5
EndSplineSet
Refer: 10 43 S 1 0 0 1 13 153 2
Validated: 1
EndChar

StartChar: section
Encoding: 167 167 163
Width: 573
VWidth: 1000
Flags: HW
LayerCount: 2
Fore
SplineSet
176 -14 m 1
 176 -118 237 -136 278 -136 c 0
 335 -136 374 -101 374 -50 c 0
 374 -15 358 11 319 38 c 2
 149 155 l 2
 84 200 57 247 57 312 c 0
 57 378 88 423 162 462 c 1
 131 498 118 526 118 564 c 0
 118 656 199 729 303 729 c 0
 407 729 478 658 478 552 c 1
 478 524 l 1
 394 524 l 1
 394 550 l 1
 394 612 356 652 297 652 c 0
 246 652 208 616 208 567 c 0
 208 538 223 518 265 490 c 2
 411 396 l 2
 492 344 520 301 520 229 c 0
 520 153 483 100 411 73 c 1
 451 28 464 -2 464 -45 c 0
 464 -141 384 -213 277 -213 c 0
 205 -213 91 -183 91 -14 c 1
 176 -14 l 1
202 229 m 2
 368 106 l 1
 415 131 441 168 441 208 c 0
 441 249 417 286 368 320 c 2
 207 429 l 1
 155 395 136 368 136 328 c 0
 136 288 149 268 202 229 c 2
EndSplineSet
Validated: 1
EndChar

StartChar: registered
Encoding: 174 174 164
Width: 845
VWidth: 1000
Flags: HW
LayerCount: 2
Fore
SplineSet
428 653 m 4
 269 653 122 508 122 350 c 4
 122 194 261 45 423 45 c 4
 591 45 724 188 724 347 c 4
 724 508 587 653 428 653 c 4
429 708 m 4
 622 708 784 544 784 347 c 4
 784 148 622 -14 423 -14 c 4
 223 -14 62 148 62 350 c 4
 62 549 225 708 429 708 c 4
535 348 m 5
 573 329 582 286 582 247 c 4
 582 236 581 226 581 216 c 4
 581 189 585 167 608 151 c 5
 608 135 l 5
 532 135 l 5
 525 153 520 180 520 206 c 6
 520 243 l 6
 520 289 497 316 454 316 c 6
 321 316 l 5
 321 135 l 5
 257 135 l 5
 257 566 l 5
 456 566 l 6
 540 566 591 523 591 448 c 4
 591 399 573 365 535 348 c 5
525 440 m 4
 525 502 491 508 445 508 c 6
 321 508 l 5
 321 373 l 5
 445 373 l 6
 494 373 525 389 525 440 c 4
EndSplineSet
Validated: 1
EndChar

StartChar: paragraph
Encoding: 182 182 165
Width: 575
VWidth: 1000
Flags: HW
LayerCount: 2
Fore
SplineSet
263 259 m 1
 128 266 56 370 56 489 c 0
 56 624 154 729 280 729 c 2
 530 729 l 1
 530 665 l 1
 473 665 l 1
 473 -177 l 1
 409 -177 l 1
 409 665 l 1
 327 665 l 1
 327 -177 l 1
 263 -177 l 1
 263 259 l 1
EndSplineSet
Validated: 1
EndChar

StartChar: uni1401
Encoding: 5121 5121 166
Width: 935
VWidth: -65
Flags: HW
LayerCount: 2
Fore
SplineSet
190 581 m 25
 468 99 l 25
 745 581 l 25
 190 581 l 25
47 665 m 25
 888 665 l 25
 468 -65 l 25
 47 665 l 25
EndSplineSet
EndChar

StartChar: uni1403
Encoding: 5123 5123 167
Width: 928
VWidth: -65
Flags: HW
LayerCount: 2
Fore
SplineSet
741 19 m 25
 463 501 l 25
 186 19 l 25
 741 19 l 25
884 -65 m 25
 43 -65 l 25
 463 665 l 25
 884 -65 l 25
EndSplineSet
EndChar

StartChar: uni1405
Encoding: 5125 5125 168
Width: 745
VWidth: -65
Flags: HW
LayerCount: 2
Fore
SplineSet
156 75 m 25
 535 300 l 25
 156 525 l 25
 156 75 l 25
72 -65 m 9
 72 665 l 25
 698 300 l 17
 72 -65 l 9
EndSplineSet
EndChar

StartChar: uni140A
Encoding: 5130 5130 169
Width: 746
VWidth: -65
Flags: HW
LayerCount: 2
Fore
SplineSet
588 525 m 25
 209 300 l 25
 588 75 l 25
 588 525 l 25
672 665 m 9
 672 -65 l 25
 46 300 l 17
 672 665 l 9
EndSplineSet
EndChar

StartChar: uni142F
Encoding: 5167 5167 170
Width: 1030
VWidth: -95
Flags: HW
LayerCount: 2
Fore
SplineSet
977 708 m 9
 515 -95 l 25
 52 708 l 17
 156 708 l 9
 515 85 l 25
 874 708 l 17
 977 708 l 9
EndSplineSet
EndChar

StartChar: uni1431
Encoding: 5169 5169 171
Width: 1012
VWidth: -95
Flags: HW
LayerCount: 2
Fore
SplineSet
43 -95 m 9
 505 708 l 25
 968 -95 l 17
 864 -95 l 9
 505 528 l 25
 146 -95 l 17
 43 -95 l 9
EndSplineSet
EndChar

StartChar: uni1433
Encoding: 5171 5171 172
Width: 809
VWidth: -95
Flags: HW
LayerCount: 2
Fore
SplineSet
71 708 m 9
 760 307 l 17
 71 -95 l 1
 71 4 l 9
 580 307 l 25
 71 609 l 17
 71 708 l 9
EndSplineSet
EndChar

StartChar: uni1438
Encoding: 5176 5176 173
Width: 810
VWidth: -95
Flags: HW
LayerCount: 2
Fore
SplineSet
737 -95 m 9
 48 307 l 17
 737 708 l 1
 737 609 l 9
 227 307 l 25
 737 4 l 17
 737 -95 l 9
EndSplineSet
EndChar

StartChar: uni1540
Encoding: 5440 5440 174
Width: 471
VWidth: 0
Flags: HW
LayerCount: 2
Fore
SplineSet
205 730 m 1
 264 730 l 1
 264 581 l 1
 417 581 l 1
 417 522 l 1
 264 522 l 1
 264 366 l 1
 205 366 l 1
 205 522 l 1
 53 522 l 1
 53 581 l 1
 205 581 l 1
 205 730 l 1
EndSplineSet
Validated: 1
EndChar

StartChar: uni1541
Encoding: 5441 5441 175
Width: 471
VWidth: 0
Flags: HW
LayerCount: 2
Fore
SplineSet
373 726 m 1
 415 684 l 1
 277 546 l 1
 415 408 l 1
 373 366 l 1
 235 504 l 1
 97 366 l 1
 55 408 l 1
 193 546 l 1
 55 684 l 1
 97 726 l 1
 235 588 l 1
 373 726 l 1
EndSplineSet
Validated: 1
EndChar

StartChar: uni203B
Encoding: 8251 8251 176
Width: 790
VWidth: 1093
Flags: HW
LayerCount: 2
Fore
SplineSet
438 636 m 1
 438 547 l 1
 350 547 l 1
 350 636 l 1
 438 636 l 1
394 372 m 1
 677 655 l 1
 740 592 l 1
 457 309 l 1
 740 26 l 1
 677 -37 l 1
 394 246 l 1
 112 -37 l 1
 49 26 l 1
 332 309 l 1
 49 592 l 1
 112 655 l 1
 394 372 l 1
722 353 m 1
 722 265 l 1
 633 265 l 1
 633 353 l 1
 722 353 l 1
156 353 m 1
 156 265 l 1
 67 265 l 1
 67 353 l 1
 156 353 l 1
438 71 m 1
 438 -18 l 1
 350 -18 l 1
 350 71 l 1
 438 71 l 1
EndSplineSet
EndChar

StartChar: daggerdbl
Encoding: 8225 8225 177
Width: 597
VWidth: 1030
Flags: HW
LayerCount: 2
Fore
SplineSet
535 532 m 1
 535 450 l 1
 341 450 l 1
 341 143 l 1
 535 143 l 1
 535 61 l 1
 341 61 l 1
 341 -147 l 1
 253 -147 l 1
 253 61 l 1
 60 61 l 1
 60 143 l 1
 253 143 l 1
 253 450 l 1
 60 450 l 1
 60 532 l 1
 253 532 l 1
 253 739 l 1
 341 739 l 1
 341 532 l 1
 535 532 l 1
EndSplineSet
EndChar

StartChar: bullet
Encoding: 8226 8226 178
Width: 375
VWidth: 975
Flags: HW
LayerCount: 2
Fore
SplineSet
188 445 m 0
 258 445 313 389 313 318 c 0
 313 251 256 195 188 195 c 0
 119 195 63 251 63 320 c 0
 63 389 119 445 188 445 c 0
EndSplineSet
EndChar

StartChar: uni2059
Encoding: 8281 8281 180
Width: 981
VWidth: -49
Flags: HW
LayerCount: 2
Fore
SplineSet
763 419 m 128
 718 419 680 435 648 467 c 128
 616 499 600 537 600 582 c 128
 600 627 616 665 648 697 c 128
 680 729 718 745 763 745 c 128
 808 745 847 729 879 697 c 128
 911 665 926 627 926 582 c 128
 926 537 911 499 879 467 c 128
 847 435 808 419 763 419 c 128
491 147 m 1
 328 310 l 1
 491 473 l 1
 654 310 l 1
 491 147 l 1
220 419 m 128
 175 419 136 435 104 467 c 128
 72 499 56 537 56 582 c 128
 56 627 72 665 104 697 c 128
 136 729 174 745 219 745 c 128
 264 745 303 729 335 697 c 128
 367 665 382 627 382 582 c 128
 382 537 367 499 335 467 c 128
 303 435 265 419 220 419 c 128
220 201 m 128
 265 201 303 185 335 153 c 128
 367 121 382 83 382 38 c 128
 382 -7 367 -45 335 -77 c 128
 303 -109 265 -125 220 -125 c 128
 175 -125 136 -109 104 -77 c 128
 72 -45 56 -7 56 38 c 128
 56 83 72 121 104 153 c 128
 136 185 175 201 220 201 c 128
763 201 m 128
 808 201 847 185 879 153 c 128
 911 121 926 83 926 38 c 128
 926 -7 911 -45 879 -77 c 128
 847 -109 808 -125 763 -125 c 128
 718 -125 680 -109 648 -77 c 128
 616 -45 600 -7 600 38 c 128
 600 83 616 122 648 154 c 128
 680 186 718 201 763 201 c 128
EndSplineSet
EndChar

StartChar: uni2055
Encoding: 8277 8277 181
Width: 895
VWidth: -65
Flags: HW
LayerCount: 2
Fore
SplineSet
421 401 m 1
 386 606 l 2
 384 619 383 631 383 640 c 0
 383 675 413 706 446 706 c 0
 479 706 508 675 508 640 c 0
 508 633 506 621 504 606 c 2
 470 403 l 1
 480 401 485 398 492 395 c 1
 612 564 l 2
 637 599 655 610 681 610 c 0
 715 610 741 584 741 550 c 0
 741 522 729 505 695 481 c 2
 527 361 l 1
 530 355 533 350 536 340 c 1
 741 375 l 2
 755 377 768 378 776 378 c 0
 811 378 842 349 842 316 c 0
 842 283 811 253 776 253 c 0
 769 253 755 254 741 256 c 2
 537 291 l 1
 536 284 532 276 529 269 c 1
 700 149 l 2
 735 124 746 107 746 79 c 0
 746 46 719 20 685 20 c 0
 657 20 640 31 616 66 c 2
 496 234 l 1
 489 230 482 226 475 224 c 1
 510 20 l 2
 512 6 514 -5 514 -14 c 0
 514 -49 484 -80 451 -80 c 0
 418 -80 388 -49 388 -15 c 0
 388 -7 391 5 393 20 c 2
 427 223 l 1
 418 225 412 228 405 231 c 1
 285 61 l 2
 260 27 242 15 216 15 c 0
 182 15 155 42 155 76 c 0
 155 104 166 121 201 145 c 2
 370 265 l 1
 367 271 363 278 361 286 c 1
 155 251 l 2
 141 249 130 247 121 247 c 0
 86 247 55 277 55 310 c 0
 55 343 86 373 121 373 c 0
 128 373 141 371 155 368 c 2
 360 334 l 1
 361 341 364 349 367 355 c 1
 197 476 l 2
 163 501 151 519 151 545 c 0
 151 579 177 606 211 606 c 0
 239 606 255 595 280 560 c 2
 400 391 l 1
 406 395 413 399 421 401 c 1
EndSplineSet
EndChar

StartChar: uni205C
Encoding: 8284 8284 183
Width: 782
VWidth: 1255
Flags: HW
LayerCount: 2
Fore
SplineSet
710 628 m 1
 710 491 l 1
 573 491 l 1
 573 628 l 1
 710 628 l 1
710 129 m 1
 710 -8 l 1
 573 -8 l 1
 573 129 l 1
 710 129 l 1
208 129 m 1
 208 -8 l 1
 71 -8 l 1
 71 129 l 1
 208 129 l 1
710 355 m 1
 710 262 l 1
 437 262 l 1
 437 -11 l 1
 344 -11 l 1
 344 262 l 1
 71 262 l 1
 71 355 l 1
 344 355 l 1
 344 628 l 1
 437 628 l 1
 437 355 l 1
 710 355 l 1
208 625 m 1
 208 488 l 1
 71 488 l 1
 71 625 l 1
 208 625 l 1
EndSplineSet
EndChar

StartChar: uni20D8
Encoding: 8408 8408 184
Width: 409
VWidth: 1050
Flags: HW
LayerCount: 2
Fore
SplineSet
205 231 m 0
 243 231 279 266 279 305 c 0
 279 345 249 380 205 380 c 0
 161 380 130 343 130 305 c 0
 130 266 166 231 205 231 c 0
352 305 m 0
 352 222 282 159 205 159 c 0
 125 159 58 228 58 305 c 0
 58 386 126 452 205 452 c 0
 284 452 352 388 352 305 c 0
EndSplineSet
EndChar

StartChar: uni2235
Encoding: 8757 8757 185
Width: 643
VWidth: 1070
Flags: HW
LayerCount: 2
Fore
SplineSet
65 430 m 1
 65 534 l 1
 169 534 l 1
 169 430 l 1
 65 430 l 1
473 430 m 1
 473 534 l 1
 577 534 l 1
 577 430 l 1
 473 430 l 1
269 82 m 1
 269 186 l 1
 373 186 l 1
 373 82 l 1
 269 82 l 1
EndSplineSet
EndChar

StartChar: uni2237
Encoding: 8759 8759 186
Width: 611
VWidth: 1050
Flags: HW
LayerCount: 2
Fore
SplineSet
172 154 m 1
 172 50 l 1
 68 50 l 1
 68 154 l 1
 172 154 l 1
172 574 m 1
 172 470 l 1
 68 470 l 1
 68 574 l 1
 172 574 l 1
542 154 m 1
 542 50 l 1
 438 50 l 1
 438 154 l 1
 542 154 l 1
542 574 m 1
 542 470 l 1
 438 470 l 1
 438 574 l 1
 542 574 l 1
EndSplineSet
EndChar

StartChar: uni25C6
Encoding: 9670 9670 187
Width: 887
VWidth: 1030
Flags: HW
LayerCount: 2
Fore
SplineSet
444 -84 m 1
 49 311 l 1
 444 706 l 1
 839 311 l 1
 444 -84 l 1
EndSplineSet
EndChar

StartChar: uni25C7
Encoding: 9671 9671 188
Width: 887
VWidth: 1030
Flags: HW
LayerCount: 2
Fore
SplineSet
444 -1 m 1
 755 311 l 1
 444 625 l 1
 131 311 l 1
 444 -1 l 1
444 -84 m 1
 49 311 l 1
 444 706 l 1
 839 311 l 1
 444 -84 l 1
EndSplineSet
EndChar

StartChar: uni25C8
Encoding: 9672 9672 189
Width: 887
VWidth: 1030
Flags: HW
LayerCount: 2
Fore
SplineSet
444 156 m 1
 287 311 l 1
 444 469 l 1
 599 311 l 1
 444 156 l 1
444 -1 m 1
 755 311 l 1
 444 625 l 1
 131 311 l 1
 444 -1 l 1
444 -84 m 1
 49 311 l 1
 444 706 l 1
 839 311 l 1
 444 -84 l 1
EndSplineSet
EndChar

StartChar: uni25C9
Encoding: 9673 9673 190
Width: 918
VWidth: 1030
Flags: HW
LayerCount: 2
Fore
SplineSet
464 581 m 0
 604 581 724 454 724 312 c 0
 724 172 607 46 459 46 c 0
 316 46 194 178 194 315 c 0
 194 454 324 581 464 581 c 0
465 648 m 0
 290 648 128 489 128 315 c 0
 128 143 281 -20 459 -20 c 0
 644 -20 790 137 790 312 c 0
 790 489 640 648 465 648 c 0
466 709 m 0
 678 709 856 529 856 312 c 0
 856 93 678 -85 459 -85 c 0
 239 -85 62 93 62 315 c 0
 62 534 242 709 466 709 c 0
EndSplineSet
EndChar

StartChar: lozenge
Encoding: 9674 9674 191
Width: 970
VWidth: 930
Flags: HW
LayerCount: 2
Fore
SplineSet
910 305 m 256
 910 188 868 88 785 5 c 128
 702 -78 602 -120 485 -120 c 256
 368 -120 268 -78 185 5 c 128
 102 88 61 188 61 305 c 0
 61 421 103 522 186 605 c 128
 269 688 369 730 485 730 c 0
 602 730 702 688 785 605 c 128
 868 522 910 422 910 305 c 256
849 303 m 0
 849 404 814 491 743 562 c 128
 672 633 586 670 485 670 c 256
 384 670 298 633 227 562 c 128
 156 491 120 404 120 303 c 0
 120 203 157 118 228 47 c 128
 299 -24 385 -60 485 -60 c 256
 585 -60 671 -24 742 47 c 128
 813 118 849 203 849 303 c 0
740 305 m 256
 740 235 715 175 665 125 c 128
 615 75 555 50 485 50 c 256
 415 50 355 75 305 125 c 128
 255 175 230 235 230 305 c 256
 230 375 255 435 305 485 c 128
 355 535 415 560 485 560 c 256
 555 560 615 535 665 485 c 128
 715 435 740 375 740 305 c 256
638 305 m 256
 638 347 623 383 593 413 c 128
 563 443 527 458 485 458 c 256
 443 458 407 443 377 413 c 128
 347 383 333 347 333 305 c 256
 333 263 347 227 377 197 c 128
 407 167 443 152 485 152 c 256
 527 152 563 167 593 197 c 128
 623 227 638 263 638 305 c 256
EndSplineSet
Validated: 1
EndChar

StartChar: circle
Encoding: 9675 9675 192
Width: 918
VWidth: 1030
Flags: HW
LayerCount: 2
Fore
SplineSet
465 648 m 0
 290 648 128 489 128 315 c 0
 128 143 281 -20 459 -20 c 0
 644 -20 790 137 790 312 c 0
 790 489 640 648 465 648 c 0
466 709 m 0
 678 709 856 529 856 312 c 0
 856 93 678 -85 459 -85 c 0
 239 -85 62 93 62 315 c 0
 62 534 242 709 466 709 c 0
EndSplineSet
EndChar

StartChar: uni25CC
Encoding: 9676 9676 193
Width: 909
VWidth: 1030
Flags: HW
LayerCount: 2
Fore
SplineSet
784 345 m 1
 851 345 l 1
 852 334 852 323 852 312 c 0
 852 303 852 293 851 284 c 1
 785 284 l 1
 786 293 786 303 786 312 c 0
 786 323 785 334 784 345 c 1
770 411 m 1
 764 430 756 448 747 466 c 1
 809 492 l 1
 818 474 826 455 832 436 c 1
 770 411 l 1
708 525 m 1
 695 541 681 555 666 568 c 1
 712 614 l 1
 727 601 742 587 755 572 c 1
 708 525 l 1
608 609 m 1
 590 619 572 627 553 633 c 1
 576 691 l 1
 595 685 614 677 632 668 c 1
 608 609 l 1
485 647 m 1
 477 648 469 648 461 648 c 0
 449 648 437 647 425 646 c 1
 425 707 l 1
 437 708 450 709 462 709 c 0
 470 709 477 708 485 708 c 1
 485 647 l 1
485 -19 m 1
 485 -84 l 1
 475 -85 465 -85 455 -85 c 0
 445 -85 435 -85 425 -84 c 1
 425 -19 l 1
 435 -20 445 -20 455 -20 c 0
 465 -20 475 -20 485 -19 c 1
553 -5 m 1
 572 1 591 9 609 19 c 1
 634 -43 l 1
 616 -52 597 -60 578 -66 c 1
 553 -5 l 1
668 59 m 1
 683 72 697 86 710 102 c 1
 758 55 l 1
 745 40 730 25 715 12 c 1
 668 59 l 1
749 162 m 1
 758 180 766 199 772 218 c 1
 834 192 l 1
 828 173 820 154 811 136 c 1
 749 162 l 1
126 284 m 1
 59 284 l 1
 58 294 58 305 58 315 c 0
 58 325 58 335 59 345 c 1
 126 345 l 1
 125 335 124 325 124 315 c 0
 124 305 125 294 126 284 c 1
140 218 m 1
 146 199 154 181 164 163 c 1
 99 136 l 1
 90 154 83 173 77 192 c 1
 140 218 l 1
203 105 m 1
 216 89 230 75 245 62 c 1
 195 12 l 1
 180 25 166 40 153 55 c 1
 203 105 l 1
302 21 m 1
 320 11 339 3 358 -4 c 1
 332 -66 l 1
 313 -60 294 -52 276 -43 c 1
 302 21 l 1
359 630 m 1
 340 623 321 615 303 605 c 1
 278 667 l 1
 296 676 315 683 334 689 c 1
 359 630 l 1
247 565 m 1
 232 552 217 538 204 523 c 1
 155 572 l 1
 168 587 182 601 198 614 c 1
 247 565 l 1
165 466 m 1
 155 448 146 430 140 411 c 1
 77 436 l 1
 83 455 92 474 101 492 c 1
 165 466 l 1
EndSplineSet
EndChar

StartChar: uni25CD
Encoding: 9677 9677 194
Width: 918
VWidth: 1030
Flags: HW
LayerCount: 2
Fore
SplineSet
466 709 m 0
 678 709 856 529 856 312 c 0
 856 93 678 -85 459 -85 c 0
 239 -85 62 93 62 315 c 0
 62 534 242 709 466 709 c 0
428 -19 m 1
 428 646 l 1
 405 643 383 638 362 630 c 1
 362 -4 l 1
 383 -11 405 -17 428 -19 c 1
494 647 m 1
 494 -19 l 1
 517 -16 539 -11 560 -4 c 1
 560 632 l 1
 539 639 517 645 494 647 c 1
626 601 m 1
 626 26 l 1
 650 41 672 58 692 78 c 1
 692 547 l 1
 672 568 650 586 626 601 c 1
296 27 m 1
 296 598 l 1
 272 583 250 566 230 546 c 1
 230 79 l 1
 250 59 272 42 296 27 c 1
164 170 m 1
 164 457 l 1
 141 413 128 365 128 315 c 0
 128 265 141 215 164 170 c 1
758 452 m 1
 758 172 l 1
 778 215 790 263 790 312 c 0
 790 361 778 409 758 452 c 1
EndSplineSet
EndChar

StartChar: uni25CE
Encoding: 9678 9678 195
Width: 918
VWidth: 1030
Flags: HW
LayerCount: 2
Fore
SplineSet
462 517 m 0
 356 517 258 421 258 315 c 0
 258 211 351 111 459 111 c 0
 571 111 660 207 660 313 c 0
 660 421 568 517 462 517 c 0
464 581 m 0
 604 581 724 454 724 312 c 0
 724 172 607 46 459 46 c 0
 316 46 194 178 194 315 c 0
 194 454 324 581 464 581 c 0
465 648 m 0
 290 648 128 489 128 315 c 0
 128 143 281 -20 459 -20 c 0
 644 -20 790 137 790 312 c 0
 790 489 640 648 465 648 c 0
466 709 m 0
 678 709 856 529 856 312 c 0
 856 93 678 -85 459 -85 c 0
 239 -85 62 93 62 315 c 0
 62 534 242 709 466 709 c 0
EndSplineSet
EndChar

StartChar: H18533
Encoding: 9679 9679 196
Width: 918
VWidth: 1030
Flags: HW
LayerCount: 2
Fore
SplineSet
466 709 m 0
 678 709 856 529 856 312 c 0
 856 93 678 -85 459 -85 c 0
 239 -85 62 93 62 315 c 0
 62 534 242 709 466 709 c 0
EndSplineSet
EndChar

StartChar: uni25D0
Encoding: 9680 9680 197
Width: 918
VWidth: 1030
Flags: HW
LayerCount: 2
Fore
SplineSet
458 -19 m 1
 630 -19 791 134 791 312 c 0
 791 497 633 643 458 643 c 1
 458 -19 l 1
62 318 m 0
 62 530 242 709 459 709 c 0
 678 709 856 531 856 312 c 0
 856 92 678 -85 456 -85 c 0
 237 -85 62 94 62 318 c 0
EndSplineSet
EndChar

StartChar: uni25D4
Encoding: 9684 9684 201
Width: 918
VWidth: 1030
Flags: HW
LayerCount: 2
Fore
SplineSet
856 305 m 0
 856 93 676 -85 459 -85 c 0
 240 -85 62 93 62 312 c 0
 62 532 240 709 462 709 c 0
 681 709 856 529 856 305 c 0
460 643 m 1
 291 643 127 494 127 311 c 0
 127 127 289 -20 458 -20 c 0
 643 -20 789 136 789 311 c 1
 460 311 l 1
 460 643 l 1
EndSplineSet
EndChar

StartChar: uni25D5
Encoding: 9685 9685 202
Width: 918
VWidth: 1030
Flags: HW
LayerCount: 2
Fore
SplineSet
460 643 m 1
 288 643 127 490 127 312 c 1
 460 312 l 1
 460 643 l 1
856 305 m 0
 856 93 676 -85 459 -85 c 0
 240 -85 62 93 62 312 c 0
 62 532 240 709 462 709 c 0
 681 709 856 529 856 305 c 0
EndSplineSet
EndChar

StartChar: uni25D6
Encoding: 9686 9686 203
Width: 543
VWidth: 1030
Flags: HW
LayerCount: 2
Fore
SplineSet
466 709 m 1
 466 -85 l 1
 246 -85 62 93 62 315 c 0
 62 534 242 709 466 709 c 1
EndSplineSet
EndChar

StartChar: triagup
Encoding: 9650 9650 205
Width: 905
VWidth: 945
Flags: HW
LayerCount: 2
Fore
SplineSet
864 -55 m 1
 41 -55 l 1
 453 651 l 1
 864 -55 l 1
EndSplineSet
EndChar

StartChar: uni25C0
Encoding: 9664 9664 208
Width: 830
VWidth: 945
Flags: HW
LayerCount: 2
Fore
SplineSet
753 709 m 1
 753 -113 l 1
 47 299 l 1
 753 709 l 1
EndSplineSet
EndChar

StartChar: uni25A3
Encoding: 9635 9635 209
Width: 994
VWidth: 1200
Flags: HW
LayerCount: 2
Fore
SplineSet
137 670 m 21
 137 -50 l 13
 857 -50 l 21
 857 670 l 13
 137 670 l 21
77 730 m 13
 917 730 l 21
 917 -110 l 13
 77 -110 l 21
 77 730 l 13
257 544 m 13
 737 544 l 21
 737 64 l 5
 257 64 l 5
 257 544 l 13
EndSplineSet
EndChar

StartChar: SF440000
Encoding: 9580 9580 210
Width: 1076
VWidth: 1020
Flags: HW
LayerCount: 2
Fore
SplineSet
500 343 m 1
 63 343 l 1
 63 419 l 1
 424 419 l 1
 424 780 l 1
 500 780 l 1
 500 343 l 1
576 343 m 1
 576 780 l 1
 652 780 l 1
 652 419 l 1
 1013 419 l 1
 1013 343 l 1
 576 343 l 1
576 267 m 1
 1013 267 l 1
 1013 191 l 1
 652 191 l 1
 652 -170 l 1
 576 -170 l 1
 576 267 l 1
500 267 m 1
 500 -170 l 1
 424 -170 l 1
 424 191 l 1
 63 191 l 1
 63 267 l 1
 500 267 l 1
EndSplineSet
EndChar

StartChar: uni254B
Encoding: 9547 9547 211
Width: 1073
VWidth: 1020
Flags: HW
LayerCount: 2
Fore
SplineSet
1012 381 m 1
 1012 229 l 1
 613 229 l 1
 613 -170 l 1
 461 -170 l 1
 461 229 l 1
 62 229 l 1
 62 381 l 1
 461 381 l 1
 461 780 l 1
 613 780 l 1
 613 381 l 1
 1012 381 l 1
EndSplineSet
EndChar

StartChar: uni25E2
Encoding: 9698 9698 212
Width: 888
VWidth: 1025
Flags: HW
LayerCount: 2
Fore
SplineSet
811 695 m 1
 811 -75 l 9
 41 -75 l 17
 811 695 l 1
EndSplineSet
EndChar

StartChar: uni25E5
Encoding: 9701 9701 215
Width: 890
VWidth: 1140
Flags: HW
LayerCount: 2
Fore
SplineSet
828 -90 m 1048
EndSplineSet
Refer: 212 9698 N 0 1 -1 0 755 -129 2
EndChar

StartChar: uni25E7
Encoding: 9703 9703 216
Width: 924
VWidth: 1025
Flags: HW
LayerCount: 2
Fore
SplineSet
462 640 m 17
 462 -20 l 9
 792 -20 l 17
 792 640 l 9
 462 640 l 17
77 695 m 9
 847 695 l 17
 847 -75 l 9
 77 -75 l 17
 77 695 l 9
EndSplineSet
EndChar

StartChar: uni25E9
Encoding: 9705 9705 218
Width: 924
VWidth: 1025
Flags: HW
LayerCount: 2
Fore
SplineSet
129 -24 m 9
 792 -24 l 17
 792 640 l 1
 129 -24 l 9
77 695 m 9
 847 695 l 17
 847 -75 l 9
 77 -75 l 17
 77 695 l 9
EndSplineSet
EndChar

StartChar: uni25ED
Encoding: 9709 9709 220
Width: 987
VWidth: 1025
Flags: HW
LayerCount: 2
Fore
SplineSet
844 -19 m 1
 494 578 l 1
 495 -19 l 1
 844 -19 l 1
946 -75 m 1
 41 -75 l 1
 494 702 l 1
 946 -75 l 1
EndSplineSet
EndChar

StartChar: uni25EE
Encoding: 9710 9710 221
Width: 987
VWidth: 1025
Flags: HW
LayerCount: 2
Fore
SplineSet
143 -19 m 1
 493 -19 l 1
 493 578 l 1
 143 -19 l 1
41 -75 m 1
 493 702 l 1
 946 -75 l 1
 41 -75 l 1
EndSplineSet
EndChar

StartChar: spade
Encoding: 9824 9824 222
Width: 668
VWidth: 955
Flags: HW
LayerCount: 2
Fore
SplineSet
351 193 m 1
 369 3 524 -16 575 -25 c 1
 575 -45 l 1
 94 -45 l 1
 94 -25 l 1
 145 -16 300 3 318 193 c 1
 285 142 237 113 184 113 c 0
 113 113 56 169 56 240 c 0
 56 403 267 417 335 660 c 1
 398 420 613 405 613 240 c 0
 613 169 556 113 485 113 c 0
 432 113 384 142 351 193 c 1
EndSplineSet
EndChar

StartChar: uni2661
Encoding: 9825 9825 223
Width: 726
VWidth: 955
Flags: HW
LayerCount: 2
Fore
SplineSet
364 -59 m 1
 338 40 300 105 154 295 c 0
 73 401 51 448 51 510 c 0
 51 594 115 659 198 659 c 0
 252 659 301 632 333 584 c 0
 345 566 353 549 364 515 c 1
 376 559 387 579 407 603 c 0
 439 639 482 659 527 659 c 0
 608 659 675 594 675 516 c 0
 675 441 644 377 552 261 c 1
 441 124 385 28 364 -59 c 1
198 625 m 0
 132 625 88 571 88 503 c 0
 88 452 113 410 180 321 c 0
 290 175 342 117 364 37 c 1
 417 210 636 345 636 513 c 0
 636 581 598 621 528 621 c 0
 489 621 450 603 418 565 c 16
 396 539 396 475 364 475 c 8
 328 475 325 536 314 551 c 0
 288 585 245 625 198 625 c 0
EndSplineSet
EndChar

StartChar: uni2662
Encoding: 9826 9826 224
Width: 623
VWidth: 955
Flags: HW
LayerCount: 2
Fore
SplineSet
311 660 m 1
 343 597 499 384 575 301 c 1
 480 193 354 20 311 -59 c 1
 260 32 167 158 49 301 c 1
 188 469 260 567 311 660 c 1
311 588 m 1
 270 514 213 435 101 301 c 1
 196 186 270 86 311 13 c 1
 346 76 446 214 523 301 c 1
 462 367 337 538 311 588 c 1
EndSplineSet
EndChar

StartChar: club
Encoding: 9827 9827 225
Width: 821
VWidth: 955
Flags: HW
LayerCount: 2
Fore
SplineSet
425 248 m 1
 430 137 439 14 653 -25 c 1
 653 -45 l 1
 169 -45 l 1
 169 -25 l 1
 384 15 392 140 397 248 c 1
 380 216 372 202 358 186 c 0
 322 141 264 112 214 112 c 0
 128 112 58 185 58 274 c 0
 58 361 121 431 200 431 c 0
 244 431 271 409 292 401 c 1
 264 441 253 471 253 507 c 0
 253 591 324 660 411 660 c 0
 498 660 569 591 569 507 c 0
 569 471 558 441 530 401 c 1
 567 418 584 431 622 431 c 0
 701 431 764 361 764 274 c 0
 764 185 694 112 608 112 c 0
 498 112 441 218 425 248 c 1
EndSplineSet
EndChar

StartChar: uni2664
Encoding: 9828 9828 226
Width: 668
VWidth: 955
Flags: HW
LayerCount: 2
Fore
SplineSet
339 111 m 1
 306 33 300 16 229 -12 c 1
 452 -12 l 1
 373 17 368 33 339 111 c 1
338 256 m 1
 367 212 418 140 464 140 c 0
 525 140 574 188 574 249 c 0
 574 391 388 390 335 596 c 1
 271 387 95 390 95 249 c 0
 95 188 144 140 205 140 c 0
 251 140 310 212 338 256 c 1
351 193 m 1
 369 3 524 -16 575 -25 c 1
 575 -45 l 1
 94 -45 l 1
 94 -25 l 1
 145 -16 300 3 318 193 c 1
 285 142 237 113 184 113 c 0
 113 113 56 169 56 240 c 0
 56 403 267 417 335 660 c 1
 398 420 613 405 613 240 c 0
 613 169 556 113 485 113 c 0
 432 113 384 142 351 193 c 1
EndSplineSet
EndChar

StartChar: heart
Encoding: 9829 9829 227
Width: 726
VWidth: 955
Flags: HW
LayerCount: 2
Fore
SplineSet
364 515 m 1
 393 620 462 659 527 659 c 0
 608 659 675 594 675 516 c 0
 675 322 422 183 364 -59 c 1
 338 40 300 105 154 295 c 0
 73 401 51 448 51 510 c 0
 51 594 115 659 198 659 c 0
 264 659 329 622 364 515 c 1
EndSplineSet
EndChar

StartChar: diamond
Encoding: 9830 9830 228
Width: 623
VWidth: 955
Flags: HW
LayerCount: 2
Fore
SplineSet
311 660 m 1
 343 597 499 384 575 301 c 1
 480 193 354 20 311 -59 c 1
 260 32 167 158 49 301 c 1
 188 469 260 567 311 660 c 1
EndSplineSet
EndChar

StartChar: uni2667
Encoding: 9831 9831 229
Width: 821
VWidth: 955
Flags: HW
LayerCount: 2
Fore
SplineSet
411 111 m 1
 378 33 372 16 301 -12 c 1
 524 -12 l 1
 445 17 440 33 411 111 c 1
412 322 m 1
 435 283 512 154 607 154 c 0
 650 154 715 202 715 279 c 0
 715 354 660 386 619 386 c 0
 586 386 485 358 453 343 c 1
 477 377 529 453 529 505 c 0
 529 550 486 611 411 611 c 0
 336 611 294 547 294 505 c 0
 294 461 345 374 369 340 c 1
 351 347 258 395 203 395 c 0
 165 395 107 354 107 279 c 0
 107 202 165 153 215 153 c 0
 342 153 390 280 412 322 c 1
425 248 m 1
 430 137 439 14 653 -25 c 1
 653 -45 l 1
 169 -45 l 1
 169 -25 l 1
 384 15 392 140 397 248 c 1
 380 216 372 202 358 186 c 0
 322 141 264 112 214 112 c 0
 128 112 58 185 58 274 c 0
 58 361 121 431 200 431 c 0
 244 431 271 409 292 401 c 1
 264 441 253 471 253 507 c 0
 253 591 324 660 411 660 c 0
 498 660 569 591 569 507 c 0
 569 471 558 441 530 401 c 1
 567 418 584 431 622 431 c 0
 701 431 764 361 764 274 c 0
 764 185 694 112 608 112 c 0
 498 112 441 218 425 248 c 1
EndSplineSet
EndChar

StartChar: smileface
Encoding: 9786 9786 230
Width: 1065
VWidth: 1000
Flags: HW
LayerCount: 2
Fore
SplineSet
1005 305 m 256
 1005 175 958 64 866 -28 c 128
 774 -120 663 -167 533 -167 c 256
 403 -167 292 -120 200 -28 c 128
 108 64 62 175 62 305 c 0
 62 434 108 545 200 638 c 128
 292 731 404 777 533 777 c 0
 663 777 774 730 866 638 c 128
 958 546 1005 435 1005 305 c 256
938 303 m 0
 938 416 899 512 820 591 c 128
 741 670 646 710 533 710 c 256
 420 710 325 670 246 591 c 128
 167 512 128 416 128 303 c 0
 128 192 168 97 247 18 c 128
 326 -61 422 -100 533 -100 c 256
 644 -100 740 -61 819 18 c 128
 898 97 938 192 938 303 c 0
702 442 m 0
 702 420 698 396 691 371 c 0
 681 337 668 320 652 320 c 0
 633 320 619 339 610 377 c 0
 605 400 602 421 602 442 c 0
 602 464 606 488 613 513 c 0
 622 546 635 563 652 563 c 0
 668 563 681 547 691 514 c 0
 698 490 702 466 702 442 c 0
465 442 m 256
 465 419 461 395 454 370 c 0
 445 337 432 320 415 320 c 0
 396 320 382 339 373 377 c 0
 368 400 365 421 365 442 c 0
 365 464 369 488 376 513 c 0
 385 546 398 563 415 563 c 256
 432 563 445 547 454 514 c 0
 461 489 465 465 465 442 c 256
832 209 m 1
 805 145 765 95 714 60 c 128
 663 25 603 7 535 7 c 256
 467 7 407 25 356 60 c 128
 305 95 265 145 238 209 c 1
 251 217 270 228 294 243 c 1
 309 196 340 155 388 121 c 128
 436 87 485 70 535 70 c 256
 585 70 634 87 682 121 c 128
 730 155 761 196 776 243 c 1
 789 235 808 224 832 209 c 1
EndSplineSet
Validated: 1
EndChar

StartChar: invsmileface
Encoding: 9787 9787 231
Width: 1065
VWidth: 1000
Flags: HW
LayerCount: 2
Fore
SplineSet
1005 305 m 256
 1005 175 958 64 866 -28 c 128
 774 -120 663 -167 533 -167 c 256
 403 -167 292 -120 200 -28 c 128
 108 64 62 175 62 305 c 0
 62 434 108 545 200 638 c 128
 292 731 404 777 533 777 c 0
 663 777 774 730 866 638 c 128
 958 546 1005 435 1005 305 c 256
702 442 m 0
 702 466 698 490 691 514 c 0
 681 547 668 563 652 563 c 0
 635 563 622 546 613 513 c 0
 606 488 602 464 602 442 c 0
 602 421 605 400 610 377 c 0
 619 339 633 320 652 320 c 0
 668 320 681 337 691 371 c 0
 698 396 702 420 702 442 c 0
465 442 m 256
 465 465 461 489 454 514 c 0
 445 547 432 563 415 563 c 256
 398 563 385 546 376 513 c 0
 369 488 365 464 365 442 c 0
 365 421 368 400 373 377 c 0
 382 339 396 320 415 320 c 0
 432 320 445 337 454 370 c 0
 461 395 465 419 465 442 c 256
832 209 m 1
 823 215 804 226 776 243 c 1
 761 196 730 155 682 121 c 128
 634 87 585 70 535 70 c 256
 485 70 436 87 388 121 c 128
 340 155 309 196 294 243 c 1
 281 235 263 224 238 209 c 1
 265 145 305 95 356 60 c 128
 407 25 467 7 535 7 c 256
 603 7 663 25 714 60 c 128
 765 95 805 145 832 209 c 1
EndSplineSet
Validated: 1
EndChar

StartChar: uni2669
Encoding: 9833 9833 232
Width: 344
VWidth: 960
Flags: HW
LayerCount: 2
Fore
SplineSet
268 43 m 2
 268 -9 214 -40 158 -40 c 0
 101 -40 47 -9 47 43 c 0
 47 94 101 126 158 126 c 0
 190 126 222 115 243 97 c 1
 243 654 l 1
 268 654 l 1
 268 43 l 2
EndSplineSet
EndChar

StartChar: musicalnote
Encoding: 9834 9834 233
Width: 549
VWidth: 960
Flags: HW
LayerCount: 2
Fore
SplineSet
269 463 m 1
 269 43 l 2
 269 -9 215 -40 158 -40 c 0
 101 -40 47 -9 47 43 c 0
 47 95 101 126 158 126 c 0
 191 126 223 116 244 97 c 1
 244 654 l 1
 269 654 l 1
 269 599 l 2
 269 572 352 505 406 462 c 0
 469 412 490 328 490 247 c 2
 490 191 l 1
 465 191 l 1
 465 247 l 2
 465 274 382 341 328 384 c 0
 301 405 282 432 269 463 c 1
EndSplineSet
EndChar

StartChar: musicalnotedbl
Encoding: 9835 9835 234
Width: 735
VWidth: 960
Flags: HW
LayerCount: 2
Fore
SplineSet
286 579 m 1
 286 182 l 2
 286 129 228 99 168 99 c 0
 109 99 51 129 51 182 c 0
 51 235 109 265 168 265 c 0
 204 265 238 255 261 235 c 1
 261 663 l 1
 661 516 l 1
 661 43 l 2
 661 -10 603 -40 544 -40 c 0
 484 -40 427 -10 427 43 c 0
 427 96 484 126 544 126 c 0
 579 126 613 116 636 96 c 1
 636 450 l 1
 286 579 l 1
EndSplineSet
EndChar

StartChar: uni266C
Encoding: 9836 9836 235
Width: 735
VWidth: 960
Flags: HW
LayerCount: 2
Fore
SplineSet
636 389 m 1
 636 450 l 1
 286 579 l 1
 286 518 l 1
 636 389 l 1
661 516 m 1
 661 43 l 2
 661 -10 603 -40 544 -40 c 0
 484 -40 427 -10 427 43 c 0
 427 96 484 126 544 126 c 0
 579 126 613 116 636 96 c 1
 636 314 l 1
 286 443 l 1
 286 182 l 2
 286 129 228 99 168 99 c 0
 109 99 51 129 51 182 c 0
 51 235 109 265 168 265 c 0
 204 265 238 255 261 235 c 1
 261 663 l 1
 661 516 l 1
EndSplineSet
EndChar

StartChar: female
Encoding: 9792 9792 236
Width: 672
VWidth: -65
Flags: HW
LayerCount: 2
Fore
SplineSet
394 196 m 1
 394 75 l 1
 451 75 l 2
 467 75 481 69 492 58 c 128
 503 47 509 33 509 17 c 128
 509 1 503 -12 492 -23 c 128
 481 -34 467 -40 451 -40 c 2
 394 -40 l 1
 394 -97 l 2
 394 -113 387 -127 376 -138 c 128
 365 -149 352 -155 336 -155 c 128
 320 -155 306 -149 295 -138 c 128
 284 -127 278 -113 278 -97 c 2
 278 -40 l 1
 221 -40 l 2
 205 -40 191 -34 180 -23 c 128
 169 -12 163 1 163 17 c 128
 163 33 169 47 180 58 c 128
 191 69 205 75 221 75 c 2
 278 75 l 1
 278 196 l 1
 211 210 157 243 113 296 c 128
 69 349 48 410 48 479 c 0
 48 531 61 579 87 623 c 128
 113 667 148 702 192 728 c 128
 236 754 284 767 336 767 c 128
 388 767 436 754 480 728 c 128
 524 702 559 667 585 623 c 128
 611 579 624 531 624 479 c 0
 624 410 602 349 558 296 c 128
 514 243 460 210 394 196 c 1
336 651 m 128
 288 651 248 635 214 601 c 128
 180 567 163 526 163 478 c 128
 163 430 180 390 214 356 c 128
 248 322 288 306 336 306 c 128
 384 306 424 322 458 356 c 128
 492 390 509 430 509 478 c 128
 509 526 492 567 458 601 c 128
 424 635 384 651 336 651 c 128
EndSplineSet
EndChar

StartChar: uni2641
Encoding: 9793 9793 237
Width: 971
VWidth: -49
Flags: HW
LayerCount: 2
Fore
SplineSet
917 120 m 0
 917 53 894 -5 846 -53 c 128
 798 -101 740 -125 673 -125 c 0
 633 -125 595 -116 560 -98 c 128
 525 -80 498 -55 475 -23 c 1
 421 -50 372 -65 328 -70 c 128
 284 -75 253 -67 234 -47 c 0
 211 -25 205 14 214 68 c 128
 223 122 247 180 284 242 c 1
 319 215 359 201 401 201 c 0
 454 201 498 220 535 257 c 128
 572 294 591 339 591 392 c 0
 591 434 577 473 550 508 c 1
 612 545 671 569 725 578 c 128
 779 587 817 581 839 558 c 0
 859 539 867 508 862 464 c 128
 857 420 842 372 815 318 c 1
 847 295 872 267 890 232 c 128
 908 197 917 160 917 120 c 0
758 224 m 1
 732 187 704 153 672 121 c 256
 640 89 605 60 568 34 c 1
 596 1 631 -16 673 -16 c 0
 710 -16 742 -3 769 24 c 128
 796 51 809 83 809 120 c 0
 809 162 791 196 758 224 c 1
401 256 m 0
 384 256 368 258 355 264 c 128
 342 270 332 276 325 283 c 128
 318 290 308 296 298 302 c 128
 288 308 277 310 265 310 c 0
 205 310 153 332 111 374 c 128
 69 416 47 468 47 528 c 128
 47 588 69 640 111 682 c 128
 153 724 205 745 265 745 c 128
 325 745 376 724 418 682 c 128
 460 640 482 588 482 528 c 0
 482 516 485 504 491 494 c 128
 497 484 502 475 509 468 c 128
 516 461 522 450 528 437 c 128
 534 424 537 409 537 392 c 0
 537 355 524 323 497 296 c 128
 470 269 438 256 401 256 c 0
EndSplineSet
EndChar

StartChar: male
Encoding: 9794 9794 238
Width: 1035
VWidth: -65
Flags: HW
LayerCount: 2
Fore
SplineSet
920 336 m 128
 903 336 888 342 876 354 c 128
 864 366 858 381 858 398 c 2
 858 565 l 1
 620 327 l 1
 657 274 675 216 675 152 c 0
 675 96 661 45 633 -2 c 128
 605 -49 568 -87 521 -114 c 128
 474 -141 423 -155 367 -155 c 128
 311 -155 260 -141 213 -114 c 128
 166 -87 128 -49 101 -2 c 128
 74 45 60 96 60 152 c 128
 60 208 74 259 101 306 c 128
 128 353 166 391 213 418 c 128
 260 445 312 459 367 459 c 0
 431 459 490 441 542 405 c 1
 781 643 l 1
 613 643 l 2
 596 643 581 649 569 661 c 128
 557 673 551 688 551 705 c 128
 551 722 557 736 569 748 c 128
 581 760 596 766 613 766 c 2
 920 766 l 2
 937 766 952 760 964 748 c 128
 976 736 982 722 982 705 c 2
 982 398 l 2
 982 381 976 366 964 354 c 128
 952 342 937 336 920 336 c 128
367 336 m 128
 316 336 273 318 237 282 c 128
 201 246 183 203 183 152 c 128
 183 101 201 57 237 21 c 128
 273 -15 316 -33 367 -33 c 128
 418 -33 461 -15 497 21 c 128
 533 57 551 101 551 152 c 128
 551 203 533 246 497 282 c 128
 461 318 418 336 367 336 c 128
EndSplineSet
EndChar

StartChar: uni2056
Encoding: 8278 8278 239
Width: 796
VWidth: 975
Flags: HW
LayerCount: 2
Fore
SplineSet
399 348 m 256
 371 349 350 369 338 407 c 0
 328 436 324 468 326 500 c 256
 328 532 336 562 349 590 c 0
 366 626 388 643 416 642 c 0
 443 641 464 620 478 582 c 0
 488 553 491 522 490 490 c 0
 489 458 481 429 467 400 c 0
 449 364 427 347 399 348 c 256
335 312 m 0
 335 272 303 252 240 252 c 0
 178 252 126 272 83 312 c 0
 61 333 50 352 50 373 c 256
 50 394 61 410 83 421 c 0
 101 430 122 434 145 434 c 0
 207 434 259 413 302 373 c 0
 324 352 335 333 335 312 c 0
329 236 m 0
 365 236 383 215 383 172 c 0
 383 135 368 97 339 58 c 0
 300 6 260 -21 217 -21 c 0
 180 -21 162 0 162 42 c 0
 162 78 177 117 207 157 c 0
 247 210 287 236 329 236 c 0
415 174 m 0
 415 217 433 239 470 239 c 0
 511 239 551 212 591 158 c 0
 620 118 634 80 634 44 c 0
 634 1 616 -19 580 -19 c 0
 537 -19 497 7 458 61 c 0
 429 101 415 138 415 174 c 0
559 251 m 0
 534 251 512 255 494 263 c 0
 470 274 458 291 458 313 c 0
 458 339 476 365 511 388 c 0
 552 415 597 428 645 428 c 0
 670 428 692 424 710 415 c 0
 734 404 746 388 746 366 c 0
 746 342 731 318 702 296 c 0
 679 280 653 268 624 260 c 0
 602 254 580 251 559 251 c 0
EndSplineSet
EndChar

StartChar: uni2057
Encoding: 8279 8279 240
Width: 768
VWidth: 975
Flags: HW
LayerCount: 2
Fore
SplineSet
391 427 m 256
 362 427 337 438 318 460 c 128
 299 482 288 507 288 536 c 256
 288 565 299 591 318 613 c 128
 337 635 362 645 391 645 c 256
 420 645 445 635 464 613 c 128
 483 591 493 565 493 536 c 256
 493 507 483 482 464 460 c 128
 445 438 420 427 391 427 c 256
252 324 m 0
 236 276 204 252 156 252 c 0
 144 252 132 255 120 260 c 0
 75 278 53 312 53 361 c 0
 53 374 56 388 60 400 c 0
 77 447 108 470 156 470 c 0
 168 470 181 467 192 463 c 0
 237 445 259 412 259 361 c 0
 259 349 256 337 252 324 c 0
349 85 m 0
 349 56 339 31 320 9 c 128
 301 -13 276 -24 247 -24 c 256
 218 -24 192 -13 173 8 c 128
 154 29 144 55 144 85 c 0
 144 114 154 140 174 162 c 128
 194 184 218 194 247 194 c 0
 276 194 301 183 320 162 c 128
 339 141 349 115 349 85 c 0
479 167 m 0
 493 174 506 176 520 176 c 0
 565 176 596 154 614 110 c 0
 620 95 623 81 623 67 c 0
 623 19 602 -14 561 -33 c 0
 549 -39 535 -41 520 -41 c 0
 475 -41 444 -20 426 23 c 0
 420 37 417 52 417 67 c 0
 417 114 438 148 479 167 c 0
613 239 m 256
 584 239 559 250 539 272 c 128
 519 294 510 319 510 348 c 256
 510 377 519 402 539 424 c 128
 559 446 584 457 613 457 c 0
 642 457 666 446 686 424 c 128
 706 402 715 377 715 348 c 256
 715 319 705 294 686 272 c 128
 667 250 642 239 613 239 c 256
387 212 m 0
 369 212 355 218 343 232 c 128
 331 246 325 261 325 279 c 256
 325 297 331 312 343 325 c 128
 355 338 369 345 387 345 c 256
 405 345 420 338 432 325 c 128
 444 312 450 297 450 279 c 0
 450 261 444 244 432 231 c 128
 420 218 405 212 387 212 c 0
EndSplineSet
EndChar

StartChar: invbullet
Encoding: 9688 9688 241
Width: 970
VWidth: 930
Flags: HW
LayerCount: 2
Fore
SplineSet
910 305 m 256
 910 188 868 88 785 5 c 128
 702 -78 602 -120 485 -120 c 256
 368 -120 268 -78 185 5 c 128
 102 88 61 188 61 305 c 0
 61 421 103 522 186 605 c 128
 269 688 369 730 485 730 c 0
 602 730 702 688 785 605 c 128
 868 522 910 422 910 305 c 256
847 331 m 1
 847 354 l 2
 847 357 844 365 840 379 c 0
 835 395 833 405 832 408 c 0
 822 458 791 509 740 561 c 128
 689 613 639 644 590 652 c 0
 586 653 577 655 560 660 c 0
 546 664 537 666 533 666 c 2
 517 666 l 1
 517 331 l 1
 847 331 l 1
456 -56 m 1
 456 270 l 1
 124 270 l 1
 126 205 154 139 207 73 c 0
 262 5 320 -33 383 -42 c 0
 385 -43 395 -46 411 -50 c 128
 427 -54 436 -57 437 -56 c 2
 456 -56 l 1
EndSplineSet
Validated: 1
EndChar

StartChar: invcircle
Encoding: 9689 9689 242
Width: 970
VWidth: 930
Flags: HW
LayerCount: 2
Fore
SplineSet
910 305 m 256
 910 188 868 88 785 5 c 128
 702 -78 602 -120 485 -120 c 256
 368 -120 268 -78 185 5 c 128
 102 88 61 188 61 305 c 0
 61 421 103 522 186 605 c 128
 269 688 369 730 485 730 c 0
 602 730 702 688 785 605 c 128
 868 522 910 422 910 305 c 256
847 256 m 2
 847 270 l 1
 517 270 l 1
 517 -56 l 1
 533 -56 l 2
 535 -57 540 -56 549 -53 c 128
 558 -50 564 -49 566 -49 c 0
 621 -43 676 -13 734 40 c 128
 792 93 824 146 832 200 c 0
 833 205 835 214 840 229 c 0
 844 242 847 251 847 256 c 2
456 331 m 1
 456 666 l 1
 437 666 l 2
 378 666 316 637 249 580 c 128
 182 523 146 466 138 408 c 0
 137 403 134 393 130 379 c 128
 126 365 124 357 124 353 c 2
 124 331 l 1
 456 331 l 1
EndSplineSet
Validated: 1
EndChar

StartChar: uni25DA
Encoding: 9690 9690 243
Width: 904
VWidth: 998
Flags: HW
LayerCount: 2
Fore
SplineSet
852 257 m 2
 852 252 850 242 845 227 c 0
 840 211 837 200 836 195 c 0
 828 136 793 77 729 19 c 128
 665 -39 603 -72 543 -79 c 0
 540 -79 535 -80 525 -83 c 128
 515 -86 509 -88 506 -87 c 2
 490 -87 l 1
 490 272 l 1
 852 272 l 1
 852 257 l 2
422 339 m 1
 57 339 l 1
 57 363 l 2
 57 367 59 376 64 392 c 128
 69 408 71 418 72 423 c 0
 81 486 122 550 195 613 c 128
 268 676 337 707 402 707 c 2
 422 707 l 1
 422 339 l 1
EndSplineSet
EndChar

StartChar: uni25DB
Encoding: 9691 9691 244
Width: 905
VWidth: 998
Flags: HW
LayerCount: 2
Fore
SplineSet
848 339 m 1
 486 339 l 1
 486 707 l 1
 502 707 l 2
 507 707 517 706 532 702 c 0
 550 697 562 694 566 693 c 0
 620 684 675 650 731 592 c 128
 787 534 821 478 832 423 c 0
 833 420 836 410 841 392 c 0
 846 377 848 367 848 364 c 2
 848 339 l 1
418 -86 m 1
 398 -86 l 2
 397 -87 387 -85 369 -80 c 128
 351 -75 341 -73 338 -72 c 0
 269 -62 204 -20 144 55 c 0
 86 128 56 200 53 272 c 1
 418 272 l 1
 418 -86 l 1
EndSplineSet
EndChar

StartChar: uni25DC
Encoding: 9692 9692 245
Width: 970
VWidth: 930
Flags: HW
LayerCount: 2
Fore
SplineSet
910 305 m 256
 910 188 868 88 785 5 c 128
 702 -78 602 -120 485 -120 c 256
 368 -120 268 -78 185 5 c 128
 102 88 61 188 61 305 c 0
 61 421 103 522 186 605 c 128
 269 688 369 730 485 730 c 0
 602 730 702 688 785 605 c 128
 868 522 910 422 910 305 c 256
849 303 m 0
 849 404 814 491 743 562 c 128
 672 633 586 670 485 670 c 256
 384 670 298 633 227 562 c 128
 156 491 120 404 120 303 c 0
 120 203 157 118 228 47 c 128
 299 -24 385 -60 485 -60 c 256
 585 -60 671 -24 742 47 c 128
 813 118 849 203 849 303 c 0
754 364 m 1
 754 243 l 1
 544 243 l 1
 544 33 l 1
 423 33 l 1
 423 241 l 1
 213 241 l 1
 213 364 l 1
 421 364 l 1
 421 574 l 1
 544 574 l 1
 544 364 l 1
 754 364 l 1
EndSplineSet
Validated: 1
EndChar

StartChar: uni25DD
Encoding: 9693 9693 246
Width: 970
VWidth: 930
Flags: HW
LayerCount: 2
Fore
SplineSet
910 305 m 256
 910 188 868 88 785 5 c 128
 702 -78 602 -120 485 -120 c 256
 368 -120 268 -78 185 5 c 128
 102 88 61 188 61 305 c 0
 61 421 103 522 186 605 c 128
 269 688 369 730 485 730 c 0
 602 730 702 688 785 605 c 128
 868 522 910 422 910 305 c 256
754 364 m 1
 544 364 l 1
 544 574 l 1
 421 574 l 1
 421 364 l 1
 213 364 l 1
 213 241 l 1
 423 241 l 1
 423 33 l 1
 544 33 l 1
 544 243 l 1
 754 243 l 1
 754 364 l 1
EndSplineSet
Validated: 1
EndChar

StartChar: uni25DE
Encoding: 9694 9694 247
Width: 970
VWidth: 930
Flags: HW
LayerCount: 2
Fore
SplineSet
910 305 m 256
 910 188 868 88 785 5 c 128
 702 -78 602 -120 485 -120 c 256
 368 -120 268 -78 185 5 c 128
 102 88 61 188 61 305 c 0
 61 421 103 522 186 605 c 128
 269 688 369 730 485 730 c 0
 602 730 702 688 785 605 c 128
 868 522 910 422 910 305 c 256
849 303 m 0
 849 404 814 491 743 562 c 128
 672 633 586 670 485 670 c 256
 384 670 298 633 227 562 c 128
 156 491 120 404 120 303 c 0
 120 203 157 118 228 47 c 128
 299 -24 385 -60 485 -60 c 256
 585 -60 671 -24 742 47 c 128
 813 118 849 203 849 303 c 0
781 216 m 1
 571 216 l 1
 571 6 l 1
 396 6 l 1
 396 214 l 1
 186 214 l 1
 186 390 l 1
 394 390 l 1
 394 601 l 1
 571 601 l 1
 571 390 l 1
 781 390 l 1
 781 216 l 1
727 270 m 1
 727 336 l 1
 517 336 l 1
 517 547 l 1
 448 547 l 1
 448 336 l 1
 240 336 l 1
 240 268 l 1
 450 268 l 1
 450 60 l 1
 517 60 l 1
 517 270 l 1
 727 270 l 1
EndSplineSet
Validated: 1
EndChar

StartChar: uni2605
Encoding: 9733 9733 248
Width: 929
VWidth: 975
Flags: HW
LayerCount: 2
Fore
SplineSet
877 395 m 0
 877 386 869 376 854 364 c 0
 842 357 830 349 819 341 c 0
 792 322 757 297 713 265 c 128
 669 233 647 216 647 213 c 0
 647 196 660 155 688 87 c 128
 716 19 730 -23 730 -40 c 0
 730 -49 726 -57 720 -65 c 128
 714 -73 707 -78 698 -78 c 0
 686 -78 645 -51 574 2 c 128
 503 55 466 82 463 82 c 0
 460 82 423 55 352 2 c 128
 281 -51 239 -78 228 -78 c 0
 219 -78 212 -73 206 -65 c 128
 200 -57 197 -49 197 -40 c 0
 197 -23 210 19 238 87 c 128
 266 155 280 196 280 213 c 0
 280 216 275 220 265 227 c 0
 258 232 250 237 241 243 c 0
 196 274 135 318 58 375 c 0
 55 378 53 385 53 397 c 0
 53 405 55 413 60 420 c 128
 65 427 72 431 79 431 c 2
 354 431 l 1
 378 522 404 605 431 680 c 0
 436 695 447 702 463 702 c 0
 478 702 492 687 505 657 c 0
 516 630 529 592 544 545 c 0
 561 486 573 448 579 431 c 1
 848 431 l 2
 857 431 864 425 869 414 c 0
 874 405 877 399 877 395 c 0
EndSplineSet
EndChar

StartChar: uni2606
Encoding: 9734 9734 249
Width: 929
VWidth: 975
Flags: HW
LayerCount: 2
Fore
SplineSet
877 395 m 0
 877 386 869 376 854 364 c 0
 842 357 830 349 819 341 c 0
 792 322 757 297 713 265 c 128
 669 233 647 216 647 213 c 0
 647 196 660 155 688 87 c 128
 716 19 730 -23 730 -40 c 0
 730 -49 726 -57 720 -65 c 128
 714 -73 707 -78 698 -78 c 0
 686 -78 645 -51 574 2 c 128
 503 55 466 82 463 82 c 0
 460 82 423 55 352 2 c 128
 281 -51 239 -78 228 -78 c 0
 219 -78 212 -73 206 -65 c 128
 200 -57 197 -49 197 -40 c 0
 197 -23 210 19 238 87 c 128
 266 155 280 196 280 213 c 0
 280 216 275 220 265 227 c 0
 258 232 250 237 241 243 c 0
 196 274 135 318 58 375 c 0
 55 378 53 385 53 397 c 0
 53 405 55 413 60 420 c 128
 65 427 72 431 79 431 c 2
 354 431 l 1
 378 522 404 605 431 680 c 0
 436 695 447 702 463 702 c 0
 478 702 492 687 505 657 c 0
 516 630 529 592 544 545 c 0
 561 486 573 448 579 431 c 1
 848 431 l 2
 857 431 864 425 869 414 c 0
 874 405 877 399 877 395 c 0
737 364 m 1
 542 364 l 2
 535 364 521 393 500 450 c 0
 485 493 473 529 465 558 c 1
 457 533 445 495 428 444 c 0
 410 391 396 364 385 364 c 2
 190 364 l 1
 209 350 239 328 278 299 c 0
 326 262 350 237 350 222 c 0
 350 210 331 151 294 45 c 1
 318 62 347 83 380 106 c 0
 429 141 457 158 463 158 c 0
 470 158 498 141 547 106 c 0
 580 83 609 62 633 45 c 1
 596 158 577 217 577 222 c 0
 577 237 602 264 653 303 c 0
 667 314 695 334 737 364 c 1
EndSplineSet
EndChar

StartChar: uni270E
Encoding: 9998 9998 250
Width: 839
VWidth: 935
Flags: HW
LayerCount: 2
Fore
SplineSet
734 -16 m 0
 748 -3 763 9 780 19 c 1
 787 -1 l 2
 790 -11 792 -20 792 -28 c 0
 792 -40 789 -49 783 -55 c 128
 777 -61 770 -63 760 -63 c 256
 750 -63 739 -61 728 -56 c 2
 709 -50 l 1
 716 -37 725 -25 734 -16 c 0
634 235 m 1
 199 669 l 1
 208 672 224 676 247 680 c 1
 695 232 l 1
 634 235 l 1
599 205 m 1
 586 144 l 1
 523 130 l 1
 77 576 l 1
 155 648 l 1
 599 205 l 1
537 86 m 1
 625 105 l 1
 642 188 l 1
 725 185 l 1
 765 64 l 1
 742 51 721 36 702 17 c 0
 687 2 675 -15 665 -36 c 1
 532 6 l 1
 537 86 l 1
492 96 m 1
 488 41 l 1
 46 483 l 1
 44 495 47 512 54 533 c 1
 492 96 l 1
EndSplineSet
EndChar

StartChar: uni2058
Encoding: 8280 8280 251
Width: 779
VWidth: 1306
Flags: HW
HStem: -40 28G<117.544 117.544 663.254 663.254> 229 148<92.2546 315.863 92.2546 315.863 463.604 687.212> 619 27G<117.544 117.544 663.254 663.254>
VStem: 316 148<5.613 229.221 5.613 229.221 376.962 600.57>
LayerCount: 2
Fore
SplineSet
118 646 m 1
 239 522 l 1
 316 601 l 1
 316 377 l 1
 92 377 l 1
 169 454 l 1
 47 577 l 1
 118 646 l 1
118 -40 m 1
 47 31 l 1
 169 152 l 1
 92 229 l 1
 316 229 l 1
 316 6 l 1
 239 83 l 1
 118 -40 l 1
663 646 m 1
 732 577 l 1
 610 454 l 1
 687 377 l 1
 464 377 l 1
 464 601 l 1
 541 523 l 1
 663 646 l 1
541 83 m 1
 464 6 l 1
 464 229 l 1
 687 229 l 1
 610 152 l 1
 732 31 l 1
 663 -40 l 1
 541 83 l 1
EndSplineSet
EndChar

StartChar: uni2630
Encoding: 9776 9776 252
Width: 903
VWidth: 950
Flags: HW
HStem: -79 88<496.16 515.6 570.32 607.76> 195 50<515.6 515.6> 448 50<515.6 515.6> 826 29G<414.8 674.72>
VStem: 76 285<364 397.84 364 518.08> 310 52<365.44 397.84 364 399.28> 516 55<9.04 194.8 245.2 448.24 498.64 766.48> 724 52<365.44 397.84> 925 86<358.24 407.2>
LayerCount: 2
Fore
SplineSet
452 704 m 0xfb80
 669 704 841 531 841 316 c 0
 841 99 669 -74 452 -74 c 0
 236 -74 62 99 62 316 c 0
 62 531 236 704 452 704 c 0xfb80
474 -1 m 1
 536 -1 569 107 585 161 c 1
 548 157 511 155 474 154 c 1
 474 -1 l 1
350 77 m 0
 368 34 396 -1 428 -1 c 1
 428 154 l 1
 391 155 354 157 318 161 c 1
 325 130 336 102 350 77 c 0
136 272 m 1
 152 254 192 229 264 216 c 1
 259 246 256 280 256 312 c 0xf780
 256 336 258 355 260 378 c 1
 205 389 172 397 147 408 c 1
 139 379 134 347 134 316 c 0
 134 300 134 285 136 272 c 1
300 312 m 0
 300 277 302 240 307 208 c 1
 348 201 387 197 428 196 c 1
 428 365 l 1
 385 366 342 369 301 374 c 1
 301 352 300 334 300 312 c 0
426 630 m 0
 372 608 326 524 307 414 c 1
 347 410 387 408 428 407 c 1
 428 630 l 1
 428 630 427 630 426 630 c 0
505 614 m 0
 494 621 482 630 474 630 c 1
 474 407 l 1
 516 408 555 410 596 414 c 1
 580 500 546 577 505 614 c 0
474 196 m 1
 516 197 555 201 595 207 c 1
 601 239 602 276 602 312 c 0
 602 334 602 352 601 372 c 1
 560 368 518 366 474 365 c 1
 474 196 l 1
643 378 m 1
 645 355 645 336 645 312 c 0
 645 280 643 245 639 215 c 1
 764 235 769 264 769 316 c 0
 769 346 764 378 754 407 c 1
 731 397 691 383 643 378 c 1
738 449 m 1
 704 523 640 584 566 610 c 1
 602 563 625 497 637 419 c 1
 702 431 728 442 738 449 c 1
228 538 m 0
 200 513 179 481 165 450 c 1
 176 440 194 439 265 420 c 1
 278 497 301 561 337 609 c 1
 296 590 260 573 228 538 c 0
228 92 m 0
 257 61 293 39 330 23 c 1
 302 61 284 110 272 168 c 1
 224 179 181 192 152 208 c 1
 170 164 193 124 228 92 c 0
675 92 m 0
 709 123 731 161 747 203 c 1
 716 189 675 177 631 167 c 1
 618 109 601 63 572 23 c 1
 609 39 646 61 675 92 c 0
EndSplineSet
EndChar

StartChar: uni2617
Encoding: 9751 9751 253
Width: 776
VWidth: 975
Flags: HW
HStem: -64 89<471.32 528.2 471.32 547.64> 74 82<461.24 489.32> 783 29G<451.88 490.04>
VStem: 407 130<126.2 149.24 126.2 150.68>
LayerCount: 2
Fore
SplineSet
388 58 m 0
 358 58 334 84 334 118 c 0
 334 125 371 126 388 126 c 0
 430 126 442 123 442 118 c 0
 442 84 418 58 388 58 c 0
714 101 m 0
 724 90 730 78 730 65 c 0
 730 -19 515 -57 388 -57 c 0
 261 -57 47 -19 47 65 c 0
 47 78 51 90 61 101 c 0
 177 340 147 451 211 540 c 0
 240 580 274 605 328 617 c 1
 330 648 356 672 388 672 c 0
 419 672 446 648 448 617 c 1
 502 605 535 580 564 540 c 0
 628 451 598 340 714 101 c 0
388 17 m 0
 483 17 610 29 659 89 c 1
 610 148 483 160 388 160 c 0
 294 160 166 148 117 89 c 1
 166 30 294 16 388 17 c 0
EndSplineSet
EndChar

StartChar: uni2637
Encoding: 9783 9783 254
Width: 957
VWidth: 1035
Flags: HW
HStem: 12 97<464.975 592.025 464.975 669.465> 12 225<500.065 556.33 500.065 669.465> 444 225<500.065 556.33> 571 98<464.975 592.025>
VStem: 426 207<311.485 367.75>
LayerCount: 2
Fore
SplineSet
479 611 m 0x98
 735 611 908 312 908 312 c 1
 908 312 735 14 479 14 c 0
 223 14 50 312 50 312 c 1
 50 312 223 611 479 611 c 0x98
479 102 m 0
 595 102 689 196 689 312 c 0
 689 428 595 522 479 522 c 0
 363 522 269 428 269 312 c 0
 269 196 363 102 479 102 c 0
574 312 m 0
 574 260 530 219 479 219 c 0x68
 427 219 386 260 386 312 c 0
 386 363 427 407 479 407 c 0
 530 407 574 363 574 312 c 0
EndSplineSet
EndChar

StartChar: uni2673
Encoding: 9843 9843 255
Width: 721
VWidth: 930
Flags: HW
HStem: -90 130<391.64 489.56> 513 130<389.48 439.16> 813 29G<391.64 391.64>
VStem: 73 130<228.08 326> 677 130<228.08 277.04 228.08 277.04>
LayerCount: 2
Fore
SplineSet
562 219 m 1
 670 219 l 1
 670 137 639 61 581 3 c 0
 523 -56 447 -87 365 -87 c 0
 283 -87 207 -56 149 3 c 0
 91 61 59 137 59 219 c 0
 59 301 91 376 149 435 c 0
 207 491 283 524 363 524 c 1
 324 690 l 1
 641 471 l 1
 336 240 l 1
 364 416 l 1
 255 415 167 327 167 219 c 0
 167 110 256 21 365 21 c 0
 474 21 562 110 562 219 c 1
EndSplineSet
EndChar

StartChar: uni2236
Encoding: 8758 8758 256
Width: 286
VWidth: 1040
Flags: HW
HStem: 35 156<121 164.5> 316 156<121 164.5>
VStem: 65 156<91 134.5 372 415.5>
LayerCount: 2
Fore
SplineSet
65 494 m 0
 65 537 99 572 143 572 c 0
 186 572 221 537 221 494 c 0
 221 450 186 416 143 416 c 0
 99 416 65 450 65 494 c 0
65 113 m 0
 65 156 99 191 143 191 c 0
 186 191 221 156 221 113 c 0
 221 69 186 35 143 35 c 0
 99 35 65 69 65 113 c 0
EndSplineSet
EndChar

StartChar: uni2635
Encoding: 9781 9781 257
Width: 922
VWidth: 800
Flags: HW
LayerCount: 2
Fore
SplineSet
558 -91 m 2
 562 -91 566 -93 569 -96 c 128
 572 -99 573 -102 573 -106 c 2
 573 -140 l 2
 573 -145 572 -149 569 -152 c 128
 566 -155 562 -156 558 -156 c 2
 363 -156 l 2
 352 -156 347 -151 347 -140 c 2
 347 -106 l 2
 347 -102 349 -99 352 -96 c 128
 355 -93 358 -91 363 -91 c 2
 558 -91 l 2
558 6 m 2
 562 6 566 5 569 2 c 128
 572 -1 573 -5 573 -10 c 2
 573 -44 l 2
 573 -48 572 -51 569 -54 c 128
 566 -57 562 -59 558 -59 c 2
 363 -59 l 2
 358 -59 355 -57 352 -54 c 128
 349 -51 347 -48 347 -44 c 2
 347 -10 l 2
 347 1 352 6 363 6 c 2
 558 6 l 2
759 316 m 1
 842 303 l 2
 851 302 858 298 863 292 c 128
 868 286 870 278 869 271 c 0
 868 263 864 256 857 252 c 128
 850 248 842 247 833 248 c 2
 750 261 l 2
 741 262 734 266 729 273 c 128
 724 280 722 287 723 294 c 256
 724 301 728 308 735 312 c 128
 742 316 750 317 759 316 c 1
750 505 m 1
 827 539 l 2
 835 543 843 544 851 542 c 128
 859 540 864 534 867 527 c 256
 870 520 870 512 867 505 c 128
 864 498 858 492 849 489 c 2
 772 454 l 2
 764 451 757 450 749 452 c 128
 741 454 735 460 732 467 c 256
 729 474 729 482 733 489 c 128
 737 496 742 502 750 505 c 1
620 633 m 1
 666 704 l 2
 671 711 678 716 686 718 c 128
 694 720 700 720 707 716 c 0
 714 711 718 705 719 697 c 128
 720 689 718 681 713 674 c 2
 667 603 l 2
 662 596 656 590 648 588 c 128
 640 586 633 587 626 591 c 256
 619 595 615 602 614 610 c 128
 613 618 615 626 620 633 c 1
162 316 m 1
 171 317 179 316 186 312 c 128
 193 308 197 301 198 294 c 256
 199 287 197 280 192 273 c 128
 187 266 179 262 170 261 c 2
 87 248 l 2
 78 247 71 248 64 252 c 128
 57 256 52 263 51 271 c 0
 50 278 52 286 57 292 c 128
 62 298 70 302 79 303 c 2
 162 316 l 1
171 505 m 1
 179 502 185 496 189 489 c 128
 193 482 192 474 189 467 c 256
 186 460 180 454 172 452 c 128
 164 450 156 451 148 454 c 2
 71 489 l 2
 63 492 58 498 54 505 c 128
 50 512 50 520 53 527 c 256
 56 534 62 540 70 542 c 128
 78 544 85 543 94 539 c 2
 171 505 l 1
300 633 m 1
 305 626 307 618 306 610 c 128
 305 602 301 595 294 591 c 0
 288 587 281 586 273 588 c 128
 265 590 259 596 254 603 c 2
 208 674 l 2
 203 681 201 689 202 697 c 128
 203 705 207 711 214 716 c 0
 220 720 227 720 235 718 c 128
 243 716 249 711 254 704 c 2
 300 633 l 1
489 659 m 1
 489 650 486 642 481 636 c 128
 476 630 469 627 461 627 c 0
 454 627 447 630 442 636 c 128
 437 642 434 650 434 659 c 2
 434 743 l 2
 434 752 437 760 442 766 c 128
 447 772 454 775 461 775 c 0
 469 775 476 772 481 766 c 128
 486 760 489 752 489 743 c 2
 489 659 l 1
683 390 m 0
 683 389 683 388 683 387 c 128
 683 386 682 385 682 384 c 2
 682 381 l 2
 682 369 680 356 677 341 c 0
 672 316 664 289 651 262 c 128
 638 235 623 207 608 176 c 0
 598 156 591 138 587 122 c 128
 583 106 580 91 578 79 c 128
 576 67 573 57 570 50 c 128
 567 43 562 39 555 38 c 2
 365 38 l 2
 358 39 353 43 350 50 c 128
 347 57 345 67 343 79 c 128
 341 91 337 106 333 122 c 128
 329 138 322 156 312 176 c 0
 297 207 283 235 270 262 c 128
 257 289 248 316 243 341 c 0
 242 348 241 354 240 361 c 128
 239 371 239 371 238 381 c 2
 238 390 l 2
 238 422 244 450 255 474 c 128
 266 498 281 518 301 535 c 128
 321 552 344 564 371 572 c 128
 398 580 427 585 459 585 c 2
 460 585 l 1
 461 585 l 2
 493 585 523 580 550 572 c 128
 577 564 600 552 620 535 c 128
 640 518 655 498 666 474 c 128
 677 450 683 422 683 390 c 0
EndSplineSet
EndChar

StartChar: uni25FF
Encoding: 9727 9727 258
Width: 848
VWidth: 955
Flags: HW
LayerCount: 2
Fore
SplineSet
301 663 m 1
 266 611 248 554 248 492 c 0
 248 394 286 315 363 254 c 1
 405 308 l 1
 460 264 l 1
 423 217 l 1
 442 208 463 201 484 196 c 1
 485 179 481 166 474 156 c 0
 461 137 434 128 394 127 c 1
 394 75 l 1
 464 76 509 99 528 146 c 0
 533 159 536 173 536 189 c 1
 547 188 552 188 551 188 c 1
 652 188 732 228 793 309 c 1
 790 211 754 128 683 59 c 128
 612 -10 527 -45 428 -45 c 0
 327 -45 241 -9 170 63 c 128
 99 135 63 220 63 321 c 0
 63 398 85 468 129 530 c 128
 173 592 230 636 301 663 c 1
262 174 m 256
 275 174 285 178 294 187 c 128
 303 196 308 207 308 220 c 256
 308 233 303 244 294 253 c 128
 285 262 275 267 262 267 c 256
 249 267 239 262 230 253 c 128
 221 244 216 233 216 220 c 256
 216 207 221 196 230 187 c 128
 239 178 249 174 262 174 c 256
EndSplineSet
EndChar

StartChar: uni2573
Encoding: 9587 9587 259
Width: 934
VWidth: 810
Flags: HW
LayerCount: 2
Fore
SplineSet
876 89 m 1
 881 84 883 78 883 72 c 128
 883 66 881 61 876 56 c 2
 721 -99 l 2
 716 -104 711 -106 705 -106 c 0
 700 -106 694 -104 688 -99 c 2
 467 122 l 1
 246 -99 l 2
 241 -104 236 -106 230 -106 c 0
 225 -106 219 -104 213 -99 c 2
 58 56 l 2
 54 60 52 66 52 73 c 0
 52 80 54 85 58 89 c 2
 279 310 l 1
 59 531 l 2
 54 535 52 540 52 547 c 0
 52 554 54 560 59 564 c 2
 213 719 l 2
 218 724 223 726 230 726 c 128
 237 726 242 724 246 719 c 2
 467 498 l 1
 688 719 l 2
 693 724 698 726 704 726 c 128
 710 726 716 724 721 719 c 2
 876 564 l 2
 881 559 883 554 883 548 c 128
 883 542 881 536 876 531 c 2
 655 310 l 1
 876 89 l 1
EndSplineSet
EndChar

StartChar: uni2670
Encoding: 9840 9840 260
Width: 887
VWidth: 795
Flags: HW
LayerCount: 2
Fore
SplineSet
444 469 m 1
 429 469 417 464 406 453 c 128
 395 442 389 430 389 415 c 2
 389 197 l 2
 389 152 373 114 341 82 c 128
 309 50 271 34 226 34 c 256
 181 34 143 50 111 82 c 128
 79 114 63 152 63 197 c 2
 63 306 l 1
 172 306 l 1
 172 197 l 2
 172 182 177 170 188 159 c 128
 199 148 211 143 226 143 c 256
 241 143 253 148 264 159 c 128
 275 170 281 182 281 197 c 2
 281 415 l 2
 281 460 297 498 329 530 c 128
 361 562 399 578 444 578 c 256
 489 578 527 562 559 531 c 128
 591 500 607 466 607 427 c 2
 607 374 l 1
 537 353 l 1
 498 374 l 1
 498 427 l 2
 498 436 493 445 482 455 c 128
 471 465 459 469 444 469 c 1
825 197 m 1
 825 152 809 114 777 82 c 128
 745 50 706 34 661 34 c 0
 638 34 618 38 598 47 c 128
 578 56 561 68 546 83 c 128
 531 98 519 116 511 138 c 128
 503 160 498 183 498 209 c 2
 498 314 l 1
 537 294 l 1
 607 314 l 1
 607 209 l 2
 607 188 612 172 623 160 c 128
 634 148 646 143 661 143 c 256
 676 143 689 148 700 159 c 128
 711 170 716 182 716 197 c 2
 716 306 l 1
 825 306 l 1
 825 197 l 1
EndSplineSet
EndChar

StartChar: sun
Encoding: 9788 9788 261
Width: 648
VWidth: 925
Flags: HW
LayerCount: 2
Fore
SplineSet
561 403 m 0
 571 403 579 400 586 393 c 128
 593 386 597 377 597 367 c 0
 597 349 589 337 572 332 c 2
 441 290 l 1
 538 122 l 1
 427 122 l 1
 450 -30 l 2
 453 -54 443 -68 420 -71 c 0
 407 -73 394 -70 382 -63 c 128
 370 -56 363 -46 362 -34 c 2
 342 125 l 1
 321 125 l 1
 300 -41 l 2
 297 -64 280 -75 247 -75 c 0
 236 -75 228 -71 222 -63 c 128
 216 -55 215 -45 216 -34 c 2
 235 122 l 1
 123 122 l 1
 216 283 l 1
 77 327 l 2
 60 332 51 344 51 362 c 0
 51 386 63 398 88 398 c 0
 91 398 95 397 99 396 c 2
 253 347 l 1
 288 403 l 1
 257 412 232 429 213 454 c 128
 194 479 184 508 184 539 c 0
 184 578 198 611 225 639 c 128
 252 667 286 681 325 681 c 256
 364 681 398 667 426 639 c 128
 454 611 467 578 467 539 c 0
 467 508 458 481 440 456 c 128
 422 431 398 414 369 405 c 1
 404 355 l 1
 550 401 l 2
 554 402 558 403 561 403 c 0
EndSplineSet
EndChar

StartChar: uni263D
Encoding: 9789 9789 262
Width: 654
VWidth: 925
Flags: HW
LayerCount: 2
Fore
SplineSet
566 399 m 0
 577 399 585 396 592 389 c 128
 599 382 603 373 603 362 c 0
 603 345 595 333 578 327 c 2
 439 278 l 1
 439 163 l 1
 491 -22 l 2
 492 -25 492 -28 492 -32 c 0
 492 -61 479 -76 454 -76 c 0
 428 -76 413 -67 408 -50 c 2
 356 136 l 1
 304 136 l 1
 252 -50 l 2
 247 -67 232 -76 205 -76 c 0
 180 -76 168 -60 168 -28 c 0
 168 -23 169 -19 170 -16 c 2
 225 177 l 1
 225 283 l 1
 76 335 l 2
 59 341 51 353 51 370 c 0
 51 380 55 388 62 395 c 128
 69 402 77 406 87 406 c 0
 91 406 95 406 99 405 c 2
 251 356 l 1
 258 367 269 378 285 388 c 128
 301 398 316 404 329 405 c 1
 292 407 261 421 236 447 c 128
 211 473 199 505 199 542 c 0
 199 580 213 612 240 639 c 128
 267 666 299 680 337 680 c 256
 375 680 407 666 434 639 c 128
 461 612 474 580 474 542 c 0
 474 506 462 475 438 449 c 128
 414 423 384 408 348 405 c 1
 365 404 385 386 409 351 c 1
 555 397 l 2
 559 398 563 399 566 399 c 0
EndSplineSet
EndChar

StartChar: uni2633
Encoding: 9779 9779 263
Width: 1071
VWidth: 970
Flags: HW
LayerCount: 2
Fore
SplineSet
1008 308 m 2
 1012 148 l 2
 1013 131 1007 116 994 103 c 128
 981 90 966 84 949 84 c 2
 925 84 l 1
 921 52 906 25 882 4 c 128
 858 -17 830 -28 797 -28 c 256
 764 -28 736 -17 712 4 c 128
 688 25 673 52 668 84 c 1
 456 84 l 1
 452 52 438 25 414 4 c 128
 390 -17 361 -28 328 -28 c 256
 295 -28 266 -17 242 4 c 128
 218 25 204 52 200 84 c 1
 126 84 l 2
 109 84 94 90 82 102 c 128
 70 114 63 130 63 148 c 2
 63 315 l 2
 63 332 70 346 82 358 c 128
 94 370 109 377 126 378 c 2
 277 389 l 1
 317 558 l 1
 318 579 326 597 339 613 c 0
 356 634 381 647 413 651 c 1
 845 652 l 1
 847 652 l 2
 864 650 881 643 896 631 c 0
 917 615 931 593 938 564 c 2
 976 362 l 1
 997 351 1007 333 1008 308 c 2
329 46 m 256
 344 46 357 51 368 62 c 128
 379 73 385 87 385 102 c 256
 385 117 379 131 368 142 c 128
 357 153 344 158 329 158 c 256
 314 158 301 153 290 142 c 128
 279 131 273 117 273 102 c 256
 273 87 279 73 290 62 c 128
 301 51 314 46 329 46 c 256
577 376 m 1
 577 563 l 1
 422 563 l 2
 411 561 406 557 406 551 c 2
 365 376 l 1
 577 376 l 1
795 44 m 256
 810 44 823 49 834 60 c 128
 845 71 851 85 851 100 c 256
 851 115 845 129 834 140 c 128
 823 151 810 156 795 156 c 256
 780 156 767 151 756 140 c 128
 745 129 739 115 739 100 c 256
 739 85 745 71 756 60 c 128
 767 49 780 44 795 44 c 256
666 376 m 1
 883 374 l 1
 851 543 l 2
 849 553 845 560 838 563 c 1
 666 563 l 1
 666 376 l 1
EndSplineSet
EndChar

StartChar: uni2638
Encoding: 9784 9784 264
Width: 976
VWidth: 800
Flags: HW
LayerCount: 2
Fore
SplineSet
488 583 m 1
 536 583 581 576 625 563 c 128
 669 550 710 531 747 507 c 128
 784 483 818 454 848 421 c 128
 878 388 903 351 923 311 c 1
 903 271 878 233 848 200 c 128
 818 167 784 138 747 114 c 128
 710 90 669 72 625 59 c 128
 581 46 536 39 488 39 c 256
 440 39 395 46 351 59 c 128
 307 72 267 90 230 114 c 128
 193 138 159 167 129 200 c 128
 99 233 73 271 53 311 c 1
 73 351 99 388 129 421 c 128
 159 454 193 483 230 507 c 128
 267 531 307 550 351 563 c 128
 395 576 440 583 488 583 c 1
702 438 m 1
 701 439 700 441 698 442 c 128
 695 444 696 443 693 445 c 1
 697 433 700 421 702 409 c 128
 704 397 706 383 706 370 c 0
 706 340 700 312 689 286 c 128
 678 260 662 236 642 216 c 128
 622 196 599 181 573 170 c 128
 547 159 518 153 488 153 c 256
 458 153 430 159 404 170 c 128
 378 181 354 196 334 216 c 128
 314 236 299 260 288 286 c 128
 277 312 271 340 271 370 c 0
 271 383 272 397 274 409 c 128
 276 421 279 433 283 445 c 1
 280 443 281 444 278 442 c 128
 276 441 275 439 274 438 c 0
 248 422 224 404 203 382 c 128
 182 360 162 337 146 311 c 1
 162 285 182 262 203 240 c 128
 224 218 248 199 274 183 c 0
 306 163 339 148 376 137 c 128
 413 126 450 120 488 120 c 256
 526 120 563 126 600 137 c 128
 637 148 670 163 702 183 c 0
 728 199 752 218 773 240 c 128
 794 262 814 285 830 311 c 1
 814 337 794 360 773 382 c 128
 752 404 728 422 702 438 c 1
488 392 m 1
 488 415 480 434 464 450 c 128
 448 466 430 474 407 474 c 256
 384 474 365 466 349 450 c 128
 333 434 325 415 325 392 c 256
 325 369 333 351 349 335 c 128
 365 319 384 311 407 311 c 256
 430 311 448 319 464 335 c 128
 480 351 488 369 488 392 c 1
EndSplineSet
EndChar

StartChar: uni2601
Encoding: 9729 9729 265
Width: 862
VWidth: 890
Flags: HW
LayerCount: 2
Fore
SplineSet
646 570 m 0
 692 570 732 556 764 528 c 128
 796 500 812 466 812 427 c 0
 812 388 796 355 764 327 c 128
 732 299 692 285 646 285 c 0
 627 285 608 288 589 294 c 1
 556 251 505 229 437 229 c 0
 393 229 355 240 322 261 c 128
 289 282 270 309 265 340 c 1
 255 339 245 338 236 338 c 0
 192 338 155 352 124 378 c 128
 93 404 77 436 77 473 c 256
 77 510 93 542 124 568 c 128
 155 594 192 608 236 608 c 0
 266 608 294 601 320 587 c 1
 339 615 356 635 373 648 c 0
 396 667 423 676 454 676 c 0
 491 676 527 665 562 643 c 0
 595 623 618 598 631 569 c 1
 637 570 642 570 646 570 c 0
179 246 m 1
 229 213 l 1
 180 138 l 1
 130 171 l 1
 179 246 l 1
92 98 m 1
 143 65 l 1
 94 -10 l 1
 43 23 l 1
 92 98 l 1
386 177 m 1
 437 144 l 1
 388 69 l 1
 337 102 l 1
 386 177 l 1
637 202 m 1
 687 169 l 1
 638 94 l 1
 588 126 l 1
 637 202 l 1
555 59 m 1
 605 27 l 1
 556 -49 l 1
 506 -16 l 1
 555 59 l 1
295 27 m 1
 346 -6 l 1
 297 -81 l 1
 246 -49 l 1
 295 27 l 1
EndSplineSet
EndChar

StartChar: uni2648
Encoding: 9800 9800 266
Width: 779
VWidth: 925
Flags: HW
LayerCount: 2
Fore
SplineSet
387 385 m 0
 358 385 335 398 317 424 c 0
 301 447 293 474 293 504 c 256
 293 534 301 561 317 584 c 0
 335 611 358 624 387 624 c 0
 415 624 438 611 456 584 c 0
 472 561 480 534 480 504 c 0
 480 475 472 448 456 425 c 0
 438 398 415 385 387 385 c 0
142 291 m 0
 116 291 94 305 77 334 c 0
 61 359 53 386 53 413 c 0
 53 439 59 461 71 479 c 0
 85 500 104 511 129 511 c 0
 156 511 178 497 195 468 c 0
 210 443 218 417 218 389 c 0
 218 364 212 342 200 323 c 0
 185 302 166 291 142 291 c 0
629 294 m 0
 605 294 586 305 572 327 c 0
 559 346 553 369 553 394 c 0
 553 435 566 469 592 495 c 0
 610 513 629 522 650 522 c 0
 675 522 694 511 708 489 c 0
 720 470 726 448 726 422 c 0
 726 381 713 347 688 321 c 0
 670 303 650 294 629 294 c 0
506 249 m 1
 563 218 591 177 591 124 c 0
 591 77 568 38 522 9 c 0
 482 -16 437 -29 387 -29 c 256
 337 -29 292 -16 252 9 c 0
 205 38 182 77 182 124 c 256
 182 171 206 211 255 242 c 1
 254 243 l 1
 254 270 269 292 299 307 c 0
 324 320 351 326 381 326 c 0
 409 326 435 320 459 308 c 0
 488 293 504 274 506 249 c 1
EndSplineSet
EndChar

StartChar: uni2649
Encoding: 9801 9801 267
Width: 1019
VWidth: 990
Flags: HW
LayerCount: 2
Fore
SplineSet
848 164 m 1
 846 159 844 154 840 148 c 1
 961 108 l 1
 938 41 l 1
 793 90 l 1
 723 24 630 -8 515 -8 c 0
 398 -8 303 25 233 93 c 1
 80 41 l 1
 58 108 l 1
 189 152 l 1
 186 158 183 162 182 164 c 2
 51 169 l 1
 53 240 l 1
 165 235 l 1
 165 240 l 2
 165 280 178 317 204 353 c 1
 195 419 191 477 191 526 c 0
 191 596 203 632 225 632 c 0
 261 632 326 581 423 479 c 1
 454 485 485 488 515 488 c 0
 543 488 572 485 602 480 c 1
 699 581 765 632 800 632 c 0
 822 632 833 596 833 526 c 0
 833 479 829 424 821 360 c 1
 850 323 865 283 865 240 c 2
 865 235 l 1
 965 240 l 1
 968 169 l 1
 848 164 l 1
354 210 m 256
 368 210 379 214 389 224 c 128
 399 234 404 246 404 260 c 256
 404 274 399 285 389 295 c 128
 379 305 368 309 354 309 c 256
 340 309 329 305 319 295 c 128
 309 285 305 274 305 260 c 256
 305 246 309 234 319 224 c 128
 329 214 340 210 354 210 c 256
676 210 m 256
 690 210 701 214 711 224 c 128
 721 234 725 246 725 260 c 256
 725 274 721 285 711 295 c 128
 701 305 690 309 676 309 c 256
 662 309 651 305 641 295 c 128
 631 285 626 274 626 260 c 256
 626 246 631 234 641 224 c 128
 651 214 662 210 676 210 c 256
EndSplineSet
EndChar

StartChar: uni264A
Encoding: 9802 9802 268
Width: 843
VWidth: 905
Flags: HW
LayerCount: 2
Fore
SplineSet
187 142 m 1
 160 158 133 183 104 218 c 128
 75 253 57 283 50 309 c 1
 152 276 l 1
 247 311 325 336 388 351 c 1
 335 388 309 438 309 500 c 0
 309 548 326 590 360 625 c 1
 329 630 307 639 292 651 c 0
 275 664 266 681 265 702 c 1
 322 705 l 1
 322 701 324 698 328 695 c 0
 347 680 389 674 456 679 c 0
 471 682 485 684 499 684 c 2
 499 684 499 684 500 684 c 128
 501 684 501 684 502 684 c 1
 554 683 598 665 634 629 c 128
 670 593 689 551 689 500 c 0
 689 499 689 499 689 490 c 1
 767 467 805 451 802 443 c 256
 799 435 754 425 667 413 c 1
 637 360 591 328 529 319 c 1
 560 300 575 272 575 236 c 0
 575 222 573 207 568 191 c 0
 556 149 531 117 494 95 c 0
 461 74 422 64 377 64 c 0
 357 64 337 66 317 71 c 1
 381 -20 l 1
 457 -21 l 1
 457 -78 l 1
 352 -78 l 1
 254 62 l 1
 282 81 l 1
 268 86 257 91 249 96 c 0
 245 99 239 103 232 108 c 1
 154 -15 l 1
 193 -55 l 1
 153 -95 l 1
 81 -23 l 1
 187 142 l 1
544 472 m 256
 557 472 567 476 576 485 c 128
 585 494 589 505 589 517 c 0
 589 530 585 540 576 549 c 128
 567 558 557 562 544 562 c 256
 531 562 521 558 512 549 c 128
 503 540 499 530 499 517 c 0
 499 505 503 494 512 485 c 128
 521 476 531 472 544 472 c 256
EndSplineSet
EndChar

StartChar: uni2603
Encoding: 9731 9731 269
Width: 832
VWidth: 905
Flags: HW
LayerCount: 2
Fore
SplineSet
787 208 m 1
 677 130 l 1
 688 110 693 89 692 67 c 0
 692 -6 651 -60 568 -95 c 1
 255 -95 l 1
 176 -63 137 -13 136 54 c 0
 136 82 141 107 152 130 c 1
 46 208 l 1
 82 256 l 1
 189 177 l 1
 198 184 205 189 212 192 c 1
 185 213 165 241 153 275 c 0
 148 289 145 304 144 320 c 0
 143 378 165 427 212 467 c 128
 259 507 317 528 386 532 c 1
 504 705 l 1
 673 649 l 1
 624 444 l 1
 655 409 670 368 670 322 c 0
 667 271 648 230 612 200 c 1
 626 190 635 183 640 178 c 1
 753 257 l 1
 787 208 l 1
269 336 m 0
 282 336 292 340 301 349 c 128
 310 358 314 368 314 380 c 256
 314 392 310 402 301 411 c 128
 292 420 282 424 269 424 c 0
 257 424 247 420 238 411 c 128
 229 402 225 392 225 380 c 256
 225 368 229 358 238 349 c 128
 247 340 257 336 269 336 c 0
477 225 m 1
 477 285 l 1
 334 285 l 1
 334 225 l 1
 477 225 l 1
521 331 m 0
 534 331 544 335 553 344 c 128
 562 353 566 363 566 375 c 256
 566 387 562 397 553 406 c 128
 544 415 534 419 521 419 c 0
 509 419 499 415 490 406 c 128
 481 397 477 387 477 375 c 256
 477 363 481 353 490 344 c 128
 499 335 509 331 521 331 c 0
EndSplineSet
EndChar

StartChar: uni2619
Encoding: 9753 9753 270
Width: 872
VWidth: 900
Flags: HW
LayerCount: 2
Fore
SplineSet
51 6 m 0
 48 6 46 8 46 12 c 0
 46 26 59 54 86 95 c 0
 116 141 149 180 184 211 c 0
 229 250 270 269 308 269 c 0
 327 269 346 264 363 254 c 1
 599 551 747 700 808 700 c 0
 823 700 830 692 830 676 c 0
 830 637 771 559 652 442 c 0
 581 372 497 297 402 216 c 1
 415 199 421 180 421 159 c 0
 421 122 401 81 360 37 c 0
 328 2 288 -30 241 -60 c 0
 200 -87 172 -100 158 -100 c 0
 155 -100 153 -99 153 -96 c 0
 153 -87 177 -57 225 -6 c 128
 273 45 297 76 297 89 c 0
 297 94 295 96 292 96 c 0
 285 96 254 71 199 22 c 128
 144 -27 111 -52 99 -52 c 0
 94 -52 92 -49 92 -44 c 0
 92 -31 118 5 171 62 c 0
 220 117 243 146 240 150 c 0
 238 152 235 153 232 153 c 0
 217 153 185 129 136 80 c 128
 87 31 59 6 51 6 c 0
EndSplineSet
EndChar

StartChar: uni261B
Encoding: 9755 9755 271
Width: 912
VWidth: -28
Flags: HW
LayerCount: 2
Fore
SplineSet
837 -73 m 128
 823 -87 809 -96 791 -99 c 128
 773 -102 754 -100 734 -91 c 128
 714 -82 695 -68 676 -48 c 2
 444 224 l 1
 410 208 374 203 335 210 c 128
 296 217 263 234 235 262 c 2
 58 440 l 2
 49 448 45 458 45 470 c 128
 45 482 49 492 58 501 c 128
 67 510 77 514 89 514 c 128
 101 514 111 510 119 501 c 2
 306 314 l 1
 326 319 345 327 364 338 c 1
 160 542 l 2
 151 551 147 560 147 572 c 128
 147 584 151 594 160 603 c 128
 169 612 179 616 191 616 c 128
 203 616 212 612 221 603 c 2
 426 399 l 1
 437 417 445 437 450 457 c 1
 263 644 l 2
 254 653 250 663 250 675 c 128
 250 687 254 697 262 705 c 128
 270 713 281 718 293 718 c 128
 305 718 314 714 323 705 c 2
 502 529 l 2
 530 501 546 467 553 428 c 128
 560 389 555 352 539 318 c 1
 811 88 l 2
 831 70 846 50 855 30 c 128
 864 10 866 -8 863 -26 c 128
 860 -44 851 -59 837 -73 c 128
EndSplineSet
EndChar

StartChar: uni2671
Encoding: 9841 9841 272
Width: 692
VWidth: 900
Flags: HW
LayerCount: 2
Fore
SplineSet
124 163 m 0
 169 107 227 78 300 75 c 0
 370 72 431 99 483 155 c 0
 527 202 548 258 546 322 c 0
 544 387 519 441 472 485 c 0
 437 517 397 532 350 531 c 0
 304 530 265 512 232 477 c 0
 209 452 198 423 199 390 c 0
 200 356 213 328 237 305 c 0
 252 290 272 283 295 283 c 0
 316 283 333 289 348 301 c 128
 363 313 371 329 370 349 c 0
 370 364 364 376 353 387 c 1
 344 400 340 410 340 418 c 0
 340 430 344 440 352 448 c 128
 360 456 370 460 382 460 c 0
 393 460 403 456 411 448 c 0
 419 436 426 425 432 414 c 0
 447 388 454 367 455 351 c 0
 456 314 444 281 417 252 c 0
 384 217 343 199 295 199 c 0
 250 199 212 214 180 244 c 0
 139 283 117 330 115 387 c 256
 113 444 131 493 170 534 c 0
 219 586 278 613 347 615 c 0
 417 617 478 594 530 546 c 0
 593 487 627 413 630 325 c 0
 633 236 605 160 545 97 c 0
 475 23 392 -12 297 -9 c 0
 199 -5 120 35 59 111 c 0
 52 122 49 131 49 137 c 0
 49 148 54 158 62 166 c 128
 70 174 80 179 91 179 c 0
 104 179 115 174 124 163 c 0
EndSplineSet
EndChar

StartChar: uni261A
Encoding: 9754 9754 273
Width: 799
VWidth: 900
Flags: HW
LayerCount: 2
Fore
SplineSet
719 175 m 2
 739 158 749 136 749 111 c 0
 749 85 738 63 717 45 c 2
 559 -84 l 2
 542 -98 523 -105 502 -105 c 0
 470 -105 446 -91 429 -62 c 2
 318 129 l 2
 313 137 311 146 311 156 c 0
 311 181 322 203 344 221 c 2
 376 247 l 1
 295 345 l 1
 272 340 254 345 241 361 c 2
 56 585 l 2
 49 594 45 605 45 617 c 0
 45 636 53 653 69 666 c 0
 82 677 96 682 111 682 c 0
 128 682 141 676 150 664 c 2
 335 440 l 2
 342 431 346 421 346 409 c 0
 346 400 344 391 340 383 c 1
 421 284 l 1
 452 309 l 2
 470 324 489 331 510 331 c 0
 526 331 539 327 549 318 c 2
 719 175 l 2
111 588 m 256
 128 588 136 596 136 613 c 0
 136 630 128 639 111 639 c 256
 94 639 86 630 86 613 c 0
 86 596 94 588 111 588 c 256
489 -32 m 0
 505 -32 513 -23 513 -4 c 0
 513 4 511 11 507 17 c 2
 396 172 l 2
 389 183 379 183 368 174 c 0
 357 165 355 155 362 144 c 2
 465 -18 l 2
 471 -27 479 -32 489 -32 c 0
569 37 m 0
 586 37 594 46 594 63 c 0
 594 71 591 78 586 84 c 2
 461 227 l 2
 452 237 443 237 432 228 c 0
 421 219 419 209 427 199 c 2
 544 49 l 2
 551 41 559 37 569 37 c 0
651 104 m 0
 669 104 678 112 678 129 c 0
 678 137 675 144 668 151 c 2
 530 282 l 2
 520 291 510 291 499 282 c 0
 488 273 487 263 496 254 c 2
 626 116 l 2
 633 108 641 104 651 104 c 0
EndSplineSet
EndChar

StartChar: uni25F6
Encoding: 9718 9718 274
Width: 1020
VWidth: 835
Flags: HW
LayerCount: 2
Fore
SplineSet
510 176 m 256
 528 176 546 180 562 187 c 128
 578 194 593 203 605 215 c 128
 617 227 627 242 634 258 c 128
 641 274 644 292 644 310 c 256
 644 328 641 346 634 362 c 128
 627 378 617 393 605 405 c 128
 593 417 578 426 562 433 c 128
 546 440 528 444 510 444 c 256
 492 444 474 440 458 433 c 128
 442 426 427 417 415 405 c 128
 403 393 394 378 387 362 c 128
 380 346 376 328 376 310 c 256
 376 292 380 274 387 258 c 128
 394 242 403 227 415 215 c 128
 427 203 442 194 458 187 c 128
 474 180 492 176 510 176 c 256
941 383 m 1
 947 382 953 380 957 376 c 128
 961 372 963 365 963 359 c 2
 963 261 l 2
 963 255 961 248 957 244 c 128
 953 240 947 238 941 237 c 2
 826 225 l 1
 818 198 808 172 793 147 c 1
 866 57 l 2
 870 52 873 47 873 41 c 128
 873 35 869 29 865 25 c 2
 795 -45 l 2
 791 -49 785 -52 778 -52 c 0
 772 -52 767 -50 763 -46 c 2
 674 27 l 1
 649 12 622 2 595 -6 c 1
 583 -121 l 2
 582 -127 580 -133 576 -137 c 128
 572 -141 566 -143 560 -143 c 2
 461 -143 l 2
 455 -143 449 -141 445 -137 c 128
 441 -133 438 -127 437 -121 c 2
 426 -6 l 1
 399 2 372 12 347 27 c 1
 257 -46 l 2
 252 -50 247 -52 242 -52 c 0
 235 -52 229 -49 225 -45 c 2
 155 25 l 2
 151 29 148 35 148 41 c 128
 148 47 150 52 154 57 c 2
 227 147 l 1
 212 172 202 198 194 225 c 1
 79 237 l 2
 73 238 67 240 63 244 c 128
 59 248 57 255 57 261 c 2
 57 359 l 2
 57 365 59 372 63 376 c 128
 67 380 73 382 79 383 c 2
 194 395 l 1
 202 422 212 448 227 473 c 1
 154 563 l 2
 150 568 148 573 148 579 c 128
 148 585 151 591 155 595 c 2
 225 665 l 2
 229 669 235 672 242 672 c 0
 247 672 252 670 257 666 c 2
 347 593 l 1
 372 608 399 618 426 626 c 1
 437 741 l 2
 438 747 441 753 445 757 c 128
 449 761 455 763 461 763 c 2
 560 763 l 2
 566 763 572 761 576 757 c 128
 580 753 582 747 583 741 c 2
 595 626 l 1
 622 618 649 608 674 593 c 1
 763 666 l 2
 767 670 772 672 778 672 c 0
 785 672 791 669 795 665 c 2
 865 595 l 2
 869 591 873 585 873 579 c 128
 873 573 870 568 866 563 c 2
 793 473 l 1
 808 448 818 422 826 395 c 1
 941 383 l 1
EndSplineSet
EndChar

StartChar: uni264B
Encoding: 9803 9803 275
Width: 1000
VWidth: 940
Flags: HW
LayerCount: 2
Fore
SplineSet
104 291 m 0
 104 304 96 330 82 368 c 128
 68 406 61 435 61 453 c 0
 61 464 64 470 70 472 c 0
 82 475 109 456 152 414 c 128
 195 372 219 351 226 350 c 0
 231 349 255 356 297 373 c 0
 355 396 401 412 434 422 c 0
 493 439 546 448 592 448 c 0
 656 448 724 438 795 417 c 0
 892 389 941 351 941 303 c 0
 941 254 890 216 788 189 c 0
 714 169 644 159 578 159 c 0
 520 159 464 167 409 184 c 0
 379 193 340 209 291 232 c 0
 256 249 234 257 226 257 c 0
 215 257 192 237 156 198 c 128
 120 159 96 139 83 139 c 0
 73 139 68 146 68 159 c 256
 68 172 74 195 86 228 c 128
 98 261 104 282 104 291 c 0
681 312 m 256
 681 299 686 287 695 278 c 128
 704 269 716 264 729 264 c 256
 742 264 753 269 762 278 c 128
 771 287 776 299 776 312 c 256
 776 325 771 337 762 346 c 128
 753 355 742 359 729 359 c 256
 716 359 704 355 695 346 c 128
 686 337 681 325 681 312 c 256
EndSplineSet
EndChar

StartChar: uni264C
Encoding: 9804 9804 276
Width: 977
VWidth: 930
Flags: HW
LayerCount: 2
Fore
SplineSet
923 361 m 1
 913 308 899 272 882 252 c 1
 885 152 851 77 780 27 c 0
 718 -16 634 -38 527 -38 c 0
 449 -38 377 -23 310 8 c 0
 225 47 182 100 182 169 c 0
 182 224 215 274 282 320 c 1
 281 325 264 345 229 380 c 1
 216 379 204 379 193 379 c 0
 102 379 53 398 46 435 c 1
 54 469 108 489 209 496 c 1
 225 559 264 601 325 620 c 0
 353 629 382 633 413 630 c 0
 452 627 485 608 511 572 c 0
 534 539 546 502 546 461 c 0
 546 408 526 367 485 340 c 1
 807 315 l 1
 804 320 l 1
 812 319 820 318 828 318 c 0
 863 318 894 332 923 361 c 1
380 437 m 0
 393 437 403 441 412 450 c 128
 421 459 426 470 426 483 c 256
 426 496 421 507 412 516 c 128
 403 525 393 530 380 530 c 0
 367 530 356 525 347 516 c 128
 338 507 334 496 334 483 c 256
 334 470 338 459 347 450 c 128
 356 441 367 437 380 437 c 0
EndSplineSet
EndChar

StartChar: uni2600
Encoding: 9728 9728 277
Width: 847
VWidth: 915
Flags: HW
LayerCount: 2
Fore
SplineSet
423 157 m 0
 381 157 346 172 316 202 c 128
 286 232 271 268 271 310 c 0
 271 353 286 389 315 419 c 128
 344 449 380 463 423 463 c 256
 466 463 502 449 532 419 c 128
 562 389 576 353 576 310 c 256
 576 267 562 231 532 201 c 128
 502 171 466 157 423 157 c 0
456 554 m 1
 384 554 l 1
 384 678 l 1
 456 678 l 1
 456 554 l 1
180 343 m 1
 180 271 l 1
 57 271 l 1
 57 343 l 1
 180 343 l 1
390 66 m 1
 463 66 l 1
 463 -58 l 1
 390 -58 l 1
 390 66 l 1
667 277 m 1
 667 350 l 1
 790 350 l 1
 790 277 l 1
 667 277 l 1
619 459 m 1
 568 511 l 1
 655 598 l 1
 706 547 l 1
 619 459 l 1
228 161 m 1
 279 110 l 1
 192 22 l 1
 141 73 l 1
 228 161 l 1
572 114 m 1
 623 165 l 1
 710 78 l 1
 659 26 l 1
 572 114 l 1
275 506 m 1
 224 455 l 1
 137 543 l 1
 188 594 l 1
 275 506 l 1
EndSplineSet
EndChar

StartChar: uni2602
Encoding: 9730 9730 278
Width: 964
VWidth: 905
Flags: HW
LayerCount: 2
Fore
SplineSet
596 614 m 1
 688 585 763 532 820 455 c 128
 877 378 905 292 905 195 c 0
 905 176 904 158 902 139 c 1
 889 170 868 194 841 212 c 128
 814 230 783 239 750 239 c 0
 697 239 654 218 621 177 c 1
 608 235 575 275 521 296 c 1
 452 10 l 1
 451 -22 440 -48 420 -69 c 128
 400 -90 375 -100 344 -100 c 0
 333 -100 320 -98 306 -95 c 0
 247 -81 217 -41 217 26 c 0
 217 37 218 47 220 56 c 0
 225 77 237 85 258 81 c 0
 272 78 280 66 283 43 c 0
 282 37 281 31 281 24 c 0
 281 -8 294 -27 320 -33 c 0
 365 -44 388 -28 389 15 c 1
 458 308 l 1
 403 308 358 286 325 242 c 1
 318 282 300 315 269 341 c 128
 238 367 203 379 162 379 c 0
 119 379 81 364 49 335 c 1
 79 424 132 496 208 551 c 128
 284 606 370 634 465 634 c 0
 488 634 511 632 534 629 c 1
 547 681 l 2
 551 698 560 706 574 706 c 0
 598 706 610 697 610 678 c 0
 610 675 610 671 609 667 c 2
 596 614 l 1
EndSplineSet
EndChar

StartChar: uni2607
Encoding: 9735 9735 279
Width: 935
VWidth: 905
Flags: HW
LayerCount: 2
Fore
SplineSet
460 682 m 2
 465 697 472 705 480 705 c 256
 488 705 495 697 500 681 c 2
 558 508 l 2
 563 492 574 479 590 467 c 128
 606 455 621 449 638 449 c 2
 825 446 l 2
 844 445 854 440 854 431 c 0
 854 424 848 416 837 407 c 2
 693 296 l 2
 670 279 659 254 659 223 c 0
 659 215 660 208 662 201 c 2
 714 27 l 2
 716 20 717 15 717 10 c 0
 717 -1 713 -6 705 -6 c 0
 699 -6 691 -2 682 5 c 2
 530 116 l 2
 517 126 500 131 481 131 c 256
 462 131 445 126 432 116 c 2
 280 5 l 2
 271 -2 263 -6 257 -6 c 0
 249 -6 245 -1 245 10 c 0
 245 15 246 21 247 27 c 2
 295 195 l 2
 297 202 298 209 298 217 c 0
 298 249 287 274 264 292 c 2
 123 406 l 2
 112 415 107 423 107 430 c 0
 107 441 117 446 137 447 c 2
 315 455 l 2
 332 456 349 461 365 473 c 128
 381 485 392 499 398 515 c 2
 460 682 l 2
201 621 m 1
 249 663 l 1
 324 578 l 1
 276 535 l 1
 201 621 l 1
718 659 m 1
 771 622 l 1
 705 528 l 1
 653 565 l 1
 718 659 l 1
887 197 m 1
 871 134 l 1
 761 163 l 1
 777 226 l 1
 887 197 l 1
75 141 m 1
 50 201 l 1
 155 245 l 1
 180 185 l 1
 75 141 l 1
518 -95 m 1
 454 -95 l 1
 454 12 l 1
 518 12 l 1
 518 -95 l 1
EndSplineSet
EndChar

StartChar: uni2618
Encoding: 9752 9752 280
Width: 923
VWidth: 900
Flags: HW
LayerCount: 2
Fore
SplineSet
144 193 m 0
 191 238 241 260 295 260 c 0
 323 260 347 253 367 240 c 1
 628 547 791 700 857 700 c 0
 873 700 881 692 881 675 c 0
 881 634 815 552 683 430 c 0
 604 357 511 278 405 195 c 1
 413 178 417 160 417 140 c 0
 417 83 393 32 344 -15 c 0
 318 -40 287 -60 251 -76 c 128
 215 -92 181 -100 150 -100 c 0
 117 -100 93 -91 76 -74 c 128
 59 -57 51 -33 51 -3 c 0
 51 28 60 62 77 99 c 128
 94 136 117 167 144 193 c 0
EndSplineSet
EndChar

StartChar: uni2652
Encoding: 9810 9810 281
Width: 743
VWidth: 900
Flags: HW
LayerCount: 2
Fore
SplineSet
367 535 m 0
 340 535 304 532 259 526 c 1
 149 596 97 638 104 652 c 0
 106 653 109 654 113 654 c 0
 138 654 184 637 249 603 c 1
 250 660 259 693 274 700 c 1
 280 699 287 696 296 690 c 0
 317 676 345 650 378 612 c 1
 432 666 471 694 496 697 c 1
 507 695 512 683 512 662 c 0
 512 646 509 625 502 600 c 1
 567 634 614 651 642 651 c 0
 646 651 649 651 650 650 c 128
 651 649 652 648 652 647 c 0
 652 630 597 591 487 528 c 1
 466 532 426 534 367 535 c 0
669 390 m 0
 678 375 683 354 683 326 c 0
 683 243 654 155 596 62 c 0
 531 -43 456 -97 373 -100 c 0
 314 -102 259 -77 208 -24 c 0
 164 21 128 79 99 152 c 0
 72 219 59 278 59 331 c 0
 59 353 62 371 67 384 c 0
 97 460 201 498 378 498 c 0
 454 498 513 491 555 477 c 0
 604 460 642 431 669 390 c 0
187 288 m 1
 208 317 219 340 219 357 c 0
 219 375 208 385 187 386 c 0
 166 385 155 375 155 357 c 0
 155 340 166 317 187 288 c 1
285 113 m 1
 298 140 305 162 305 178 c 0
 305 202 292 213 267 210 c 1
 250 205 241 196 241 182 c 0
 241 164 256 141 285 113 c 1
376 292 m 1
 397 321 408 344 408 361 c 0
 408 379 397 389 376 390 c 0
 355 389 344 379 344 361 c 0
 344 344 355 321 376 292 c 1
466 110 m 1
 493 139 507 162 507 179 c 0
 507 194 498 204 479 207 c 0
 455 209 443 199 443 177 c 0
 443 160 451 138 466 110 c 1
556 288 m 1
 577 317 588 340 588 357 c 0
 588 375 577 385 556 386 c 0
 535 385 524 375 524 357 c 0
 524 340 535 317 556 288 c 1
EndSplineSet
EndChar

StartChar: uni25DF
Encoding: 9695 9695 282
Width: 1022
VWidth: 1040
Flags: HW
HStem: 28 95<426.545 544.805 426.545 623.78> 742 96
VStem: 107 95<347.545 465.805 347.545 544.78> 821 96
LayerCount: 2
Fore
SplineSet
715 32 m 1
 234 513 l 1
 191 455 167 383 167 310 c 0
 167 120 322 -35 512 -35 c 0
 585 -35 657 -11 715 32 c 1
857 310 m 0
 857 500 702 655 512 655 c 0
 439 655 367 631 309 588 c 1
 790 107 l 1
 833 165 857 237 857 310 c 0
962 310 m 0
 962 62 760 -140 512 -140 c 0
 264 -140 62 62 62 310 c 0
 62 558 264 760 512 760 c 0
 760 760 962 558 962 310 c 0
EndSplineSet
EndChar

StartChar: uni2064
Encoding: 8292 8292 283
Width: 964
VWidth: 1000
Flags: HW
HStem: -1 14G<208.473 253.34 453.942 453.942 453.942 578.79 674.377 674.377 674.377 799.875> -1 162 303 125<149.625 190.266> 524 124
VStem: 150 163<57.4226 102.29> 453 125 674 125
LayerCount: 2
Fore
SplineSet
284 -14 m 0
 284 -73 236 -120 177 -120 c 0
 118 -120 71 -73 71 -14 c 0
 71 45 118 92 177 92 c 0
 236 92 284 45 284 -14 c 0
632 -120 m 1
 469 -120 l 1
 469 -14 427 86 352 161 c 0
 276 237 177 278 71 278 c 1
 71 441 l 1
 380 441 632 189 632 -120 c 1
921 -120 m 1
 757 -120 l 1
 757 259 449 567 71 567 c 1
 71 730 l 1
 539 730 921 348 921 -120 c 1
EndSplineSet
Validated: 1
EndChar

StartChar: uni2066
Encoding: 8294 8294 284
Width: 1035
VWidth: 1065
Flags: HW
HStem: 128 66<139.61 616.613 173.833 616.613 173.833 638.583> 482 67
VStem: 108 66<194.755 194.755 194.755 430.51> 616 66
LayerCount: 2
Fore
SplineSet
177 88 m 1
 858 88 l 1
 858 450 l 1
 537 183 l 1
 498 183 l 1
 177 450 l 1
 177 88 l 1
188 530 m 1
 518 255 l 1
 847 530 l 1
 188 530 l 1
143 632 m 2
 892 632 l 2
 930 632 960 602 960 564 c 2
 960 54 l 2
 960 16 930 -14 892 -14 c 2
 143 -14 l 2
 105 -14 75 16 75 54 c 2
 75 564 l 2
 75 602 105 632 143 632 c 2
EndSplineSet
EndChar

StartChar: uni2072
Encoding: 8306 8306 285
Width: 994
VWidth: 1000
Flags: HW
HStem: 51 5G<212 212 329 329> 281 5G<212 212 329 329>
VStem: 95 351<168.2 168.2>
LayerCount: 2
Fore
SplineSet
232 297 m 5
 439 89 l 5
 347 -3 l 5
 47 297 l 5
 347 597 l 5
 439 505 l 5
 232 297 l 5
647 597 m 5
 947 297 l 5
 647 -3 l 5
 555 89 l 5
 762 297 l 5
 555 505 l 5
 647 597 l 5
EndSplineSet
EndChar

StartChar: uni2674
Encoding: 9844 9844 286
Width: 864
VWidth: 1000
Flags: HW
HStem: 90 10G<204.773 204.773> 113 71 215 76 386 76<505.725 505.725 505.725 631.08> 492 71 577 10G<631.08 631.08>
VStem: 205 75<164.399 164.399 164.399 291.246> 556 75
LayerCount: 2
Fore
SplineSet
431 42 m 0
 557 42 662 140 672 265 c 1
 794 265 l 1
 784 72 624 -78 431 -78 c 0
 344 -78 260 -48 194 8 c 1
 66 -119 l 1
 66 225 l 1
 410 225 l 1
 280 95 l 1
 322 61 377 42 431 42 c 0
667 603 m 1
 794 731 l 1
 794 387 l 1
 450 387 l 1
 580 517 l 1
 538 551 485 569 431 569 c 0
 305 569 198 472 188 347 c 1
 67 347 l 1
 77 540 237 690 431 690 c 0
 517 690 601 659 667 603 c 1
EndSplineSet
Validated: 1
EndChar

StartChar: uni267E
Encoding: 9854 9854 287
Width: 1020
VWidth: 1025
Flags: HW
HStem: 118 51 259 61 409 51
VStem: 171 51
LayerCount: 2
Fore
SplineSet
633 116 m 1
 715 33 l 1
 643 -35 556 -79 455 -79 c 0
 234 -79 59 85 59 308 c 0
 59 521 235 691 446 691 c 0
 549 691 639 645 714 577 c 1
 633 495 l 1
 581 543 518 575 446 575 c 0
 292 575 174 453 174 300 c 0
 174 154 302 37 446 37 c 0
 518 37 581 68 633 116 c 1
761 510 m 1
 974 305 l 1
 761 102 l 1
 761 238 l 1
 443 238 l 1
 443 374 l 1
 761 374 l 1
 761 510 l 1
EndSplineSet
EndChar

StartChar: uni25A6
Encoding: 9638 9638 288
Width: 1052
VWidth: 975
Flags: HW
HStem: -116 97<217.2 379.2 217.2 476.4 670.8 832.8> 143 97<217.2 379.2 217.2 217.2 670.8 670.8 670.8 832.8> 337 97<217.2 379.2 217.2 476.4 670.8 832.8> 597 97<217.2 379.2 217.2 217.2 670.8 670.8 670.8 832.8>
VStem: 120 97<-18.99 -18.99 -18.99 143.01 434.61 596.61> 379 97<-18.99 143.01 143.01 143.01 434.61 596.61 596.61 596.61> 574 97<-18.99 -18.99 -18.99 143.01 434.61 596.61> 833 97<-18.99 143.01 143.01 143.01 434.61 596.61 596.61 596.61>
LayerCount: 2
Fore
SplineSet
183 -46 m 1
 363 -46 l 1
 363 134 l 1
 183 134 l 1
 183 -46 l 1
471 242 m 1
 471 -154 l 1
 75 -154 l 1
 75 242 l 1
 471 242 l 1
687 -46 m 1
 867 -46 l 1
 867 134 l 1
 687 134 l 1
 687 -46 l 1
975 242 m 1
 975 -154 l 1
 579 -154 l 1
 579 242 l 1
 975 242 l 1
183 458 m 1
 363 458 l 1
 363 638 l 1
 183 638 l 1
 183 458 l 1
471 746 m 1
 471 350 l 1
 75 350 l 1
 75 746 l 1
 471 746 l 1
687 458 m 1
 867 458 l 1
 867 638 l 1
 687 638 l 1
 687 458 l 1
975 746 m 1
 975 350 l 1
 579 350 l 1
 579 746 l 1
 975 746 l 1
EndSplineSet
EndChar

StartChar: uni2613
Encoding: 9747 9747 289
Width: 917
VWidth: -28
Flags: HW
LayerCount: 2
Fore
SplineSet
864 667 m 1
 659 463 l 1
 864 258 l 1
 864 244 859 232 849 222 c 128
 839 212 827 207 813 207 c 1
 352 207 l 2
 338 207 326 212 316 222 c 128
 306 232 301 244 301 258 c 2
 301 668 l 2
 301 682 306 694 316 704 c 128
 326 714 338 718 352 718 c 2
 813 718 l 1
 827 718 839 714 849 704 c 128
 859 694 864 682 864 668 c 2
 864 667 l 1
352 -49 m 128
 352 -63 347 -75 337 -85 c 128
 327 -95 315 -100 301 -100 c 2
 96 -100 l 2
 82 -100 70 -95 60 -85 c 128
 50 -75 45 -63 45 -49 c 128
 45 -35 50 -23 60 -13 c 128
 70 -3 82 2 96 2 c 2
 147 2 l 1
 147 668 l 2
 147 682 153 694 163 704 c 128
 173 714 185 718 199 718 c 128
 213 718 225 714 235 704 c 128
 245 694 250 682 250 668 c 2
 250 2 l 1
 301 2 l 2
 315 2 327 -3 337 -13 c 128
 347 -23 352 -35 352 -49 c 128
EndSplineSet
EndChar

StartChar: uni25E0
Encoding: 9696 9696 290
Width: 1021
VWidth: -61
Flags: HW
LayerCount: 2
Fore
SplineSet
511 -140 m 128
 450 -140 391 -128 335 -104 c 128
 279 -80 232 -48 192 -8 c 128
 152 32 120 79 96 135 c 128
 72 191 60 250 60 311 c 128
 60 372 72 430 96 485 c 128
 120 540 152 589 192 629 c 128
 232 669 279 701 335 725 c 128
 391 749 450 760 511 760 c 128
 572 760 630 749 686 725 c 128
 742 701 790 669 830 629 c 128
 870 589 901 540 925 485 c 128
 949 430 961 372 961 311 c 128
 961 250 949 191 925 135 c 128
 901 79 870 32 830 -8 c 128
 790 -48 742 -80 686 -104 c 128
 630 -128 572 -140 511 -140 c 128
706 35 m 1
 511 230 l 1
 315 35 l 1
 374 -7 439 -27 511 -27 c 128
 583 -27 647 -7 706 35 c 1
173 311 m 256
 173 239 193 174 234 116 c 1
 430 311 l 1
 235 506 l 1
 193 447 173 383 173 311 c 256
316 586 m 1
 511 392 l 1
 705 586 l 1
 646 628 582 648 511 648 c 128
 440 648 375 628 316 586 c 1
786 506 m 1
 592 311 l 1
 787 116 l 1
 828 174 848 239 848 311 c 256
 848 383 828 447 786 506 c 1
EndSplineSet
EndChar

StartChar: uni2634
Encoding: 9780 9780 291
Width: 909
VWidth: 72
Flags: HW
LayerCount: 2
Fore
SplineSet
762 156 m 6
 608 156 l 6
 586 156 587 156 572 171 c 132
 557 186 557 186 557 207 c 6
 557 617 l 6
 557 639 557 638 572 653 c 132
 587 668 586 668 608 668 c 5
 813 207 l 5
 813 186 813 186 798 171 c 132
 783 156 784 156 762 156 c 6
659 -100 m 6
 250 -100 l 6
 206 -100 206 -100 157 -65 c 132
 108 -30 109 -30 77 18 c 132
 45 66 45 67 45 105 c 5
 455 105 l 5
 455 694 l 6
 455 705 454 705 462 712 c 132
 470 719 470 719 480 719 c 132
 490 719 490 719 498 712 c 132
 506 705 506 705 506 694 c 6
 506 105 l 5
 864 105 l 5
 864 67 865 66 833 18 c 132
 801 -30 801 -30 752 -65 c 132
 703 -100 703 -100 659 -100 c 6
352 156 m 6
 147 156 l 6
 126 156 126 156 111 171 c 132
 96 186 96 186 96 207 c 5
 352 668 l 5
 374 668 374 668 389 653 c 132
 404 638 403 639 403 617 c 6
 403 207 l 6
 403 186 404 186 389 171 c 132
 374 156 374 156 352 156 c 6
EndSplineSet
EndChar

StartChar: uni25FE
Encoding: 9726 9726 292
Width: 706
VWidth: 914
Flags: HW
LayerCount: 2
Fore
SplineSet
667 734 m 1
 454 394 l 1
 634 354 l 1
 41 -106 l 1
 254 254 l 1
 74 294 l 1
 667 734 l 1
EndSplineSet
EndChar

StartChar: uni260E
Encoding: 9742 9742 293
Width: 852
VWidth: 899
Flags: HW
LayerCount: 2
Fore
SplineSet
392 752 m 1
 498 525 l 1
 466 494 l 1
 344 749 l 1
 392 752 l 1
297 736 m 1
 346 639 389 550 425 471 c 1
 397 448 368 431 340 421 c 128
 312 411 277 408 234 411 c 1
 228 260 293 147 430 73 c 1
 449 110 470 138 491 157 c 128
 512 176 541 193 577 208 c 1
 742 -35 l 1
 730 -54 707 -72 673 -88 c 0
 616 -119 559 -134 501 -131 c 128
 443 -128 388 -113 336 -83 c 128
 284 -53 238 -12 198 39 c 0
 173 72 151 104 133 135 c 0
 116 166 101 196 90 227 c 0
 73 273 62 319 58 365 c 128
 54 411 56 454 65 496 c 128
 74 538 91 577 117 613 c 128
 143 649 176 678 217 702 c 0
 248 720 275 731 297 736 c 1
664 236 m 1
 808 30 l 1
 781 -10 l 1
 621 223 l 1
 664 236 l 1
EndSplineSet
EndChar

StartChar: uni25F0
Encoding: 9712 9712 294
Width: 1002
VWidth: 899
Flags: HW
LayerCount: 2
Fore
SplineSet
501 750 m 128
 561 750 618 738 672 715 c 128
 726 692 773 661 812 622 c 128
 851 583 883 535 906 481 c 128
 929 427 941 371 941 311 c 128
 941 251 929 193 906 139 c 128
 883 85 851 38 812 -1 c 128
 773 -40 726 -72 672 -95 c 128
 618 -118 561 -130 501 -130 c 128
 441 -130 384 -118 330 -95 c 128
 276 -72 229 -40 190 -1 c 128
 151 38 119 85 96 139 c 128
 73 193 61 251 61 311 c 128
 61 371 73 427 96 481 c 128
 119 535 151 583 190 622 c 128
 229 661 276 692 330 715 c 128
 384 738 441 750 501 750 c 128
434 544 m 1
 434 377 l 1
 268 377 l 1
 268 244 l 1
 434 244 l 1
 434 77 l 1
 568 77 l 1
 568 244 l 1
 734 244 l 1
 734 377 l 1
 568 377 l 1
 568 544 l 1
 434 544 l 1
EndSplineSet
EndChar

StartChar: uni25F1
Encoding: 9713 9713 295
Width: 1003
VWidth: 899
Flags: HW
LayerCount: 2
Fore
SplineSet
502 749 m 128
 623 749 727 706 813 620 c 128
 899 534 942 430 942 309 c 128
 942 188 899 84 813 -2 c 128
 727 -88 623 -131 502 -131 c 128
 381 -131 277 -88 191 -2 c 128
 105 84 62 188 62 309 c 128
 62 430 105 534 191 620 c 128
 277 706 381 749 502 749 c 128
269 376 m 1
 269 242 l 1
 735 242 l 1
 735 376 l 1
 269 376 l 1
EndSplineSet
EndChar

StartChar: uni260C
Encoding: 9740 9740 296
Width: 843
VWidth: 914
Flags: HW
LayerCount: 2
Fore
SplineSet
357 734 m 2
 487 734 l 2
 497 734 505 731 512 724 c 128
 519 717 522 709 522 699 c 128
 522 689 519 681 512 674 c 128
 505 667 497 664 487 664 c 2
 482 664 l 1
 482 603 l 1
 568 588 639 547 696 480 c 128
 753 413 782 336 782 248 c 0
 782 183 766 122 734 67 c 128
 702 12 658 -32 603 -64 c 128
 548 -96 487 -112 422 -112 c 128
 357 -112 296 -96 241 -64 c 128
 186 -32 142 12 110 67 c 128
 78 122 62 183 62 248 c 0
 62 336 91 413 148 480 c 128
 205 547 276 588 362 603 c 1
 362 664 l 1
 357 664 l 2
 347 664 339 667 332 674 c 128
 325 681 322 689 322 699 c 128
 322 709 325 717 332 724 c 128
 339 731 347 734 357 734 c 2
422 534 m 128
 343 534 276 506 220 450 c 128
 164 394 136 327 136 248 c 128
 136 169 164 101 220 45 c 128
 276 -11 343 -39 422 -39 c 128
 501 -39 568 -11 624 45 c 128
 680 101 708 169 708 248 c 128
 708 327 680 394 624 450 c 128
 568 506 501 534 422 534 c 128
422 501 m 1
 455 453 l 1
 455 303 l 1
 530 369 l 1
 588 376 l 1
 573 320 l 1
 442 207 l 1
 422 207 l 1
 414 207 l 1
 410 207 l 2
 404 207 399 209 395 213 c 128
 391 217 389 222 389 227 c 2
 389 231 l 1
 389 239 l 1
 389 453 l 1
 422 501 l 1
EndSplineSet
EndChar

StartChar: uni2689
Encoding: 9865 9865 297
Width: 946
VWidth: 914
Flags: HW
LayerCount: 2
Fore
SplineSet
744 732 m 128
 787 732 824 716 854 686 c 128
 884 656 899 619 899 576 c 128
 899 533 884 496 854 466 c 2
 713 325 l 2
 690 302 662 288 630 282 c 128
 598 276 568 279 539 292 c 1
 490 244 l 1
 503 215 506 185 501 153 c 128
 496 121 481 93 458 70 c 2
 317 -71 l 2
 286 -102 249 -117 206 -117 c 128
 163 -117 126 -102 96 -72 c 128
 66 -42 51 -4 51 39 c 128
 51 82 66 119 96 149 c 2
 237 291 l 2
 260 314 288 328 320 334 c 128
 352 340 382 336 411 323 c 1
 460 372 l 1
 447 400 444 430 449 462 c 128
 454 494 469 522 492 545 c 2
 633 687 l 2
 664 717 701 732 744 732 c 128
744 661 m 128
 721 661 701 653 684 636 c 2
 543 494 l 2
 525 476 517 455 518 430 c 1
 584 496 l 2
 595 507 608 512 624 512 c 128
 640 512 652 507 663 496 c 128
 674 485 679 472 679 456 c 128
 679 440 674 427 663 416 c 2
 597 351 l 1
 622 349 644 357 662 375 c 2
 803 517 l 2
 820 534 828 553 828 576 c 128
 828 599 820 619 803 636 c 128
 786 653 767 661 744 661 c 128
348 265 m 0
 325 265 305 257 288 240 c 2
 147 98 l 2
 130 81 122 61 122 38 c 128
 122 15 130 -4 147 -21 c 128
 164 -38 183 -46 206 -46 c 128
 229 -46 249 -38 266 -21 c 2
 407 121 l 2
 425 139 433 160 432 185 c 1
 366 120 l 2
 355 109 342 103 326 103 c 128
 310 103 298 109 287 120 c 128
 276 131 271 144 271 160 c 128
 271 176 276 188 287 199 c 2
 353 264 l 2
 350 265 349 265 348 265 c 0
EndSplineSet
EndChar

StartChar: uni2611
Encoding: 9745 9745 298
Width: 1033
VWidth: 899
Flags: HW
LayerCount: 2
Fore
SplineSet
176 749 m 2
 856 749 l 2
 884 749 908 739 927 720 c 128
 946 701 956 677 956 649 c 2
 956 -31 l 2
 956 -59 946 -83 927 -102 c 128
 908 -121 884 -131 856 -131 c 2
 176 -131 l 2
 148 -131 124 -121 105 -102 c 128
 86 -83 76 -59 76 -31 c 2
 76 649 l 2
 76 677 86 701 105 720 c 128
 124 739 148 749 176 749 c 2
776 628 m 1
 698 555 632 488 576 425 c 128
 520 362 474 295 438 225 c 1
 422 240 404 256 385 273 c 128
 366 290 344 309 320 331 c 128
 296 353 279 368 270 375 c 1
 205 264 l 1
 218 252 235 237 258 217 c 128
 281 197 299 181 312 170 c 128
 325 159 340 144 358 127 c 128
 376 110 391 92 406 74 c 2
 478 -14 l 1
 519 90 l 2
 552 174 594 250 645 319 c 128
 696 388 760 458 836 528 c 1
 776 628 l 1
EndSplineSet
EndChar

StartChar: uni2612
Encoding: 9746 9746 299
Width: 1033
VWidth: 899
Flags: HW
LayerCount: 2
Fore
SplineSet
176 749 m 2
 856 749 l 2
 884 749 908 739 927 720 c 128
 946 701 956 677 956 649 c 2
 956 -31 l 2
 956 -59 946 -83 927 -102 c 128
 908 -121 884 -131 856 -131 c 2
 176 -131 l 2
 148 -131 124 -121 105 -102 c 128
 86 -83 76 -59 76 -31 c 2
 76 649 l 2
 76 677 86 701 105 720 c 128
 124 739 148 749 176 749 c 2
297 627 m 1
 198 528 l 1
 417 309 l 1
 198 90 l 1
 297 -9 l 1
 516 210 l 1
 735 -9 l 1
 834 90 l 1
 615 309 l 1
 834 528 l 1
 735 627 l 1
 516 408 l 1
 297 627 l 1
EndSplineSet
EndChar

StartChar: uni2614
Encoding: 9748 9748 300
Width: 911
VWidth: -10
Flags: HW
LayerCount: 2
Fore
SplineSet
813 361 m 2
 352 105 l 1
 338 105 326 110 316 120 c 128
 306 130 301 142 301 156 c 2
 301 667 l 2
 301 681 306 694 316 704 c 128
 326 714 338 718 352 718 c 1
 813 463 l 2
 814 462 815 462 817 461 c 0
 824 458 830 454 834 452 c 128
 838 450 843 447 848 443 c 128
 853 439 857 434 860 429 c 128
 863 424 864 418 864 412 c 0
 864 405 863 399 860 394 c 128
 857 389 853 383 847 379 c 128
 841 375 837 371 832 369 c 128
 827 367 821 364 813 361 c 2
352 -49 m 128
 352 -63 347 -75 337 -85 c 128
 327 -95 315 -100 301 -100 c 2
 96 -100 l 2
 82 -100 70 -95 60 -85 c 128
 50 -75 45 -63 45 -49 c 128
 45 -35 50 -23 60 -13 c 128
 70 -3 82 2 96 2 c 2
 147 2 l 1
 147 667 l 2
 147 681 152 694 162 704 c 128
 172 714 185 718 199 718 c 128
 213 718 225 714 235 704 c 128
 245 694 250 681 250 667 c 2
 250 2 l 1
 301 2 l 2
 315 2 327 -3 337 -13 c 128
 347 -23 352 -35 352 -49 c 128
EndSplineSet
EndChar

StartChar: uni2688
Encoding: 9864 9864 301
Width: 968
VWidth: 899
Flags: HW
LayerCount: 2
Fore
SplineSet
835 655 m 128
 890 600 917 535 917 457 c 128
 917 379 890 312 835 257 c 0
 785 207 725 179 654 175 c 128
 583 171 521 190 466 232 c 1
 424 190 l 1
 425 181 425 173 424 165 c 0
 424 136 412 109 389 86 c 2
 208 -95 l 2
 187 -116 164 -127 137 -129 c 128
 110 -131 88 -124 71 -107 c 128
 54 -90 46 -69 49 -42 c 128
 52 -15 63 9 84 30 c 2
 265 210 l 2
 292 237 322 249 356 245 c 0
 360 245 364 245 367 244 c 1
 411 287 l 1
 369 342 350 405 355 475 c 128
 360 545 388 605 437 655 c 0
 492 710 558 737 636 737 c 128
 714 737 780 710 835 655 c 128
777 597 m 128
 738 636 691 655 636 655 c 128
 581 655 534 636 495 597 c 128
 456 558 437 512 437 457 c 128
 437 402 456 354 495 315 c 128
 534 276 581 257 636 257 c 128
 691 257 738 276 777 315 c 128
 816 354 835 402 835 457 c 128
 835 512 816 558 777 597 c 128
EndSplineSet
EndChar

StartChar: uni2680
Encoding: 9856 9856 302
Width: 967
VWidth: 930
Flags: HW
LayerCount: 2
Fore
SplineSet
908 304 m 256
 908 187 866 87 783 4 c 128
 700 -79 600 -120 483 -120 c 256
 366 -120 266 -79 183 4 c 128
 100 87 59 187 59 304 c 0
 59 420 101 521 184 604 c 128
 267 687 367 729 483 729 c 0
 600 729 700 688 783 605 c 128
 866 522 908 421 908 304 c 256
847 303 m 0
 847 404 812 491 741 562 c 128
 670 633 584 669 483 669 c 256
 382 669 296 633 225 562 c 128
 154 491 118 404 118 303 c 0
 118 203 155 117 226 46 c 128
 297 -25 383 -60 483 -60 c 256
 583 -60 669 -25 740 46 c 128
 811 117 847 203 847 303 c 0
755 136 m 1
 209 136 l 1
 483 537 l 1
 755 136 l 1
643 196 m 1
 607 250 553 328 480 432 c 1
 320 196 l 1
 643 196 l 1
EndSplineSet
EndChar

StartChar: uni2681
Encoding: 9857 9857 303
Width: 967
VWidth: 930
Flags: HW
LayerCount: 2
Fore
SplineSet
908 304 m 256
 908 187 866 87 783 4 c 128
 700 -79 600 -120 483 -120 c 256
 366 -120 266 -79 183 4 c 128
 100 87 59 187 59 304 c 0
 59 420 101 521 184 604 c 128
 267 687 367 729 483 729 c 0
 600 729 700 688 783 605 c 128
 866 522 908 421 908 304 c 256
847 303 m 0
 847 404 812 491 741 562 c 128
 670 633 584 669 483 669 c 256
 382 669 296 633 225 562 c 128
 154 491 118 404 118 303 c 0
 118 203 155 117 226 46 c 128
 297 -25 383 -60 483 -60 c 256
 583 -60 669 -25 740 46 c 128
 811 117 847 203 847 303 c 0
755 136 m 1
 209 136 l 1
 483 537 l 1
 755 136 l 1
EndSplineSet
EndChar

StartChar: uni2682
Encoding: 9858 9858 304
Width: 967
VWidth: 930
Flags: HW
LayerCount: 2
Fore
SplineSet
908 304 m 256
 908 187 866 87 783 4 c 128
 700 -79 600 -120 483 -120 c 256
 366 -120 266 -79 183 4 c 128
 100 87 59 187 59 304 c 0
 59 420 101 521 184 604 c 128
 267 687 367 729 483 729 c 0
 600 729 700 688 783 605 c 128
 866 522 908 421 908 304 c 256
755 136 m 1
 483 537 l 1
 209 136 l 1
 755 136 l 1
EndSplineSet
EndChar

StartChar: uni2683
Encoding: 9859 9859 305
Width: 970
VWidth: 930
Flags: HW
LayerCount: 2
Fore
SplineSet
910 305 m 256
 910 188 868 88 785 5 c 128
 702 -78 602 -120 485 -120 c 256
 368 -120 268 -78 185 5 c 128
 102 88 61 188 61 305 c 0
 61 421 103 522 186 605 c 128
 269 688 369 730 485 730 c 0
 602 730 702 688 785 605 c 128
 868 522 910 422 910 305 c 256
849 303 m 0
 849 404 814 491 743 562 c 128
 672 633 586 670 485 670 c 256
 384 670 298 633 227 562 c 128
 156 491 120 404 120 303 c 0
 120 203 157 118 228 47 c 128
 299 -24 385 -60 485 -60 c 256
 585 -60 671 -24 742 47 c 128
 813 118 849 203 849 303 c 0
718 155 m 1
 632 69 l 1
 485 217 l 1
 336 69 l 1
 250 155 l 1
 397 302 l 1
 250 452 l 1
 336 537 l 1
 482 390 l 1
 632 537 l 1
 718 452 l 1
 570 305 l 1
 718 155 l 1
EndSplineSet
Validated: 1
EndChar

StartChar: uni2684
Encoding: 9860 9860 306
Width: 970
VWidth: 930
Flags: HW
LayerCount: 2
Fore
SplineSet
910 305 m 256
 910 188 868 88 785 5 c 128
 702 -78 602 -120 485 -120 c 256
 368 -120 268 -78 185 5 c 128
 102 88 61 188 61 305 c 0
 61 421 103 522 186 605 c 128
 269 688 369 730 485 730 c 0
 602 730 702 688 785 605 c 128
 868 522 910 422 910 305 c 256
718 155 m 1
 570 305 l 1
 718 452 l 1
 632 537 l 1
 482 390 l 1
 336 537 l 1
 250 452 l 1
 397 302 l 1
 250 155 l 1
 336 69 l 1
 485 217 l 1
 632 69 l 1
 718 155 l 1
EndSplineSet
Validated: 1
EndChar

StartChar: uni2685
Encoding: 9861 9861 307
Width: 970
VWidth: 930
Flags: HW
LayerCount: 2
Fore
SplineSet
910 305 m 256
 910 188 868 88 785 5 c 128
 702 -78 602 -120 485 -120 c 256
 368 -120 268 -78 185 5 c 128
 102 88 61 188 61 305 c 0
 61 421 103 522 186 605 c 128
 269 688 369 730 485 730 c 0
 602 730 702 688 785 605 c 128
 868 522 910 422 910 305 c 256
849 303 m 0
 849 404 814 491 743 562 c 128
 672 633 586 670 485 670 c 256
 384 670 298 633 227 562 c 128
 156 491 120 404 120 303 c 0
 120 203 157 118 228 47 c 128
 299 -24 385 -60 485 -60 c 256
 585 -60 671 -24 742 47 c 128
 813 118 849 203 849 303 c 0
753 268 m 1
 598 268 l 1
 598 40 l 1
 373 40 l 1
 373 268 l 1
 217 268 l 1
 485 606 l 1
 753 268 l 1
EndSplineSet
Validated: 1
EndChar

StartChar: uni2686
Encoding: 9862 9862 308
Width: 970
VWidth: 930
Flags: HW
LayerCount: 2
Fore
SplineSet
910 305 m 256
 910 188 868 88 785 5 c 128
 702 -78 602 -120 485 -120 c 256
 368 -120 268 -78 185 5 c 128
 102 88 61 188 61 305 c 0
 61 421 103 522 186 605 c 128
 269 688 369 730 485 730 c 0
 602 730 702 688 785 605 c 128
 868 522 910 422 910 305 c 256
753 268 m 1
 485 606 l 1
 217 268 l 1
 373 268 l 1
 373 40 l 1
 598 40 l 1
 598 268 l 1
 753 268 l 1
EndSplineSet
Validated: 1
EndChar

StartChar: uni2693
Encoding: 9875 9875 309
Width: 942
VWidth: -28
Flags: HW
LayerCount: 2
Fore
SplineSet
472 -100 m 128
 417 -100 363 -90 312 -68 c 128
 261 -46 219 -17 182 20 c 128
 145 57 116 99 94 150 c 128
 72 201 62 255 62 310 c 128
 62 365 72 418 94 469 c 128
 116 520 145 563 182 600 c 128
 219 637 261 665 312 687 c 128
 363 709 417 719 472 719 c 128
 527 719 580 709 631 687 c 128
 682 665 725 637 762 600 c 128
 799 563 827 520 849 469 c 128
 871 418 881 365 881 310 c 128
 881 255 871 201 849 150 c 128
 827 99 799 57 762 20 c 128
 725 -17 682 -46 631 -68 c 128
 580 -90 527 -100 472 -100 c 128
755 528 m 1
 718 576 672 613 615 638 c 1
 472 566 l 1
 328 638 l 1
 271 613 225 576 188 528 c 1
 216 514 l 1
 216 361 l 1
 115 285 l 1
 119 219 140 159 178 105 c 1
 318 105 l 1
 369 -23 l 1
 369 -34 l 1
 403 -44 437 -49 472 -49 c 128
 507 -49 540 -44 574 -34 c 1
 574 -23 l 1
 625 105 l 1
 765 105 l 1
 803 159 824 219 828 285 c 1
 728 361 l 1
 728 514 l 1
 755 528 l 1
392 208 m 1
 344 350 l 1
 472 438 l 1
 600 350 l 1
 551 208 l 1
 392 208 l 1
EndSplineSet
EndChar

StartChar: uni2694
Encoding: 9876 9876 310
Width: 943
VWidth: -28
Flags: HW
LayerCount: 2
Fore
SplineSet
472 -100 m 128
 398 -100 329 -82 266 -45 c 128
 203 -8 154 41 117 104 c 128
 80 167 62 236 62 310 c 128
 62 384 80 452 117 515 c 128
 154 578 203 627 266 664 c 128
 329 701 398 719 472 719 c 128
 546 719 614 701 677 664 c 128
 740 627 789 578 826 515 c 128
 863 452 881 384 881 310 c 128
 881 236 863 167 826 104 c 128
 789 41 740 -8 677 -45 c 128
 614 -82 546 -100 472 -100 c 128
472 668 m 128
 423 668 376 659 332 640 c 128
 288 621 250 595 218 563 c 128
 186 531 161 493 142 449 c 128
 123 405 113 359 113 310 c 128
 113 261 123 214 142 170 c 128
 161 126 186 88 218 56 c 128
 250 24 288 -1 332 -20 c 128
 376 -39 423 -49 472 -49 c 128
 521 -49 567 -39 611 -20 c 128
 655 -1 693 24 725 56 c 128
 757 88 783 126 802 170 c 128
 821 214 830 261 830 310 c 128
 830 359 821 405 802 449 c 128
 783 493 757 531 725 563 c 128
 693 595 655 621 611 640 c 128
 567 659 521 668 472 668 c 128
622 102 m 1
 570 278 l 1
 715 389 l 1
 724 363 728 337 728 310 c 0
 728 268 718 229 699 193 c 128
 680 157 655 126 622 102 c 1
532 394 m 1
 472 566 l 1
 528 566 578 549 623 516 c 128
 668 483 698 441 715 389 c 1
 532 394 l 1
228 389 m 1
 245 441 275 483 320 516 c 128
 365 549 416 566 472 566 c 1
 411 394 l 1
 228 389 l 1
373 278 m 1
 321 102 l 1
 288 126 263 157 244 193 c 128
 225 229 216 268 216 310 c 0
 216 337 219 363 228 389 c 1
 373 278 l 1
472 206 m 1
 622 102 l 1
 577 69 527 54 472 54 c 128
 417 54 366 69 321 102 c 1
 472 206 l 1
EndSplineSet
EndChar

StartChar: uni25A2
Encoding: 9634 9634 311
Width: 904
VWidth: 912
Flags: HW
LayerCount: 2
Fore
SplineSet
77 -88 m 1
 77 712 l 1
 827 712 l 1
 827 -88 l 1
 77 -88 l 1
202 37 m 1
 702 37 l 1
 702 587 l 1
 202 587 l 1
 202 37 l 1
EndSplineSet
EndChar

StartChar: uni2654
Encoding: 9812 9812 312
Width: 815
VWidth: 795
Flags: HW
LayerCount: 2
Fore
SplineSet
653 279 m 1
 654 246 660 218 672 196 c 128
 684 174 698 155 712 141 c 128
 726 127 740 118 752 112 c 128
 764 106 770 103 771 103 c 1
 770 101 765 87 756 62 c 128
 747 37 731 10 710 -21 c 0
 692 -48 673 -73 653 -95 c 128
 633 -117 607 -128 577 -129 c 0
 548 -130 525 -124 508 -112 c 128
 491 -100 466 -94 433 -94 c 256
 400 -94 375 -100 358 -111 c 128
 341 -122 318 -128 290 -129 c 0
 262 -130 236 -119 214 -95 c 128
 192 -71 172 -46 154 -19 c 0
 135 8 118 39 103 76 c 128
 88 113 76 151 69 191 c 128
 62 231 60 270 64 310 c 128
 68 350 79 387 98 420 c 0
 117 453 143 478 175 498 c 128
 207 518 242 528 279 529 c 0
 307 530 333 523 358 510 c 128
 383 497 404 490 422 490 c 0
 439 490 463 498 493 513 c 128
 523 528 555 533 589 530 c 0
 603 529 627 525 660 515 c 128
 693 505 722 481 748 444 c 1
 746 443 729 429 699 402 c 128
 669 375 653 334 653 279 c 1
545 602 m 1
 530 584 510 568 487 556 c 128
 464 544 439 538 415 540 c 1
 412 565 415 590 425 614 c 128
 435 638 447 659 461 675 c 0
 477 694 497 709 521 721 c 128
 545 733 568 740 590 741 c 1
 593 715 589 690 580 666 c 128
 571 642 560 621 545 602 c 1
EndSplineSet
EndChar

StartChar: uni2615
Encoding: 9749 9749 313
Width: 784
VWidth: 889
Flags: HW
LayerCount: 2
Fore
SplineSet
161 699 m 128
 161 684 156 671 145 660 c 128
 134 649 122 644 107 644 c 128
 92 644 80 649 69 660 c 128
 58 671 53 684 53 699 c 128
 53 714 58 726 69 737 c 128
 80 748 92 753 107 753 c 128
 122 753 134 748 145 737 c 128
 156 726 161 714 161 699 c 128
189 586 m 1
 226 617 267 634 312 635 c 128
 357 636 407 619 462 586 c 0
 485 574 507 565 526 558 c 128
 545 551 566 547 588 544 c 128
 610 541 631 544 652 551 c 128
 673 558 694 569 715 586 c 1
 715 222 l 1
 646 171 562 171 462 222 c 0
 459 223 450 227 436 232 c 128
 422 237 411 241 406 243 c 128
 401 245 392 247 379 251 c 128
 366 255 355 258 348 259 c 128
 341 260 332 261 319 263 c 128
 306 265 295 264 286 262 c 128
 277 260 268 257 256 255 c 128
 244 253 233 249 222 243 c 128
 211 237 200 230 189 222 c 1
 189 586 l 1
107 607 m 128
 116 607 124 604 130 598 c 128
 136 592 139 584 139 575 c 2
 139 -110 l 2
 139 -119 136 -127 130 -133 c 128
 124 -139 116 -142 107 -142 c 128
 98 -142 91 -139 85 -133 c 128
 79 -127 76 -119 76 -110 c 2
 76 575 l 2
 76 584 79 592 85 598 c 128
 91 604 98 607 107 607 c 128
EndSplineSet
EndChar

StartChar: uni266D
Encoding: 9837 9837 314
Width: 950
VWidth: 884
Flags: HW
LayerCount: 2
Fore
SplineSet
296 257 m 1
 303 257 309 254 314 249 c 128
 319 244 322 238 322 231 c 2
 322 -76 l 2
 322 -83 319 -89 314 -94 c 128
 309 -99 303 -102 296 -102 c 2
 245 -102 l 1
 245 257 l 1
 296 257 l 1
655 257 m 1
 706 257 l 1
 706 -102 l 1
 655 -102 l 2
 648 -102 642 -99 637 -94 c 128
 632 -89 629 -83 629 -76 c 2
 629 231 l 2
 629 238 632 244 637 249 c 128
 642 254 648 257 655 257 c 1
885 308 m 1
 885 283 883 259 879 236 c 128
 875 213 868 190 860 168 c 1
 868 155 875 140 879 125 c 128
 883 110 885 95 885 78 c 0
 885 56 882 34 874 14 c 128
 866 -6 855 -24 841 -40 c 128
 827 -56 811 -70 792 -80 c 128
 773 -90 754 -97 732 -100 c 1
 732 255 l 1
 745 253 756 250 768 246 c 128
 780 242 791 236 802 229 c 1
 804 240 806 251 807 262 c 128
 808 273 808 284 808 295 c 0
 808 341 799 384 782 425 c 128
 765 466 741 501 711 531 c 128
 681 561 646 585 605 602 c 128
 564 619 522 628 476 628 c 256
 430 628 387 619 346 602 c 128
 305 585 270 561 240 531 c 128
 210 501 186 466 169 425 c 128
 152 384 143 341 143 295 c 0
 143 284 143 273 144 262 c 128
 145 251 147 240 149 229 c 1
 160 236 171 242 183 246 c 128
 195 250 207 253 220 255 c 1
 220 -100 l 1
 198 -97 178 -90 159 -80 c 128
 140 -70 124 -56 110 -40 c 128
 96 -24 86 -6 78 14 c 128
 70 34 66 56 66 78 c 0
 66 95 68 110 72 125 c 128
 76 140 83 155 91 168 c 1
 83 190 76 213 72 236 c 128
 68 259 66 283 66 308 c 0
 66 365 77 418 98 468 c 128
 119 518 149 561 186 598 c 128
 223 635 266 665 316 686 c 128
 366 707 419 718 476 718 c 256
 533 718 585 707 635 686 c 128
 685 665 729 635 766 598 c 128
 803 561 832 518 853 468 c 128
 874 418 885 365 885 308 c 1
EndSplineSet
EndChar

StartChar: uni2065
Encoding: 8293 8293 315
Width: 984
Flags: HW
LayerCount: 2
Fore
SplineSet
492 269 m 1
 529 269 563 262 596 248 c 128
 629 234 658 215 682 190 c 1
 618 127 l 1
 602 143 583 156 561 165 c 128
 539 174 517 179 492 179 c 256
 467 179 444 174 422 165 c 128
 400 156 381 143 365 127 c 1
 302 190 l 1
 326 215 355 234 388 248 c 128
 421 262 455 269 492 269 c 1
175 317 m 1
 196 338 219 357 243 373 c 128
 267 389 293 403 320 414 c 128
 347 425 375 433 404 439 c 128
 433 445 462 448 492 448 c 256
 522 448 551 445 580 439 c 128
 609 433 637 425 664 414 c 128
 691 403 716 389 740 373 c 128
 764 357 788 338 809 317 c 1
 745 253 l 1
 728 270 711 285 691 298 c 128
 671 311 650 322 629 331 c 128
 608 340 585 346 562 351 c 128
 539 356 516 358 492 358 c 256
 468 358 444 356 421 351 c 128
 398 346 376 340 355 331 c 128
 334 322 313 311 293 298 c 128
 273 285 255 270 238 253 c 1
 175 317 l 1
736 578 m 1
 755 570 773 562 791 552 c 128
 809 542 825 531 842 520 c 128
 859 509 874 497 890 484 c 128
 906 471 922 458 936 444 c 1
 872 380 l 1
 847 405 819 427 790 447 c 128
 761 467 730 483 698 497 c 128
 666 511 633 520 598 527 c 128
 563 534 528 538 492 538 c 256
 456 538 421 534 386 527 c 128
 351 520 318 511 286 497 c 128
 254 483 223 467 194 447 c 128
 165 427 137 405 112 380 c 1
 48 444 l 1
 62 458 77 471 93 484 c 128
 109 497 124 509 141 520 c 128
 158 531 175 542 193 552 c 128
 211 562 229 570 248 578 c 0
 268 586 287 593 307 599 c 128
 327 605 347 611 367 615 c 128
 387 619 408 622 429 624 c 128
 450 626 471 627 492 627 c 256
 513 627 534 626 555 624 c 128
 576 622 597 619 617 615 c 128
 637 611 657 605 677 599 c 128
 697 593 716 586 736 578 c 1
447 45 m 1
 447 58 451 68 460 77 c 128
 469 86 479 90 492 90 c 256
 505 90 515 86 524 77 c 128
 533 68 537 58 537 45 c 256
 537 32 533 22 524 13 c 128
 515 4 505 0 492 0 c 256
 479 0 469 4 460 13 c 128
 451 22 447 32 447 45 c 1
EndSplineSet
Validated: 1
EndChar

StartChar: uni2073
Encoding: 8307 8307 316
Width: 1047
VWidth: 924
Flags: HW
LayerCount: 2
Fore
SplineSet
409 303 m 1
 409 335 420 363 442 385 c 128
 464 407 492 418 524 418 c 256
 556 418 583 407 605 385 c 128
 627 363 639 335 639 303 c 256
 639 271 627 244 605 222 c 128
 583 200 556 188 524 188 c 256
 492 188 464 200 442 222 c 128
 420 244 409 271 409 303 c 1
661 556 m 1
 684 544 704 530 723 512 c 128
 742 494 757 475 770 453 c 128
 783 431 794 407 801 382 c 128
 808 357 812 331 812 303 c 256
 812 275 808 249 801 224 c 128
 794 199 783 176 770 154 c 128
 757 132 742 113 723 95 c 128
 704 77 684 62 661 50 c 1
 681 81 696 119 708 163 c 128
 720 207 725 253 725 303 c 256
 725 353 720 400 708 444 c 128
 696 488 681 525 661 556 c 1
322 303 m 1
 322 253 328 207 340 163 c 128
 352 119 367 81 387 50 c 1
 364 62 344 77 325 95 c 128
 306 113 290 132 277 154 c 128
 264 176 254 199 247 224 c 128
 240 249 236 275 236 303 c 256
 236 331 240 357 247 382 c 128
 254 407 264 431 277 453 c 128
 290 475 306 494 325 512 c 128
 344 530 364 544 387 556 c 1
 367 525 352 488 340 444 c 128
 328 400 322 353 322 303 c 1
149 303 m 1
 149 265 152 228 158 191 c 128
 164 154 173 119 184 86 c 128
 195 53 207 23 223 -6 c 128
 239 -35 256 -62 276 -86 c 1
 244 -66 215 -41 189 -13 c 128
 163 15 141 46 122 79 c 128
 103 112 88 147 78 185 c 128
 68 223 63 262 63 303 c 256
 63 344 68 383 78 421 c 128
 88 459 103 495 122 528 c 128
 141 561 163 592 189 620 c 128
 215 648 244 672 276 692 c 1
 256 668 239 642 223 613 c 128
 207 584 195 553 184 520 c 128
 173 487 164 453 158 416 c 128
 152 379 149 341 149 303 c 1
771 692 m 1
 803 672 833 648 859 620 c 128
 885 592 907 561 926 528 c 128
 945 495 959 459 969 421 c 128
 979 383 985 344 985 303 c 256
 985 262 979 223 969 185 c 128
 959 147 945 112 926 79 c 128
 907 46 885 15 859 -13 c 128
 833 -41 803 -66 771 -86 c 1
 791 -62 808 -35 824 -6 c 128
 840 23 853 53 864 86 c 128
 875 119 883 154 889 191 c 128
 895 228 898 265 898 303 c 256
 898 341 895 379 889 416 c 128
 883 453 875 487 864 520 c 128
 853 553 840 584 824 613 c 128
 808 642 791 668 771 692 c 1
EndSplineSet
EndChar

StartChar: uni25E1
Encoding: 9697 9697 317
Width: 1031
VWidth: 884
Flags: HW
LayerCount: 2
Fore
SplineSet
465 774 m 1
 565 774 l 1
 565 691 l 1
 650 680 723 643 784 582 c 128
 845 521 881 449 892 364 c 1
 975 364 l 1
 975 264 l 1
 892 264 l 1
 881 179 845 106 784 45 c 128
 723 -16 650 -52 565 -63 c 1
 565 -146 l 1
 465 -146 l 1
 465 -63 l 1
 380 -52 307 -16 246 45 c 128
 185 106 149 179 138 264 c 1
 55 264 l 1
 55 364 l 1
 138 364 l 1
 149 449 185 521 246 582 c 128
 307 643 380 680 465 691 c 1
 465 774 l 1
465 590 m 1
 408 579 358 553 317 512 c 128
 276 471 250 421 239 364 c 1
 406 364 l 1
 399 348 395 331 395 314 c 256
 395 297 399 280 406 264 c 1
 239 264 l 1
 250 207 276 157 317 116 c 128
 358 75 408 49 465 38 c 1
 465 205 l 1
 481 198 498 194 515 194 c 128
 532 194 549 198 565 205 c 1
 565 94 l 1
 565 38 l 1
 622 49 672 75 713 116 c 128
 754 157 780 207 791 264 c 1
 755 264 l 1
 624 264 l 1
 631 280 635 297 635 314 c 256
 635 331 631 348 624 364 c 1
 755 364 l 1
 791 364 l 1
 780 421 754 471 713 512 c 128
 672 553 622 579 565 590 c 1
 565 423 l 1
 549 430 532 434 515 434 c 128
 498 434 481 430 465 423 c 1
 465 590 l 1
EndSplineSet
EndChar

StartChar: uni2609
Encoding: 9737 9737 318
Width: 654
VWidth: 795
Flags: HW
LayerCount: 2
Fore
SplineSet
327 741 m 1
 364 741 400 734 433 720 c 128
 466 706 495 687 520 662 c 128
 545 637 564 608 578 575 c 128
 592 542 599 506 599 469 c 0
 599 401 584 332 556 261 c 128
 528 190 497 126 463 68 c 128
 429 10 398 -37 370 -74 c 128
 328 -129 327 -129 327 -129 c 257
 327 -129 326 -129 284 -74 c 128
 256 -37 225 10 191 68 c 128
 157 126 126 190 98 261 c 128
 70 332 55 401 55 469 c 0
 55 506 62 542 76 575 c 128
 90 608 109 637 134 662 c 128
 159 687 188 706 221 720 c 128
 254 734 290 741 327 741 c 1
327 306 m 1
 372 306 411 321 443 353 c 128
 475 385 490 424 490 469 c 256
 490 514 475 553 443 585 c 128
 411 617 372 632 327 632 c 256
 282 632 243 617 211 585 c 128
 179 553 164 514 164 469 c 256
 164 424 179 385 211 353 c 128
 243 321 282 306 327 306 c 1
EndSplineSet
EndChar

StartChar: uni25B9
Encoding: 9657 9657 319
Width: 965
VWidth: 770
Flags: HW
LayerCount: 2
Fore
SplineSet
517 -154 m 1
 515 -154 515 -154 514 -154 c 128
 513 -154 512 -155 511 -154 c 0
 505 -153 499 -149 495 -144 c 128
 491 -139 489 -133 489 -127 c 2
 489 281 l 1
 81 281 l 2
 75 281 69 283 64 287 c 128
 59 291 56 296 55 302 c 0
 53 308 54 314 57 320 c 128
 60 326 63 330 69 333 c 2
 885 713 l 2
 891 715 897 717 902 716 c 128
 907 715 912 712 917 708 c 0
 921 703 923 698 924 693 c 128
 925 688 924 683 922 677 c 2
 541 -139 l 2
 539 -144 536 -147 531 -150 c 128
 526 -153 522 -154 517 -154 c 1
204 335 m 1
 517 335 l 2
 524 335 531 332 536 327 c 128
 541 322 544 315 544 308 c 2
 544 -5 l 1
 841 633 l 1
 204 335 l 1
EndSplineSet
EndChar

StartChar: uni260B
Encoding: 9739 9739 320
Width: 891
VWidth: 795
Flags: HW
LayerCount: 2
Fore
SplineSet
446 632 m 1
 499 632 548 622 594 602 c 128
 640 582 680 556 715 521 c 128
 750 486 777 446 797 400 c 128
 817 354 827 304 827 251 c 256
 827 198 817 149 797 103 c 128
 777 57 750 17 715 -18 c 128
 680 -53 640 -80 594 -100 c 128
 548 -120 499 -129 446 -129 c 256
 393 -129 343 -120 297 -100 c 128
 251 -80 211 -53 176 -18 c 128
 141 17 115 57 95 103 c 128
 75 149 65 198 65 251 c 256
 65 304 75 354 95 400 c 128
 115 446 141 486 176 521 c 128
 211 556 251 582 297 602 c 128
 343 622 393 632 446 632 c 1
446 -55 m 1
 488 -55 528 -46 565 -30 c 128
 602 -14 635 8 662 35 c 128
 689 62 712 95 728 132 c 128
 744 169 752 209 752 251 c 256
 752 293 744 334 728 371 c 128
 712 408 689 441 662 468 c 128
 635 495 602 517 565 533 c 128
 528 549 488 557 446 557 c 256
 404 557 363 549 326 533 c 128
 289 517 256 495 229 468 c 128
 202 441 180 408 164 371 c 128
 148 334 140 293 140 251 c 256
 140 209 148 169 164 132 c 128
 180 95 202 62 229 35 c 128
 256 8 289 -14 326 -30 c 128
 363 -46 404 -55 446 -55 c 1
805 497 m 1
 789 520 772 540 752 560 c 128
 732 580 711 598 688 613 c 128
 665 628 641 641 615 652 c 128
 589 663 562 671 534 677 c 1
 549 696 567 712 590 724 c 128
 613 736 637 741 663 741 c 0
 708 741 747 725 779 693 c 128
 811 661 827 623 827 578 c 0
 827 563 825 549 821 535 c 128
 817 521 812 509 805 497 c 1
357 677 m 1
 329 671 302 663 276 652 c 128
 250 641 226 628 203 613 c 128
 180 598 159 580 139 560 c 128
 119 540 102 520 86 497 c 1
 79 509 75 521 71 535 c 128
 67 549 65 563 65 578 c 0
 65 623 81 661 113 693 c 128
 145 725 183 741 228 741 c 0
 254 741 278 736 301 724 c 128
 324 712 342 696 357 677 c 1
446 251 m 1
 609 251 l 1
 609 197 l 1
 391 197 l 1
 391 469 l 1
 446 469 l 1
 446 251 l 1
EndSplineSet
EndChar

StartChar: uni263E
Encoding: 9790 9790 321
Width: 896
VWidth: 949
Flags: HW
LayerCount: 2
Fore
SplineSet
506 153 m 1
 555 149 600 141 642 127 c 128
 684 113 721 97 752 77 c 128
 783 57 807 33 825 7 c 128
 843 -19 851 -46 851 -75 c 1
 45 -75 l 1
 45 -46 54 -19 72 7 c 128
 90 33 113 57 144 77 c 128
 175 97 212 113 254 127 c 128
 296 141 342 149 391 153 c 1
 391 200 l 1
 359 218 331 248 309 288 c 128
 287 328 275 371 275 415 c 0
 275 451 276 484 278 516 c 128
 280 548 286 575 297 598 c 128
 308 621 325 640 348 654 c 128
 371 668 405 674 448 674 c 256
 491 674 525 668 548 654 c 128
 571 640 588 621 599 598 c 128
 610 575 616 548 618 516 c 128
 620 484 621 451 621 415 c 0
 621 371 609 328 587 288 c 128
 565 248 538 218 506 200 c 1
 506 153 l 1
EndSplineSet
EndChar

StartChar: uni030B
Encoding: 779 779 322
Width: 948
VWidth: 819
Flags: HW
LayerCount: 2
Fore
SplineSet
634 230 m 1
 612 230 592 235 572 243 c 128
 552 251 535 263 520 278 c 128
 505 293 494 309 486 329 c 128
 478 349 473 370 473 392 c 256
 473 414 478 434 486 454 c 128
 494 474 505 491 520 506 c 128
 535 521 552 532 572 540 c 128
 592 548 612 553 634 553 c 256
 656 553 677 548 697 540 c 128
 717 532 734 521 749 506 c 128
 764 491 775 474 783 454 c 128
 791 434 796 414 796 392 c 2
 796 369 l 2
 796 324 788 282 771 243 c 128
 754 204 731 169 702 140 c 128
 673 111 639 88 600 71 c 128
 561 54 519 46 474 46 c 1
 474 138 l 1
 505 138 534 144 562 156 c 128
 590 168 615 184 637 206 c 0
 641 210 645 214 649 219 c 128
 653 224 657 228 660 233 c 1
 656 232 651 231 647 231 c 128
 643 231 638 230 634 230 c 1
220 230 m 1
 198 230 177 235 157 243 c 128
 137 251 121 263 106 278 c 128
 91 293 79 309 71 329 c 128
 63 349 58 370 58 392 c 256
 58 414 63 434 71 454 c 128
 79 474 91 491 106 506 c 128
 121 521 137 532 157 540 c 128
 177 548 198 553 220 553 c 256
 242 553 262 548 282 540 c 128
 302 532 319 521 334 506 c 128
 349 491 360 474 368 454 c 128
 376 434 381 414 381 392 c 2
 382 369 l 2
 382 324 374 282 357 243 c 128
 340 204 316 169 287 140 c 128
 258 111 224 88 185 71 c 128
 146 54 104 46 59 46 c 1
 59 138 l 1
 90 138 119 144 147 156 c 128
 175 168 200 184 222 206 c 0
 226 210 230 214 234 219 c 128
 238 224 242 228 245 233 c 1
 241 232 237 231 233 231 c 128
 229 231 224 230 220 230 c 1
EndSplineSet
Validated: 1
EndChar

StartChar: uni030F
Encoding: 783 783 323
Width: 845
VWidth: 921
Flags: HW
LayerCount: 2
Fore
SplineSet
215 369 m 1
 237 369 258 364 278 356 c 128
 298 348 314 336 329 321 c 128
 344 306 356 290 364 270 c 128
 372 250 376 229 376 207 c 256
 376 185 372 165 364 145 c 128
 356 125 344 108 329 93 c 128
 314 78 298 67 278 59 c 128
 258 51 237 46 215 46 c 256
 193 46 172 51 152 59 c 128
 132 67 116 78 101 93 c 128
 86 108 74 125 66 145 c 128
 58 165 54 185 54 207 c 2
 53 230 l 2
 53 275 61 317 78 356 c 128
 95 395 118 430 147 459 c 128
 176 488 211 511 250 528 c 128
 289 545 331 553 376 553 c 1
 376 461 l 1
 345 461 315 456 287 444 c 128
 259 432 235 415 213 393 c 0
 209 389 205 386 201 381 c 128
 197 376 193 371 190 366 c 1
 194 367 198 368 202 368 c 128
 206 368 211 369 215 369 c 1
630 369 m 1
 652 369 672 364 692 356 c 128
 712 348 729 336 744 321 c 128
 759 306 770 290 778 270 c 128
 786 250 791 229 791 207 c 256
 791 185 786 165 778 145 c 128
 770 125 759 108 744 93 c 128
 729 78 712 67 692 59 c 128
 672 51 652 46 630 46 c 256
 608 46 587 51 567 59 c 128
 547 67 531 78 516 93 c 128
 501 108 489 125 481 145 c 128
 473 165 469 185 469 207 c 2
 468 230 l 2
 468 275 476 317 493 356 c 128
 510 395 533 430 562 459 c 128
 591 488 626 511 665 528 c 128
 704 545 745 553 790 553 c 1
 790 461 l 1
 759 461 730 456 702 444 c 128
 674 432 650 415 628 393 c 0
 624 389 619 386 615 381 c 128
 611 376 608 371 605 366 c 1
 609 367 613 368 617 368 c 128
 621 368 626 369 630 369 c 1
EndSplineSet
Validated: 1
EndChar

StartChar: uni260D
Encoding: 9741 9741 324
Width: 823
VWidth: 769
Flags: HW
LayerCount: 2
Fore
SplineSet
585 308 m 1
 613 290 638 269 661 244 c 128
 684 219 703 192 719 161 c 128
 735 130 748 97 757 61 c 128
 766 25 770 -12 770 -50 c 0
 770 -59 770 -67 769 -76 c 128
 768 -89 768 -88 767 -101 c 1
 55 -101 l 1
 54 -88 55 -89 54 -76 c 128
 53 -67 53 -59 53 -50 c 0
 53 -12 57 25 66 61 c 128
 75 97 88 130 104 161 c 128
 120 192 139 219 162 244 c 128
 185 269 210 290 238 308 c 1
 210 326 185 347 162 372 c 128
 139 397 120 425 104 456 c 128
 88 487 75 520 66 556 c 128
 57 592 53 629 53 667 c 0
 53 676 53 683 54 692 c 128
 55 705 54 705 55 718 c 1
 767 718 l 1
 768 705 768 705 769 692 c 128
 770 683 770 676 770 667 c 0
 770 629 766 592 757 556 c 128
 748 520 735 487 719 456 c 128
 703 425 684 397 661 372 c 128
 638 347 613 326 585 308 c 1
130 -50 m 1
 693 -50 l 1
 693 -13 689 23 681 57 c 128
 673 91 661 121 646 149 c 128
 631 177 612 201 590 222 c 128
 568 243 543 257 514 268 c 1
 514 348 l 1
 543 359 568 374 590 395 c 128
 612 416 631 440 646 468 c 128
 661 496 673 526 681 560 c 128
 689 594 693 630 693 667 c 1
 130 667 l 1
 130 630 134 594 142 560 c 128
 150 526 162 496 177 468 c 128
 192 440 211 416 233 395 c 128
 255 374 280 359 309 348 c 1
 309 268 l 1
 280 257 255 243 233 222 c 128
 211 201 192 177 177 149 c 128
 162 121 150 91 142 57 c 128
 134 23 130 -13 130 -50 c 1
498 182 m 1
 527 165 551 142 572 110 c 128
 593 78 606 42 612 1 c 1
 211 1 l 1
 217 41 230 77 251 109 c 128
 272 141 296 165 325 182 c 256
 354 199 371 216 377 235 c 128
 383 254 386 270 386 283 c 2
 386 334 l 2
 386 347 383 363 377 382 c 128
 371 401 354 418 325 435 c 0
 310 444 295 455 282 468 c 128
 269 481 257 496 247 513 c 1
 575 513 l 1
 565 496 554 482 541 468 c 128
 528 454 513 444 498 435 c 0
 469 418 452 401 446 382 c 128
 440 363 437 347 437 334 c 2
 437 283 l 2
 437 270 440 254 446 235 c 128
 452 216 469 199 498 182 c 1
EndSplineSet
EndChar

StartChar: uni2687
Encoding: 9863 9863 325
Width: 923
VWidth: 769
Flags: HW
LayerCount: 2
Fore
SplineSet
853 21 m 1
 869 7 877 -10 878 -30 c 128
 879 -50 873 -68 859 -82 c 0
 845 -96 827 -102 807 -101 c 128
 787 -100 770 -92 756 -76 c 2
 591 118 l 2
 582 128 575 139 571 149 c 128
 567 159 564 168 565 177 c 1
 538 154 508 136 474 123 c 128
 440 110 404 104 366 104 c 0
 323 104 284 112 247 128 c 128
 210 144 177 166 149 194 c 128
 121 222 99 254 83 291 c 128
 67 328 59 368 59 411 c 256
 59 454 67 493 83 530 c 128
 99 567 121 600 149 628 c 128
 177 656 210 678 247 694 c 128
 284 710 323 718 366 718 c 256
 409 718 449 710 486 694 c 128
 523 678 555 656 583 628 c 128
 611 600 633 567 649 530 c 128
 665 493 673 454 673 411 c 0
 673 373 667 337 654 303 c 128
 641 269 623 239 600 212 c 1
 609 213 618 210 628 206 c 128
 638 202 649 195 659 186 c 2
 853 21 l 1
366 206 m 1
 394 206 421 211 446 222 c 128
 471 233 492 247 511 266 c 128
 530 285 544 306 555 331 c 128
 566 356 571 383 571 411 c 256
 571 439 566 465 555 490 c 128
 544 515 530 537 511 556 c 128
 492 575 471 589 446 600 c 128
 421 611 394 616 366 616 c 256
 338 616 312 611 287 600 c 128
 262 589 240 575 221 556 c 128
 202 537 188 515 177 490 c 128
 166 465 161 439 161 411 c 256
 161 383 166 356 177 331 c 128
 188 306 202 285 221 266 c 128
 240 247 262 233 287 222 c 128
 312 211 338 206 366 206 c 1
EndSplineSet
EndChar

StartChar: uni2627
Encoding: 9767 9767 326
Width: 720
VWidth: 900
Flags: HW
HStem: 611 95
VStem: 133 97 490 95<493 493 493 515 493 493 493 551.5>
LayerCount: 2
Fore
SplineSet
651 288 m 2
 651 -68 l 2
 651 -90 642 -100 619 -100 c 2
 101 -100 l 2
 79 -100 69 -90 69 -68 c 2
 69 288 l 2
 69 311 79 321 101 321 c 2
 490 321 l 1
 490 385 490 450 490 515 c 0
 490 588 425 612 362 612 c 0
 299 612 231 583 231 510 c 2
 231 385 l 1
 134 385 l 1
 134 513 l 1
 135 513 l 1
 147 631 247 707 362 707 c 0
 482 707 573 608 584 493 c 1
 585 493 l 1
 587 321 l 1
 616 321 651 329 651 288 c 2
EndSplineSet
EndChar

StartChar: uni2628
Encoding: 9768 9768 327
Width: 865
VWidth: 924
Flags: HW
LayerCount: 2
Fore
SplineSet
440 729 m 0
 493 729 542 715 588 687 c 128
 634 659 668 621 690 574 c 0
 696 564 701 552 704 540 c 128
 707 528 710 518 712 508 c 128
 714 498 715 485 716 470 c 128
 717 455 717 444 717 436 c 128
 717 424 717 424 717 399 c 128
 717 374 717 375 717 366 c 1
 726 366 726 366 745 366 c 128
 764 366 764 366 770 366 c 0
 772 366 771 366 775 366 c 0
 783 366 787 365 790 363 c 128
 793 361 794 355 793 346 c 0
 793 276 793 276 793 141 c 128
 793 6 793 6 793 -64 c 0
 792 -67 792 -72 793 -79 c 128
 794 -86 794 -92 793 -97 c 128
 792 -102 789 -105 784 -107 c 2
 114 -107 l 2
 111 -106 105 -106 98 -107 c 128
 91 -108 85 -107 80 -106 c 128
 75 -105 72 -102 71 -97 c 2
 71 324 l 2
 71 350 71 349 71 351 c 0
 70 356 71 360 72 362 c 128
 73 364 77 366 81 366 c 0
 89 366 89 366 103 366 c 128
 117 366 117 366 129 366 c 128
 141 366 141 366 152 366 c 1
 152 376 152 389 152 408 c 128
 152 427 152 444 152 460 c 128
 152 476 153 490 155 503 c 0
 165 566 196 620 249 664 c 128
 302 708 360 729 425 728 c 0
 430 729 435 729 440 729 c 0
439 638 m 0
 434 638 429 638 425 637 c 0
 392 638 360 629 331 612 c 128
 302 595 279 571 264 542 c 0
 257 529 252 515 248 499 c 128
 244 483 242 470 242 459 c 128
 242 448 242 432 242 412 c 128
 242 392 242 377 242 368 c 1
 626 368 l 1
 625 378 626 392 626 411 c 128
 626 430 626 445 626 456 c 128
 626 467 623 480 620 496 c 128
 617 512 612 525 606 538 c 0
 591 569 568 594 537 612 c 128
 506 630 474 638 439 638 c 0
437 247 m 0
 434 247 434 247 432 247 c 0
 415 247 400 242 387 231 c 0
 379 225 372 218 368 209 c 0
 360 197 356 184 356 170 c 256
 356 156 360 143 367 131 c 128
 374 119 384 110 396 104 c 1
 396 100 395 95 394 90 c 2
 375 2 l 1
 485 2 l 1
 466 95 l 2
 465 98 465 99 465 102 c 0
 478 108 488 117 496 129 c 128
 504 141 508 155 508 170 c 0
 508 192 500 209 484 224 c 1
 472 239 456 247 437 247 c 0
EndSplineSet
EndChar

StartChar: uni2629
Encoding: 9769 9769 328
Width: 945
VWidth: 825
Flags: HW
LayerCount: 2
Fore
SplineSet
724 717 m 1
 769 717 807 701 839 669 c 128
 871 637 887 598 887 553 c 2
 887 390 l 1
 778 390 l 1
 778 553 l 2
 778 568 773 581 762 592 c 128
 751 603 739 608 724 608 c 2
 615 608 l 2
 600 608 588 603 577 592 c 128
 566 581 561 568 561 553 c 2
 561 390 l 1
 574 390 l 2
 585 390 595 386 603 378 c 128
 611 370 615 360 615 349 c 2
 615 -59 l 2
 615 -70 611 -79 603 -87 c 128
 595 -95 585 -99 574 -99 c 2
 112 -99 l 2
 101 -99 91 -95 83 -87 c 128
 75 -79 71 -70 71 -59 c 2
 71 349 l 2
 71 360 75 370 83 378 c 128
 91 386 101 390 112 390 c 2
 452 390 l 1
 452 553 l 2
 452 598 468 637 500 669 c 128
 532 701 570 717 615 717 c 2
 724 717 l 1
EndSplineSet
EndChar

StartChar: uni262A
Encoding: 9770 9770 329
Width: 965
VWidth: 795
Flags: HW
LayerCount: 2
Fore
SplineSet
897 474 m 1
 908 463 914 450 915 434 c 128
 916 418 913 403 905 391 c 2
 749 155 l 2
 741 143 728 135 713 131 c 128
 698 127 684 128 670 135 c 2
 550 194 l 2
 548 195 546 197 543 198 c 128
 540 199 538 201 535 203 c 1
 535 143 l 1
 426 143 l 1
 426 34 l 1
 317 34 l 1
 317 -75 l 1
 208 -75 l 1
 208 -129 l 1
 45 -129 l 1
 72 61 l 1
 376 364 l 1
 374 366 373 368 372 370 c 128
 371 372 370 373 369 375 c 2
 309 495 l 2
 302 509 301 524 305 539 c 128
 309 554 318 566 330 574 c 2
 565 731 l 2
 577 739 592 742 608 741 c 128
 624 740 637 733 648 722 c 2
 734 636 l 2
 744 625 757 613 772 598 c 128
 787 583 800 570 811 560 c 2
 897 474 l 1
173 14 m 1
 438 279 l 1
 399 318 l 1
 134 53 l 1
 173 14 l 1
824 381 m 1
 829 387 832 393 832 400 c 128
 832 407 829 414 824 419 c 2
 593 650 l 2
 588 655 582 658 575 658 c 128
 568 658 561 655 555 650 c 2
 517 612 l 2
 512 606 509 599 509 592 c 128
 509 585 512 579 517 574 c 2
 748 342 l 2
 753 337 760 335 767 335 c 128
 774 335 780 337 786 342 c 2
 824 381 l 1
EndSplineSet
EndChar

StartChar: uni261C
Encoding: 9756 9756 330
Width: 1003
VWidth: 800
Flags: HW
LayerCount: 2
Fore
SplineSet
575 -70 m 1
 439 -70 l 2
 416 -70 397 -62 381 -46 c 128
 365 -30 357 -11 357 12 c 0
 357 19 358 26 360 33 c 128
 362 40 364 46 367 52 c 1
 356 59 347 69 340 81 c 128
 333 93 330 106 330 120 c 0
 330 130 332 141 336 150 c 128
 340 159 344 168 351 175 c 1
 344 182 340 191 336 200 c 128
 332 209 330 219 330 229 c 0
 330 234 330 238 331 243 c 128
 332 248 333 251 334 256 c 1
 140 256 l 2
 117 256 98 264 82 280 c 128
 66 296 58 315 58 338 c 256
 58 361 66 380 82 396 c 128
 98 412 117 420 140 420 c 2
 475 420 l 1
 395 569 l 2
 392 575 389 582 387 589 c 128
 385 596 384 603 384 610 c 0
 384 633 392 652 408 668 c 128
 424 684 443 692 466 692 c 0
 477 692 488 689 498 685 c 128
 508 681 518 675 525 667 c 0
 525 666 525 666 525 666 c 128
 526 666 l 1
 711 463 l 1
 711 501 l 2
 711 508 714 515 719 520 c 128
 724 525 731 528 738 528 c 2
 901 528 l 2
 908 528 915 525 920 520 c 128
 925 515 928 508 928 501 c 2
 928 -43 l 2
 928 -50 925 -57 920 -62 c 128
 915 -67 908 -70 901 -70 c 2
 738 -70 l 2
 731 -70 724 -67 719 -62 c 128
 714 -57 711 -50 711 -43 c 2
 711 -5 l 1
 587 -67 l 2
 585 -68 583 -68 581 -69 c 128
 579 -70 577 -70 575 -70 c 1
792 -16 m 1
 799 -16 807 -13 812 -8 c 128
 817 -3 820 5 820 12 c 256
 820 19 817 26 812 31 c 128
 807 36 799 39 792 39 c 256
 785 39 778 36 773 31 c 128
 768 26 765 19 765 12 c 256
 765 5 768 -3 773 -8 c 128
 778 -13 785 -16 792 -16 c 1
568 -16 m 1
 711 56 l 1
 711 382 l 1
 486 629 l 2
 483 632 480 634 477 635 c 128
 474 636 470 637 466 637 c 0
 459 637 452 634 447 629 c 128
 442 624 439 617 439 610 c 0
 439 608 439 605 440 603 c 128
 441 601 441 599 442 597 c 0
 442 596 443 596 443 596 c 128
 443 596 l 1
 544 405 l 2
 546 401 548 397 548 392 c 128
 548 387 546 383 543 379 c 0
 541 374 538 371 534 369 c 128
 530 367 525 365 520 365 c 2
 140 365 l 2
 133 365 125 362 120 357 c 128
 115 352 112 345 112 338 c 256
 112 331 115 324 120 319 c 128
 125 314 133 311 140 311 c 2
 412 311 l 2
 419 311 426 308 431 303 c 128
 436 298 439 291 439 284 c 256
 439 277 436 269 431 264 c 128
 426 259 419 256 412 256 c 256
 405 256 397 253 392 248 c 128
 387 243 384 236 384 229 c 256
 384 222 387 215 392 210 c 128
 397 205 405 202 412 202 c 256
 419 202 426 199 431 194 c 128
 436 189 439 182 439 175 c 256
 439 168 436 161 431 156 c 128
 426 151 419 148 412 148 c 256
 405 148 397 145 392 140 c 128
 387 135 384 127 384 120 c 256
 384 113 387 106 392 101 c 128
 397 96 405 93 412 93 c 2
 439 93 l 2
 446 93 453 90 458 85 c 128
 463 80 466 73 466 66 c 256
 466 59 463 52 458 47 c 128
 453 42 446 39 439 39 c 256
 432 39 425 36 420 31 c 128
 415 26 412 19 412 12 c 256
 412 5 415 -3 420 -8 c 128
 425 -13 432 -16 439 -16 c 2
 568 -16 l 1
EndSplineSet
EndChar

StartChar: uni2651
Encoding: 9809 9809 331
Width: 923
VWidth: -28
Flags: HW
LayerCount: 2
Fore
SplineSet
710 105 m 128
 668 105 632 120 602 150 c 128
 572 180 557 216 557 258 c 0
 557 265 557 274 559 284 c 1
 392 344 260 428 163 536 c 1
 185 411 233 298 303 198 c 1
 321 204 337 207 352 207 c 0
 395 207 431 192 461 162 c 128
 491 132 506 96 506 54 c 128
 506 12 491 -25 461 -55 c 128
 431 -85 395 -100 352 -100 c 128
 309 -100 273 -85 243 -55 c 128
 213 -25 199 11 199 54 c 0
 199 101 217 140 254 171 c 1
 173 284 122 416 103 566 c 1
 100 565 98 566 96 566 c 0
 82 566 70 571 60 581 c 128
 50 591 45 603 45 617 c 2
 45 668 l 2
 45 682 50 694 60 704 c 128
 70 714 83 719 97 719 c 128
 111 719 123 714 133 704 c 128
 143 694 147 682 147 668 c 0
 147 664 148 654 150 638 c 1
 247 506 390 406 579 336 c 1
 592 359 611 377 634 391 c 128
 657 405 683 412 711 412 c 0
 754 412 789 397 819 367 c 128
 849 337 864 301 864 259 c 128
 864 217 849 180 819 150 c 128
 789 120 752 105 710 105 c 128
EndSplineSet
EndChar

StartChar: uni261D
Encoding: 9757 9757 332
Width: 889
VWidth: 800
Flags: HW
LayerCount: 2
Fore
SplineSet
819 229 m 1
 819 227 819 225 818 223 c 128
 817 221 817 219 816 217 c 2
 754 93 l 1
 791 93 l 2
 798 93 806 90 811 85 c 128
 816 80 819 73 819 66 c 2
 819 -97 l 2
 819 -104 816 -111 811 -116 c 128
 806 -121 798 -124 791 -124 c 2
 247 -124 l 2
 240 -124 233 -121 228 -116 c 128
 223 -111 220 -104 220 -97 c 2
 220 66 l 2
 220 73 223 80 228 85 c 128
 233 90 240 93 247 93 c 2
 286 93 l 1
 82 278 l 1
 82 279 l 128
 82 279 83 279 82 279 c 0
 74 286 67 296 63 306 c 128
 59 316 57 327 57 338 c 0
 57 361 65 380 81 396 c 128
 97 412 116 420 139 420 c 0
 146 420 153 419 160 417 c 128
 167 415 173 412 179 409 c 2
 329 329 l 1
 329 664 l 2
 329 687 337 706 353 722 c 128
 369 738 388 746 411 746 c 256
 434 746 452 738 468 722 c 128
 484 706 492 687 492 664 c 2
 492 470 l 1
 497 471 501 472 506 473 c 128
 511 474 514 474 519 474 c 0
 529 474 540 472 549 468 c 128
 558 464 567 460 574 453 c 1
 581 460 590 464 599 468 c 128
 608 472 618 474 628 474 c 0
 642 474 656 471 668 464 c 128
 680 457 690 448 697 437 c 1
 703 440 709 442 716 444 c 128
 723 446 730 447 737 447 c 0
 760 447 779 439 795 423 c 128
 811 407 819 388 819 365 c 2
 819 229 l 1
764 12 m 1
 764 19 761 26 756 31 c 128
 751 36 744 39 737 39 c 256
 730 39 723 36 718 31 c 128
 713 26 710 19 710 12 c 256
 710 5 713 -3 718 -8 c 128
 723 -13 730 -16 737 -16 c 256
 744 -16 751 -13 756 -8 c 128
 761 -3 764 5 764 12 c 1
764 236 m 1
 764 365 l 2
 764 372 761 379 756 384 c 128
 751 389 744 392 737 392 c 256
 730 392 723 389 718 384 c 128
 713 379 710 372 710 365 c 256
 710 358 707 351 702 346 c 128
 697 341 690 338 683 338 c 256
 676 338 668 341 663 346 c 128
 658 351 655 358 655 365 c 2
 655 392 l 2
 655 399 652 407 647 412 c 128
 642 417 635 420 628 420 c 256
 621 420 614 417 609 412 c 128
 604 407 601 399 601 392 c 256
 601 385 598 378 593 373 c 128
 588 368 581 365 574 365 c 256
 567 365 560 368 555 373 c 128
 550 378 547 385 547 392 c 256
 547 399 544 407 539 412 c 128
 534 417 526 420 519 420 c 256
 512 420 505 417 500 412 c 128
 495 407 492 399 492 392 c 256
 492 385 489 378 484 373 c 128
 479 368 472 365 465 365 c 256
 458 365 451 368 446 373 c 128
 441 378 438 385 438 392 c 2
 438 664 l 2
 438 671 435 679 430 684 c 128
 425 689 418 692 411 692 c 256
 404 692 396 689 391 684 c 128
 386 679 383 671 383 664 c 2
 383 284 l 2
 383 279 382 274 380 270 c 128
 378 266 375 263 370 261 c 0
 366 258 362 256 357 256 c 128
 352 256 347 258 343 260 c 2
 153 361 l 1
 153 361 l 128
 153 361 152 362 151 362 c 0
 149 363 147 363 145 364 c 128
 143 365 141 365 139 365 c 0
 132 365 124 362 119 357 c 128
 114 352 111 345 111 338 c 0
 111 334 113 330 114 327 c 128
 115 324 117 321 120 318 c 2
 366 93 l 1
 693 93 l 1
 764 236 l 1
EndSplineSet
EndChar

StartChar: uni267F
Encoding: 9855 9855 333
Width: 883
VWidth: 795
Flags: HW
LayerCount: 2
Fore
SplineSet
551 616 m 1
 590 605 626 588 659 564 c 128
 692 540 722 513 746 481 c 128
 770 449 788 414 802 375 c 128
 816 336 823 294 823 251 c 0
 823 198 813 149 793 103 c 128
 773 57 746 17 711 -18 c 128
 676 -53 636 -80 590 -100 c 128
 544 -120 495 -129 442 -129 c 256
 389 -129 339 -120 293 -100 c 128
 247 -80 207 -53 172 -18 c 128
 137 17 111 57 91 103 c 128
 71 149 61 198 61 251 c 0
 61 294 67 336 81 375 c 128
 95 414 114 449 138 481 c 128
 162 513 191 540 224 564 c 128
 257 588 294 605 333 616 c 1
 333 500 l 1
 318 494 303 487 289 477 c 128
 275 467 262 455 250 443 c 0
 224 417 204 389 190 356 c 128
 176 323 170 287 170 251 c 256
 170 215 176 180 190 147 c 128
 204 114 224 85 250 59 c 0
 276 33 305 14 338 0 c 128
 371 -14 406 -21 442 -21 c 256
 478 -21 513 -14 546 0 c 128
 579 14 608 33 634 59 c 0
 660 85 679 114 693 147 c 128
 707 180 714 215 714 251 c 256
 714 287 707 323 693 356 c 128
 679 389 660 417 634 443 c 0
 622 455 609 467 595 477 c 128
 581 487 566 494 551 500 c 1
 551 616 l 1
387 741 m 1
 496 741 l 1
 496 306 l 1
 387 306 l 1
 387 741 l 1
EndSplineSet
EndChar

StartChar: uni2622
Encoding: 9762 9762 334
Width: 860
VWidth: -28
Flags: HW
LayerCount: 2
Fore
SplineSet
638 2 m 0
 621 2 605 6 587 12 c 1
 587 2 l 2
 587 -26 577 -50 557 -70 c 128
 537 -90 513 -100 485 -100 c 2
 177 -100 l 2
 149 -100 125 -90 105 -70 c 128
 85 -50 75 -26 75 2 c 2
 75 566 l 2
 75 570 76 573 77 578 c 0
 76 584 75 588 75 591 c 0
 75 610 81 627 93 641 c 128
 105 655 121 663 140 666 c 1
 149 682 161 695 177 705 c 128
 193 715 210 719 229 719 c 0
 243 719 257 716 270 710 c 1
 281 716 293 719 305 719 c 0
 328 719 349 710 364 692 c 1
 384 710 406 719 433 719 c 0
 452 719 469 715 485 705 c 128
 501 695 513 682 522 666 c 1
 541 663 557 655 569 641 c 128
 581 627 587 610 587 591 c 0
 587 588 586 584 585 578 c 0
 586 573 587 570 587 566 c 2
 587 505 l 1
 605 511 621 514 638 514 c 0
 681 514 717 500 747 470 c 128
 777 440 792 404 792 361 c 2
 792 156 l 2
 792 113 777 77 747 47 c 128
 717 17 681 2 638 2 c 0
126 54 m 2
 126 40 131 27 141 17 c 128
 151 7 163 2 177 2 c 2
 485 2 l 2
 499 2 511 7 521 17 c 128
 531 27 536 40 536 54 c 2
 536 412 l 1
 126 412 l 1
 126 54 l 2
689 344 m 2
 689 363 682 379 667 392 c 128
 652 405 634 412 613 412 c 0
 604 412 596 411 587 408 c 1
 587 109 l 1
 596 106 605 105 613 105 c 0
 634 105 652 112 667 125 c 128
 682 138 689 154 689 173 c 2
 689 344 l 2
EndSplineSet
EndChar

StartChar: uni25FD
Encoding: 9725 9725 335
Width: 867
VWidth: 795
Flags: HW
LayerCount: 2
Fore
SplineSet
268 -129 m 1
 222 -103 184 -78 154 -52 c 128
 124 -26 101 1 85 28 c 128
 69 55 59 84 56 113 c 128
 53 142 55 174 62 208 c 0
 67 232 75 256 86 279 c 128
 97 302 108 324 119 347 c 128
 130 370 140 393 149 416 c 128
 158 439 163 463 165 487 c 1
 179 461 188 437 192 415 c 128
 196 393 199 369 201 342 c 1
 224 370 246 401 268 433 c 128
 290 465 309 498 325 532 c 128
 341 566 353 602 361 637 c 128
 369 672 370 707 365 741 c 1
 365 741 366 741 394 728 c 128
 413 720 435 704 461 681 c 128
 487 658 514 625 541 583 c 128
 568 541 591 487 609 421 c 1
 630 439 640 465 640 497 c 128
 640 529 636 556 626 579 c 1
 641 568 669 536 709 486 c 128
 749 436 778 376 797 307 c 128
 816 238 812 165 786 87 c 128
 760 9 687 -63 570 -129 c 1
 592 -86 605 -40 609 8 c 128
 613 56 608 104 596 150 c 128
 584 196 564 240 537 281 c 128
 510 322 478 354 440 381 c 1
 442 370 444 355 443 335 c 128
 442 315 439 295 434 272 c 128
 429 249 421 226 411 203 c 128
 401 180 387 159 370 140 c 1
 377 179 375 210 364 233 c 128
 347 268 347 268 347 268 c 257
 347 268 346 267 334 223 c 128
 326 194 310 162 286 126 c 0
 263 94 247 58 238 19 c 128
 229 -20 239 -68 268 -129 c 1
EndSplineSet
EndChar

StartChar: uni264D
Encoding: 9805 9805 336
Width: 870
VWidth: 718
Flags: HW
LayerCount: 2
Fore
SplineSet
819 238 m 1
 674 238 l 1
 672 221 670 204 666 188 c 128
 662 172 656 156 649 142 c 1
 742 142 l 1
 794 -68 l 1
 748 -80 l 1
 704 94 l 1
 620 94 l 1
 598 65 571 42 539 25 c 128
 507 8 472 -1 435 -1 c 256
 398 -1 363 8 331 25 c 128
 299 42 272 65 250 94 c 1
 166 94 l 1
 122 -80 l 1
 76 -68 l 1
 128 142 l 1
 221 142 l 1
 214 156 208 172 204 188 c 128
 200 204 198 221 196 238 c 1
 51 238 l 1
 51 286 l 1
 196 286 l 1
 198 314 204 340 213 364 c 128
 222 388 235 410 250 430 c 1
 128 430 l 1
 76 640 l 1
 122 652 l 1
 166 478 l 1
 297 478 l 2
 298 479 l 128
 299 479 298 480 298 480 c 1
 296 488 294 494 293 502 c 128
 292 510 291 519 291 527 c 0
 291 567 305 600 333 628 c 128
 361 656 395 670 435 670 c 256
 475 670 509 656 537 628 c 128
 565 600 579 567 579 527 c 0
 579 519 578 510 577 502 c 128
 576 494 574 488 572 480 c 1
 572 480 571 479 572 479 c 128
 573 478 l 2
 704 478 l 1
 748 652 l 1
 794 640 l 1
 742 430 l 1
 620 430 l 1
 635 410 648 388 657 364 c 128
 666 340 672 314 674 286 c 1
 819 286 l 1
 819 238 l 1
EndSplineSet
EndChar

StartChar: uni2624
Encoding: 9764 9764 337
Width: 885
VWidth: 795
Flags: HW
LayerCount: 2
Fore
SplineSet
769 741 m 1
 824 251 l 1
 824 198 814 149 794 103 c 128
 774 57 747 17 712 -18 c 128
 677 -53 637 -80 591 -100 c 128
 545 -120 496 -129 443 -129 c 256
 390 -129 340 -120 294 -100 c 128
 248 -80 208 -53 173 -18 c 128
 138 17 112 57 92 103 c 128
 72 149 62 198 62 251 c 1
 116 741 l 1
 334 741 l 1
 280 251 l 1
 280 206 295 168 327 136 c 128
 359 104 398 88 443 88 c 256
 488 88 526 104 558 136 c 128
 590 168 606 206 606 251 c 1
 552 741 l 1
 769 741 l 1
669 25 m 1
 698 55 721 90 737 128 c 128
 753 166 761 206 762 248 c 1
 732 524 l 1
 637 524 l 1
 667 258 l 1
 667 255 l 1
 667 251 l 2
 667 221 661 193 650 166 c 128
 639 139 623 114 602 92 c 0
 580 71 556 55 529 44 c 128
 502 33 473 27 443 27 c 256
 413 27 384 33 357 44 c 128
 330 55 306 71 284 92 c 0
 263 114 246 139 235 166 c 128
 224 193 218 221 218 251 c 2
 218 255 l 1
 248 524 l 1
 154 524 l 1
 123 248 l 1
 124 206 132 166 148 128 c 128
 164 90 188 55 217 25 c 0
 247 -5 281 -28 320 -44 c 128
 359 -60 401 -68 443 -68 c 256
 485 -68 526 -60 565 -44 c 128
 604 -28 639 -5 669 25 c 1
EndSplineSet
EndChar

StartChar: uni2632
Encoding: 9778 9778 338
Width: 921
VWidth: 974
Flags: HW
LayerCount: 2
Fore
SplineSet
664 206 m 1
 868 206 l 1
 868 104 l 1
 715 52 l 1
 664 -101 l 1
 561 -101 l 1
 561 104 l 1
 415 250 l 1
 152 -101 l 1
 49 1 l 1
 224 440 l 1
 87 578 l 2
 67 598 54 620 50 644 c 128
 46 668 51 688 65 702 c 0
 79 716 99 721 123 717 c 128
 147 713 169 700 189 680 c 2
 327 543 l 1
 766 718 l 1
 868 616 l 1
 517 352 l 1
 664 206 l 1
EndSplineSet
EndChar

StartChar: uni268A
Encoding: 9866 9866 339
Width: 951
VWidth: 795
Flags: HW
LayerCount: 2
Fore
SplineSet
416 200 m 1
 410 200 404 202 399 204 c 128
 394 206 389 209 384 213 c 0
 364 233 349 256 339 282 c 128
 329 308 324 333 324 360 c 128
 324 387 329 412 339 438 c 128
 349 464 364 487 384 507 c 2
 548 670 l 2
 568 689 590 705 615 715 c 128
 640 725 667 731 695 731 c 256
 723 731 749 725 774 715 c 128
 799 705 822 689 842 670 c 0
 862 650 877 628 887 602 c 128
 897 576 902 550 902 523 c 128
 902 496 897 471 887 445 c 128
 877 419 862 396 842 376 c 2
 767 302 l 2
 759 293 747 289 735 289 c 128
 723 289 712 293 704 302 c 0
 696 310 691 321 691 333 c 128
 691 345 696 356 704 364 c 2
 779 439 l 2
 802 462 814 490 814 523 c 128
 814 556 802 585 779 608 c 0
 768 619 754 627 740 633 c 128
 726 639 711 642 695 642 c 256
 679 642 663 639 649 633 c 128
 635 627 621 619 610 608 c 2
 447 444 l 2
 424 421 412 393 412 360 c 128
 412 327 424 299 447 276 c 0
 455 268 460 257 460 245 c 128
 460 233 455 222 447 213 c 0
 442 209 437 206 432 204 c 128
 427 202 422 200 416 200 c 1
259 -119 m 1
 231 -119 205 -113 180 -103 c 128
 155 -93 132 -78 112 -59 c 0
 92 -39 77 -16 67 10 c 128
 57 36 52 61 52 88 c 128
 52 115 57 140 67 166 c 128
 77 192 92 215 112 235 c 2
 187 309 l 2
 195 318 207 323 219 323 c 128
 231 323 242 318 250 309 c 0
 258 301 263 290 263 278 c 128
 263 266 258 255 250 247 c 2
 175 172 l 2
 152 149 140 121 140 88 c 128
 140 55 152 27 175 4 c 0
 186 -7 200 -16 214 -22 c 128
 228 -28 243 -31 259 -31 c 256
 275 -31 291 -28 305 -22 c 128
 319 -16 333 -7 344 4 c 2
 507 167 l 2
 530 190 542 218 542 251 c 128
 542 284 530 313 507 336 c 0
 499 344 494 355 494 367 c 128
 494 379 499 389 507 398 c 0
 515 406 526 411 538 411 c 128
 550 411 561 406 570 398 c 0
 590 378 605 356 615 330 c 128
 625 304 630 278 630 251 c 128
 630 224 625 199 615 173 c 128
 605 147 590 124 570 104 c 2
 406 -59 l 2
 386 -78 364 -93 339 -103 c 128
 314 -113 287 -119 259 -119 c 1
EndSplineSet
EndChar

StartChar: uni25FA
Encoding: 9722 9722 340
Width: 980
VWidth: 795
Flags: HW
LayerCount: 2
Fore
SplineSet
490 34 m 1
 505 34 519 28 529 18 c 128
 539 8 545 -6 545 -21 c 2
 545 -75 l 2
 545 -90 539 -104 529 -114 c 128
 519 -124 505 -129 490 -129 c 256
 475 -129 462 -124 452 -114 c 128
 442 -104 436 -90 436 -75 c 2
 436 -21 l 2
 436 -6 442 8 452 18 c 128
 462 28 475 34 490 34 c 1
490 578 m 1
 475 578 462 584 452 594 c 128
 442 604 436 617 436 632 c 2
 436 687 l 2
 436 702 442 715 452 725 c 128
 462 735 475 741 490 741 c 256
 505 741 519 735 529 725 c 128
 539 715 545 702 545 687 c 2
 545 632 l 2
 545 617 539 604 529 594 c 128
 519 584 505 578 490 578 c 1
871 360 m 1
 886 360 900 354 910 344 c 128
 920 334 925 321 925 306 c 256
 925 291 920 277 910 267 c 128
 900 257 886 251 871 251 c 2
 817 251 l 2
 802 251 788 257 778 267 c 128
 768 277 762 291 762 306 c 256
 762 321 768 334 778 344 c 128
 788 354 802 360 817 360 c 2
 871 360 l 1
218 306 m 1
 218 291 212 277 202 267 c 128
 192 257 179 251 164 251 c 2
 109 251 l 2
 94 251 81 257 71 267 c 128
 61 277 55 291 55 306 c 256
 55 321 61 334 71 344 c 128
 81 354 94 360 109 360 c 2
 164 360 l 2
 179 360 192 354 202 344 c 128
 212 334 218 321 218 306 c 1
760 114 m 1
 798 75 l 2
 809 65 814 52 814 37 c 128
 814 22 809 9 798 -2 c 256
 787 -13 774 -18 759 -18 c 128
 744 -18 731 -13 721 -2 c 2
 682 36 l 2
 672 47 667 60 667 75 c 128
 667 90 672 103 682 114 c 0
 693 124 706 129 721 129 c 128
 736 129 749 124 760 114 c 1
221 498 m 1
 182 537 l 2
 171 547 166 560 166 575 c 128
 166 590 171 602 182 613 c 256
 193 624 206 630 221 630 c 128
 236 630 249 624 259 613 c 2
 298 575 l 2
 308 564 313 552 313 537 c 128
 313 522 308 509 298 498 c 0
 287 488 274 483 259 483 c 128
 244 483 232 488 221 498 c 1
760 498 m 1
 749 488 736 483 721 483 c 128
 706 483 693 488 682 498 c 0
 672 509 667 522 667 537 c 128
 667 552 672 564 682 575 c 2
 721 613 l 2
 731 624 744 630 759 630 c 128
 774 630 787 624 798 613 c 256
 809 602 814 590 814 575 c 128
 814 560 809 547 798 537 c 2
 760 498 l 1
221 114 m 1
 232 124 244 129 259 129 c 128
 274 129 287 124 298 114 c 0
 308 103 313 90 313 75 c 128
 313 60 308 47 298 36 c 2
 259 -2 l 2
 249 -13 236 -18 221 -18 c 128
 206 -18 193 -13 182 -2 c 256
 171 9 166 22 166 37 c 128
 166 52 171 65 182 75 c 2
 221 114 l 1
490 523 m 1
 520 523 549 517 575 506 c 128
 601 495 624 480 644 460 c 128
 664 440 680 416 691 390 c 128
 702 364 708 336 708 306 c 256
 708 276 702 247 691 221 c 128
 680 195 664 172 644 152 c 128
 624 132 601 116 575 105 c 128
 549 94 520 88 490 88 c 256
 460 88 432 94 406 105 c 128
 380 116 356 132 336 152 c 128
 316 172 301 195 290 221 c 128
 279 247 273 276 273 306 c 256
 273 336 279 364 290 390 c 128
 301 416 316 440 336 460 c 128
 356 480 380 495 406 506 c 128
 432 517 460 523 490 523 c 1
490 170 m 1
 527 170 559 183 586 210 c 128
 613 237 626 269 626 306 c 256
 626 343 613 375 586 402 c 128
 559 429 527 442 490 442 c 256
 453 442 421 429 394 402 c 128
 367 375 354 343 354 306 c 256
 354 269 367 237 394 210 c 128
 421 183 453 170 490 170 c 1
EndSplineSet
EndChar

